<svg width="32" height="32" viewBox="0 0 32 32" fill="none" xmlns="http://www.w3.org/2000/svg">
<mask id="mask0_66_256" style="mask-type:luminance" maskUnits="userSpaceOnUse" x="0" y="0" width="32" height="32">
<path d="M0 0H31.9074V32H0V0Z" fill="white"/>
</mask>
<g mask="url(#mask0_66_256)">
<path d="M7.18219 0H24.7263C26.7086 0 28.5041 0.806732 29.8136 2.11944C31.1041 3.41368 31.9269 5.23344 31.9269 7.20304V24.7975C31.9269 26.7861 31.1041 28.5869 29.8136 29.8996C28.5041 31.1944 26.7086 32.0195 24.7263 32.0195H7.18219C5.21829 32.0195 3.40434 31.1944 2.1133 29.8996C0.804397 28.5869 0 26.7861 0 24.7975V7.20304C0 5.23344 0.804397 3.41368 2.1133 2.11944C3.40434 0.806732 5.21829 0 7.18219 0ZM24.7263 2.85125H7.18219C5.98534 2.85125 4.90054 3.33876 4.11455 4.12649C3.3291 4.91422 2.843 6.00217 2.843 7.20304V24.7975C2.843 25.9984 3.3291 27.0863 4.11455 27.874C4.90054 28.6808 5.98534 29.1683 7.18219 29.1683H24.7263C25.9231 29.1683 27.0079 28.6808 27.7934 27.874C28.5978 27.0863 29.0839 25.9984 29.0839 24.7975V7.20304C29.0839 6.00217 28.5978 4.91422 27.7934 4.12649C27.0079 3.33876 25.9231 2.85125 24.7263 2.85125Z" fill="#2C2C2C"/>
</g>
<path d="M24.9131 5.5896C25.3061 5.5896 25.6801 5.73998 25.9232 6.00219C26.1852 6.26495 26.3535 6.62163 26.3535 7.01522C26.3535 7.40936 26.1852 7.7845 25.9232 8.02825C25.6801 8.29101 25.3061 8.45985 24.9131 8.45985C24.5206 8.45985 24.165 8.29101 23.903 8.02825C23.6415 7.7845 23.4916 7.40936 23.4916 7.01522C23.4916 6.62163 23.6415 6.26495 23.903 6.00219C24.165 5.73998 24.5206 5.5896 24.9131 5.5896Z" fill="#2C2C2C"/>
<path d="M15.9542 8.23438C18.1049 8.23438 20.0314 9.11603 21.434 10.5042C22.8371 11.9108 23.7162 13.862 23.7162 16.0004C23.7162 18.1573 22.8371 20.0894 21.434 21.496C20.0314 22.9032 18.1049 23.7849 15.9542 23.7849C13.822 23.7849 11.8765 22.9032 10.4739 21.496C9.08979 20.0894 8.21069 18.1573 8.21069 16.0004C8.21069 13.862 9.08979 11.9108 10.4739 10.5042C11.8765 9.11603 13.822 8.23438 15.9542 8.23438ZM19.4143 12.5487C18.5352 11.6671 17.301 11.1041 15.9542 11.1041C14.6074 11.1041 13.3916 11.6671 12.5125 12.5487C11.6334 13.4304 11.0726 14.6497 11.0726 16.0004C11.0726 17.3506 11.6334 18.5889 12.5125 19.4705C13.3916 20.3522 14.6074 20.8962 15.9542 20.8962C17.301 20.8962 18.5352 20.3522 19.4143 19.4705C20.2934 18.5889 20.8358 17.3506 20.8358 16.0004C20.8358 14.6497 20.2934 13.4304 19.4143 12.5487Z" fill="#2C2C2C"/>
</svg>
