<svg width="32" height="32" viewBox="0 0 32 32" fill="none" xmlns="http://www.w3.org/2000/svg">
<path d="M1.29136 8.62329H5.36827C5.47113 8.62329 5.57118 8.64243 5.6675 8.68161C5.76287 8.71989 5.84703 8.77547 5.9209 8.84655C5.99384 8.91854 6.05088 9.00055 6.09015 9.0935C6.12942 9.18736 6.14999 9.28396 6.14999 9.38511V31.2373C6.14999 31.3384 6.12942 31.4359 6.09015 31.5289C6.05088 31.6227 5.99384 31.7047 5.9209 31.7767C5.84703 31.8478 5.76287 31.9034 5.6675 31.9417C5.57118 31.9799 5.47113 32 5.36827 32H1.29136C1.18757 32 1.08752 31.9799 0.99214 31.9417C0.895828 31.9034 0.811671 31.8478 0.738736 31.7767C0.664865 31.7047 0.608761 31.6227 0.568553 31.5289C0.52928 31.4359 0.509644 31.3384 0.509644 31.2373V9.38511C0.509644 9.28396 0.52928 9.18736 0.568553 9.0935C0.608761 9.00055 0.664865 8.91854 0.738736 8.84655C0.811671 8.77547 0.895828 8.71989 0.99214 8.68161C1.08752 8.64243 1.18757 8.62329 1.29136 8.62329Z" fill="#E4D12C"/>
<path d="M6.61282 3.23226C6.60721 1.3587 5.22798 0 3.32979 0C1.43159 0 0 1.39515 0 3.24502C0 4.10616 0.321665 4.90716 0.907019 5.5004C1.50827 6.11003 2.33581 6.44538 3.23722 6.44538C4.23587 6.44538 5.127 6.10274 5.74788 5.47579C6.3295 4.88985 6.6362 4.09887 6.61376 3.24502C6.61376 3.24137 6.61282 3.23773 6.61282 3.23226Z" fill="#E4D12C"/>
<path d="M28.9432 10.1606C26.9132 8.39092 24.5344 8.12665 23.2973 8.12665C21.4477 8.12665 19.686 8.60871 18.2011 9.51906C17.5522 9.9182 16.9659 10.3902 16.4423 10.9361L16.3394 9.3359C16.3338 9.2393 16.3095 9.14727 16.2665 9.05887C16.2244 8.97139 16.1664 8.89484 16.0944 8.82832C16.0215 8.7618 15.9392 8.71077 15.8457 8.67523C15.7531 8.63969 15.6577 8.62147 15.5577 8.62238H11.9464C11.8922 8.62238 11.8389 8.62693 11.7865 8.63787C11.7342 8.6488 11.6827 8.66429 11.6332 8.68525C11.5846 8.70621 11.5378 8.73264 11.4939 8.76271C11.4499 8.79278 11.4097 8.82741 11.3732 8.86568C11.3368 8.90396 11.304 8.94588 11.2769 8.99053C11.2489 9.03609 11.2264 9.08257 11.2087 9.13268C11.1909 9.18189 11.1787 9.23292 11.1713 9.28487C11.1647 9.33681 11.1628 9.38875 11.1666 9.44069C11.2947 11.1092 11.3499 12.8607 11.3499 15.2983V31.2372C11.3499 31.3384 11.3695 31.4359 11.4097 31.5289C11.449 31.6227 11.5051 31.7047 11.5789 31.7767C11.6519 31.8478 11.737 31.9034 11.8324 31.9417C11.9277 31.9799 12.0278 32 12.1316 32H16.2085C16.3123 32 16.4123 31.9799 16.5077 31.9417C16.604 31.9034 16.6882 31.8478 16.7611 31.7767C16.835 31.7047 16.8911 31.6227 16.9313 31.5289C16.9706 31.4359 16.9902 31.3384 16.9902 31.2372V18.0995C16.9902 17.4817 17.0744 16.9021 17.2212 16.5085C17.2258 16.4966 17.2296 16.4839 17.2343 16.4702C17.785 14.7178 19.4579 12.9454 21.9536 12.9454C23.4974 12.9454 24.6064 13.4603 25.3432 14.5192C26.0071 15.476 26.3587 16.9012 26.3587 18.6399V31.2372C26.3587 31.3384 26.3793 31.4359 26.4185 31.5289C26.4587 31.6227 26.5148 31.7047 26.5878 31.7767C26.6616 31.8478 26.7458 31.9034 26.8421 31.9417C26.9375 31.9799 27.0375 32 27.1413 32H31.2182C31.322 32 31.4212 31.9799 31.5175 31.9417C31.6128 31.9034 31.6979 31.8478 31.7709 31.7767C31.8438 31.7047 31.9009 31.6227 31.9401 31.5289C31.9803 31.4359 32 31.3384 32 31.2372V18.1898C32 16.3308 31.711 14.6832 31.1425 13.2926C30.632 12.0414 29.8923 10.988 28.9432 10.1606Z" fill="#E4D12C"/>
</svg>
