<svg width="32" height="32" viewBox="0 0 32 32" fill="none" xmlns="http://www.w3.org/2000/svg">
<path d="M1.28764 8.62329H5.35275C5.45531 8.62329 5.55507 8.64243 5.6511 8.68161C5.7462 8.71989 5.83012 8.77547 5.90377 8.84655C5.9765 8.91854 6.03337 9.00055 6.07253 9.0935C6.11169 9.18736 6.1322 9.28396 6.1322 9.38511V31.2373C6.1322 31.3384 6.11169 31.4359 6.07253 31.5289C6.03337 31.6227 5.9765 31.7047 5.90377 31.7767C5.83012 31.8478 5.7462 31.9034 5.6511 31.9417C5.55507 31.9799 5.45531 32 5.35275 32H1.28764C1.18414 32 1.08438 31.9799 0.989279 31.9417C0.893246 31.9034 0.809332 31.8478 0.736608 31.7767C0.662951 31.7047 0.607009 31.6227 0.566918 31.5289C0.527758 31.4359 0.508179 31.3384 0.508179 31.2373V9.38511C0.508179 9.28396 0.527758 9.18736 0.566918 9.0935C0.607009 9.00055 0.662951 8.91854 0.736608 8.84655C0.809332 8.77547 0.893246 8.71989 0.989279 8.68161C1.08438 8.64243 1.18414 8.62329 1.28764 8.62329Z" fill="#2C2C2C"/>
<path d="M6.59368 3.23226C6.58809 1.3587 5.21285 0 3.32015 0C1.42745 0 0 1.39515 0 3.24502C0 4.10616 0.320734 4.90716 0.904394 5.5004C1.5039 6.11003 2.32905 6.44538 3.22785 6.44538C4.22361 6.44538 5.11216 6.10274 5.73125 5.47579C6.31118 4.88985 6.61699 4.09887 6.59462 3.24502C6.59462 3.24137 6.59368 3.23773 6.59368 3.23226Z" fill="#2C2C2C"/>
<path d="M28.8594 10.1607C26.8352 8.39098 24.4633 8.12671 23.2298 8.12671C21.3856 8.12671 19.629 8.60877 18.1484 9.51912C17.5013 9.91826 16.9168 10.3903 16.3946 10.9361L16.2921 9.33596C16.2865 9.23936 16.2622 9.14733 16.2193 9.05893C16.1774 8.97145 16.1196 8.89491 16.0478 8.82838C15.9751 8.76186 15.893 8.71083 15.7998 8.67529C15.7075 8.63975 15.6124 8.62153 15.5126 8.62244H11.9118C11.8577 8.62244 11.8046 8.62699 11.7524 8.63793C11.7002 8.64886 11.6489 8.66436 11.5995 8.68531C11.551 8.70627 11.5044 8.7327 11.4606 8.76277C11.4167 8.79284 11.3766 8.82747 11.3403 8.86575C11.3039 8.90402 11.2713 8.94594 11.2442 8.99059C11.2163 9.03615 11.1939 9.08263 11.1762 9.13275C11.1585 9.18195 11.1463 9.23299 11.1389 9.28493C11.1324 9.33687 11.1305 9.38881 11.1342 9.44075C11.262 11.1093 11.317 12.8607 11.317 15.2984V31.2373C11.317 31.3385 11.3365 31.436 11.3766 31.5289C11.4158 31.6228 11.4717 31.7048 11.5454 31.7768C11.6181 31.8479 11.703 31.9034 11.7981 31.9417C11.8932 31.98 11.9929 32 12.0964 32H16.1615C16.265 32 16.3648 31.98 16.4599 31.9417C16.5559 31.9034 16.6398 31.8479 16.7126 31.7768C16.7862 31.7048 16.8422 31.6228 16.8823 31.5289C16.9214 31.436 16.941 31.3385 16.941 31.2373V18.0996C16.941 17.4818 17.0249 16.9022 17.1713 16.5085C17.1759 16.4967 17.1797 16.4839 17.1843 16.4703C17.7335 14.7179 19.4015 12.9455 21.89 12.9455C23.4293 12.9455 24.5351 13.4603 25.2698 14.5192C25.9318 15.4761 26.2824 16.9013 26.2824 18.64V31.2373C26.2824 31.3385 26.3029 31.436 26.342 31.5289C26.3821 31.6228 26.4381 31.7048 26.5108 31.7768C26.5844 31.8479 26.6684 31.9034 26.7644 31.9417C26.8595 31.98 26.9593 32 27.0627 32H31.1279C31.2313 32 31.3302 31.98 31.4262 31.9417C31.5213 31.9034 31.6062 31.8479 31.6789 31.7768C31.7516 31.7048 31.8085 31.6228 31.8476 31.5289C31.8877 31.436 31.9073 31.3385 31.9073 31.2373V18.1898C31.9073 16.3308 31.6192 14.6833 31.0523 13.2927C30.5433 12.0415 29.8058 10.9881 28.8594 10.1607Z" fill="#2C2C2C"/>
</svg>
