<svg width="50" height="50" viewBox="0 0 50 50" fill="none" xmlns="http://www.w3.org/2000/svg">
<mask id="mask0_45_126" style="mask-type:luminance" maskUnits="userSpaceOnUse" x="15" y="37" width="20" height="13">
<path d="M15.2 37.8274H34.8759V50H15.2V37.8274Z" fill="white"/>
</mask>
<g mask="url(#mask0_45_126)">
<path d="M34.1227 49.9975H15.8673C15.5337 49.9975 15.2624 49.743 15.2624 49.4291V43.56C15.2624 40.502 17.9127 38.0149 21.1697 38.0149H22.4636C22.7973 38.0149 23.0686 38.2694 23.0686 38.5833C23.0686 39.6012 23.9511 40.4291 25.0352 40.4291C26.1194 40.4291 27.0019 39.6012 27.0019 38.5833C27.0019 38.2694 27.2732 38.0149 27.6069 38.0149H28.8203C32.0782 38.0149 34.7276 40.5029 34.7276 43.56V49.4291C34.7276 49.743 34.4582 49.9975 34.1227 49.9975ZM16.4731 48.8617H33.5187V43.56C33.5187 41.1289 31.4118 39.1516 28.8221 39.1516H28.1548C27.8718 40.5249 26.5806 41.5658 25.0362 41.5658C23.4917 41.5658 22.2005 40.5249 21.9166 39.1516H21.1706C18.5809 39.1516 16.4741 41.1289 16.4741 43.56V48.8617H16.4731Z" fill="black"/>
</g>
<mask id="mask1_45_126" style="mask-type:luminance" maskUnits="userSpaceOnUse" x="19" y="38" width="2" height="12">
<path d="M19.5981 38.0446H20.987V50H19.5981V38.0446Z" fill="white"/>
</mask>
<g mask="url(#mask1_45_126)">
<path d="M20.3297 49.9975C19.996 49.9975 19.7247 49.743 19.7247 49.4291V38.6469C19.7247 38.333 19.996 38.0785 20.3297 38.0785C20.6642 38.0785 20.9346 38.333 20.9346 38.6469V49.4291C20.9346 49.743 20.6642 49.9975 20.3297 49.9975Z" fill="black"/>
</g>
<mask id="mask2_45_126" style="mask-type:luminance" maskUnits="userSpaceOnUse" x="28" y="38" width="3" height="12">
<path d="M28.8574 38.0446H30.4778V50H28.8574V38.0446Z" fill="white"/>
</mask>
<g mask="url(#mask2_45_126)">
<path d="M29.6603 49.9975C29.3267 49.9975 29.0554 49.743 29.0554 49.4291V38.6469C29.0554 38.333 29.3267 38.0785 29.6603 38.0785C29.9949 38.0785 30.2653 38.333 30.2653 38.6469V49.4291C30.2653 49.743 29.9949 49.9975 29.6603 49.9975Z" fill="black"/>
</g>
<path d="M24.9955 37.9097C24.1319 37.9097 23.2702 37.6739 22.5179 37.204C21.5377 36.5915 19.3576 34.6719 20.3007 30.076C20.355 29.8088 20.6045 29.6154 20.8948 29.6154H29.0943C29.3846 29.6154 29.6341 29.8088 29.6884 30.076C30.6315 34.6702 28.4532 36.5915 27.4712 37.204C26.7198 37.6739 25.8581 37.9097 24.9955 37.9097ZM21.4057 30.7521C21.006 33.2646 21.6589 35.303 23.1879 36.2573C24.3028 36.9537 25.6872 36.9537 26.8021 36.2573C28.332 35.3022 28.984 33.2638 28.5843 30.7521H21.4057Z" fill="black"/>
<path d="M22.4619 39.1516C22.1282 39.1516 21.8569 38.8963 21.8569 38.5832V36.4533C21.8569 36.1394 22.1282 35.8849 22.4619 35.8849C22.7964 35.8849 23.0677 36.1394 23.0677 36.4533V38.5832C23.0677 38.8963 22.7973 39.1516 22.4619 39.1516Z" fill="black"/>
<path d="M27.5969 39.1516C27.2633 39.1516 26.992 38.8962 26.992 38.5832V36.3947C26.992 36.0817 27.2633 35.8272 27.5969 35.8272C27.9315 35.8272 28.2028 36.0817 28.2028 36.3947V38.5832C28.2028 38.8962 27.9315 39.1516 27.5969 39.1516Z" fill="black"/>
<path d="M30.6297 28.9673H25.7017C25.5362 28.9673 25.3762 28.902 25.2631 28.79C25.1492 28.6772 25.0886 28.5237 25.0977 28.3685L25.4042 23.1652C25.4141 23.0023 25.4973 22.8514 25.633 22.7504C25.7695 22.6495 25.9449 22.6079 26.1158 22.6376C29.0826 23.1432 31.2355 25.5666 31.2355 28.3998C31.2355 28.7137 30.9643 28.9673 30.6297 28.9673ZM26.341 27.8307H29.9886C29.7562 26.0111 28.4189 24.4826 26.5706 23.9134L26.341 27.8307ZM24.2893 28.9673H19.3604C19.0267 28.9673 18.7554 28.7128 18.7554 28.399C18.7554 25.5641 20.9084 23.1415 23.8742 22.6367C24.0451 22.6079 24.2206 22.6495 24.3571 22.7496C24.4945 22.8505 24.5777 23.0015 24.5877 23.1635L24.8933 28.3676C24.9033 28.5228 24.8427 28.6755 24.7287 28.7883C24.6148 28.902 24.4557 28.9673 24.2893 28.9673ZM20.0015 27.8307H23.6491L23.4194 23.9134C21.5712 24.4826 20.2356 26.012 20.0015 27.8307Z" fill="black"/>
<path d="M25.7008 28.9673H24.2884C23.9674 28.9673 23.7016 28.7315 23.6844 28.4312L23.3679 23.0464C23.3516 22.7716 23.4583 22.5061 23.6672 22.2983C23.9086 22.0599 24.2567 21.9225 24.6239 21.9225H25.3644C25.7306 21.9225 26.0797 22.0599 26.3202 22.2983C26.5309 22.5061 26.6376 22.7716 26.6222 23.0464L26.3048 28.4312C26.2876 28.7315 26.0227 28.9673 25.7008 28.9673ZM24.8617 27.8307H25.1293L25.4105 23.0643C25.3979 23.0609 25.3834 23.0583 25.3671 23.0583H24.6266C24.6094 23.0583 24.5949 23.0609 24.5823 23.0643L24.8617 27.8307Z" fill="black"/>
<path d="M27.0137 47.7071H22.9763C22.6427 47.7071 22.3714 47.4527 22.3714 47.1388V43.2877C22.3714 42.9738 22.6427 42.7194 22.9763 42.7194H27.0137C27.3482 42.7194 27.6186 42.9738 27.6186 43.2877V47.1388C27.6186 47.4527 27.3482 47.7071 27.0137 47.7071ZM23.5813 46.5713H26.4088V43.856H23.5813V46.5713Z" fill="black"/>
<path d="M31.1044 30.7521H18.8856C18.552 30.7521 18.2807 30.4976 18.2807 30.1837V28.399C18.2807 28.0851 18.552 27.8307 18.8856 27.8307H31.1035C31.4372 27.8307 31.7084 28.0851 31.7084 28.399V30.1837C31.7093 30.4976 31.4381 30.7521 31.1044 30.7521ZM19.4915 29.6154H30.4977V28.9673H19.4915V29.6154Z" fill="black"/>
<path d="M24.9955 23.0583C24.6609 23.0583 24.3906 22.8038 24.3906 22.49V6.6402C24.3906 6.32719 24.6609 6.07271 24.9955 6.07271C25.3291 6.07271 25.6004 6.32719 25.6004 6.6402V22.49C25.6004 22.8038 25.3291 23.0583 24.9955 23.0583Z" fill="black"/>
<mask id="mask3_45_126" style="mask-type:luminance" maskUnits="userSpaceOnUse" x="20" y="0" width="9" height="8">
<path d="M20.9871 0H28.8574V7.20854H20.9871V0Z" fill="white"/>
</mask>
<g mask="url(#mask3_45_126)">
<path d="M24.9955 7.20854C22.8787 7.20854 21.1553 5.59175 21.1553 3.60342C21.1553 1.6151 22.8778 -0.00169373 24.9955 -0.00169373C27.1123 -0.00169373 28.8348 1.6151 28.8348 3.60342C28.8348 5.59175 27.1123 7.20854 24.9955 7.20854ZM24.9955 1.13583C23.5451 1.13583 22.3651 2.24366 22.3651 3.60427C22.3651 4.96573 23.5451 6.07356 24.9955 6.07356C26.445 6.07356 27.625 4.96573 27.625 3.60427C27.625 2.24366 26.445 1.13583 24.9955 1.13583Z" fill="black"/>
</g>
<path d="M22.0613 5.45179H6.0149C5.68124 5.45179 5.40997 5.19731 5.40997 4.8843V2.32424C5.40997 2.01038 5.68124 1.75591 6.0149 1.75591H22.0604C22.394 1.75591 22.6653 2.01038 22.6653 2.32424C22.6653 2.6381 22.394 2.89258 22.0604 2.89258H6.62073V4.31596H22.0604C22.394 4.31596 22.6653 4.57044 22.6653 4.8843C22.6653 5.19731 22.3958 5.45179 22.0613 5.45179Z" fill="black"/>
<path d="M43.9751 5.45179H27.9288C27.5951 5.45179 27.3239 5.19731 27.3239 4.8843C27.3239 4.57044 27.5951 4.31596 27.9288 4.31596H43.3684V2.89258H27.9288C27.5951 2.89258 27.3239 2.6381 27.3239 2.32424C27.3239 2.01038 27.5951 1.75591 27.9288 1.75591H43.9742C44.3079 1.75591 44.5792 2.01038 44.5792 2.32424V4.8843C44.5801 5.199 44.3088 5.45179 43.9751 5.45179Z" fill="black"/>
<mask id="mask4_45_126" style="mask-type:luminance" maskUnits="userSpaceOnUse" x="0" y="22" width="18" height="9">
<path d="M0 22.8437H17.7463V30.8785H0V22.8437Z" fill="white"/>
</mask>
<g mask="url(#mask4_45_126)">
<path d="M8.85418 30.7818C3.97499 30.7818 0.00634766 27.5083 0.00634766 23.485C0.00634766 23.172 0.277615 22.9175 0.611274 22.9175H17.0971C17.4317 22.9175 17.702 23.172 17.702 23.485C17.702 27.5083 13.7343 30.7818 8.85418 30.7818ZM1.24785 24.0533C1.60502 27.1843 4.88012 29.6451 8.85418 29.6451C12.8292 29.6451 16.1033 27.1843 16.4605 24.0533H1.24785Z" fill="black"/>
</g>
<path d="M14.5788 24.0533C14.3166 24.0533 14.0742 23.8922 13.9983 23.6436L8.85415 6.93115L3.71093 23.6436C3.61779 23.9448 3.28232 24.1178 2.96223 24.0321C2.64123 23.9448 2.45586 23.6301 2.54809 23.3289L8.27364 4.72736C8.34869 4.48391 8.5856 4.3168 8.85415 4.3168C9.12361 4.3168 9.36142 4.48391 9.43557 4.72736L15.1611 23.3272C15.2543 23.6284 15.0689 23.9431 14.747 24.0304C14.6918 24.0465 14.6349 24.0533 14.5788 24.0533Z" fill="black"/>
<mask id="mask5_45_126" style="mask-type:luminance" maskUnits="userSpaceOnUse" x="32" y="22" width="18" height="9">
<path d="M32.0981 22.8437H50V30.8785H32.0981V22.8437Z" fill="white"/>
</mask>
<g mask="url(#mask5_45_126)">
<path d="M41.1359 30.7818C36.2567 30.7818 32.288 27.5083 32.288 23.485C32.288 23.172 32.5593 22.9175 32.893 22.9175H49.3797C49.7142 22.9175 49.9846 23.172 49.9846 23.485C49.9846 27.5083 46.016 30.7818 41.1359 30.7818ZM33.5295 24.0533C33.8867 27.1843 37.1618 29.6451 41.1359 29.6451C45.1099 29.6451 48.385 27.1843 48.7422 24.0533H33.5295Z" fill="black"/>
</g>
<path d="M46.8605 24.0533C46.5974 24.0533 46.356 23.8922 46.2791 23.6436L41.1359 6.93115L35.9927 23.6436C35.8995 23.9448 35.5641 24.1178 35.2431 24.0321C34.923 23.9448 34.7376 23.6301 34.8298 23.3289L40.5554 4.72736C40.6304 4.48391 40.8673 4.3168 41.1359 4.3168C41.4045 4.3168 41.6432 4.48391 41.7164 4.72736L47.442 23.3289C47.536 23.6301 47.3506 23.9448 47.0287 24.0321C46.9727 24.0465 46.9157 24.0533 46.8605 24.0533Z" fill="black"/>
</svg>
