<svg width="50" height="50" viewBox="0 0 50 50" fill="none" xmlns="http://www.w3.org/2000/svg">
<mask id="mask0_45_31" style="mask-type:luminance" maskUnits="userSpaceOnUse" x="0" y="0" width="50" height="50">
<path d="M0 0H50V50H0V0Z" fill="white"/>
</mask>
<g mask="url(#mask0_45_31)">
<path d="M49.9667 23.8515L44.1675 10.2184V7.95222C44.1675 7.73294 43.9899 7.55546 43.7705 7.55546H36.0118C36.0545 7.15017 35.993 6.73891 35.8265 6.35495C35.5712 5.76707 35.1025 5.31314 34.5056 5.07765C33.8337 4.81229 33.113 4.87202 32.5171 5.17918C32.5068 4.88567 32.4411 4.59301 32.3207 4.31485C32.0654 3.72697 31.5967 3.27389 30.9998 3.03754C30.298 2.76109 29.5424 2.83789 28.9319 3.1826C28.908 2.9343 28.8465 2.68942 28.744 2.45393C28.4896 1.86604 28.02 1.41212 27.4232 1.17662C26.5309 0.824234 25.5507 1.04437 24.8933 1.66127C24.8711 1.59642 24.8472 1.53243 24.8198 1.47014C24.5654 0.881401 24.0958 0.42833 23.499 0.191982C22.2678 -0.294366 20.8692 0.310583 20.3817 1.5401L18.9677 5.1058L18.7158 5.064C17.0022 4.77731 15.3629 5.88652 14.9735 7.55546H6.22951C6.01093 7.55546 5.83333 7.73294 5.83333 7.95222V10.2184L0.0333005 23.8515C0.0128087 23.8993 0.00170898 23.9514 0.00170898 24.0068C0.00170898 26.9462 2.79542 29.3387 6.22951 29.3387C9.66359 29.3387 12.4582 26.9462 12.4582 24.0068C12.4582 23.9514 12.4471 23.8993 12.4266 23.8515L6.82975 10.6962H14.4177L14.0796 12.6203C13.8029 14.2005 14.0847 15.8404 14.8736 17.2381L18.4751 23.6186C18.8175 24.2253 19.0386 24.9036 19.1223 25.5956C18.5528 25.7722 18.1378 26.3029 18.1378 26.93V31.587C18.1378 32.227 18.5716 32.7671 19.1607 32.9309V49.6032C19.1607 49.8225 19.3383 50 19.5577 50C19.7772 50 19.9548 49.8225 19.9548 49.6032V32.9829H31.6419V49.6032C31.6419 49.8225 31.8195 50 32.0381 50C32.2575 50 32.4351 49.8225 32.4351 49.6032V32.9309C33.0243 32.7671 33.4588 32.227 33.4588 31.587V26.93C33.4588 26.2944 33.0319 25.7577 32.4496 25.5896C32.5205 24.7193 32.8603 23.8899 33.4255 23.2253C34.0215 22.5247 34.4997 21.7483 34.8455 20.9198C35.4756 19.4096 35.7437 14.0358 35.8513 10.6962H43.1703L37.5734 23.8515C37.5538 23.8993 37.5418 23.9514 37.5418 24.0068C37.5418 26.9462 40.3364 29.3387 43.7705 29.3387C47.2046 29.3387 49.9991 26.9462 49.9991 24.0068C49.9991 23.9514 49.9872 23.8993 49.9667 23.8515ZM49.0019 23.6101H38.5391L43.7705 11.3131L49.0019 23.6101ZM34.2136 5.81485C34.6132 5.9727 34.9274 6.27645 35.0982 6.67065C35.269 7.064 35.2758 7.5 35.1178 7.89847L33.224 12.6758C32.8979 13.4991 31.9612 13.9044 31.1356 13.5785C30.736 13.4198 30.4218 13.1169 30.2519 12.7227C30.0811 12.3294 30.0734 11.8933 30.2322 11.494L32.126 6.71673C32.4522 5.8942 33.3888 5.48976 34.2136 5.81485ZM30.7078 3.7756C31.1074 3.93345 31.4216 4.2372 31.5924 4.63055C31.7632 5.02389 31.77 5.46075 31.612 5.85922L31.3883 6.42406C31.3883 6.42492 31.3875 6.42492 31.3875 6.42492L29.27 11.7688C28.943 12.5922 28.0063 12.9966 27.1815 12.6707C26.7819 12.5128 26.4677 12.209 26.297 11.8157C26.1262 11.4224 26.1194 10.9864 26.2773 10.587L28.6194 4.67833C28.9464 3.8541 29.883 3.44966 30.7078 3.7756ZM27.132 1.91468C27.5316 2.07253 27.8449 2.37628 28.0157 2.76963C28.1865 3.16297 28.1942 3.59898 28.0354 3.9983L25.5396 10.2952L25.257 11.0068C24.9308 11.8302 23.9942 12.2355 23.1685 11.9096C22.7527 11.7449 22.436 11.4266 22.2737 11.0299C23.5348 11.0759 24.6815 10.2201 24.9676 8.9599C25.1315 8.23891 24.9949 7.50342 24.5825 6.88908C24.3605 6.55888 24.0753 6.28925 23.7457 6.09045L25.0435 2.81656C25.3697 1.99318 26.3064 1.58874 27.132 1.91468ZM21.1194 1.83277C21.4455 1.00853 22.383 0.604098 23.2078 0.930036C23.6074 1.08789 23.9216 1.39164 24.0924 1.78499C24.2623 2.17833 24.27 2.61519 24.112 3.01365L23.0114 5.78925C22.9448 5.77219 22.8765 5.75768 22.8082 5.74659L19.7686 5.23891L21.1194 1.83277ZM6.22951 11.3131L11.4609 23.6101H0.998123L6.22951 11.3131ZM6.22951 28.5452C3.3931 28.5452 1.05704 26.7201 0.815404 24.4027H11.6436C11.402 26.721 9.06592 28.5452 6.22951 28.5452ZM6.62654 9.90273V8.34898H14.8292L14.5569 9.90273H6.62654ZM32.6648 26.93V31.587C32.6648 31.9189 32.395 32.1894 32.062 32.1894H19.5338C19.2017 32.1894 18.931 31.9189 18.931 31.587V26.93C18.931 26.5973 19.2017 26.3268 19.5338 26.3268H32.062C32.395 26.3268 32.6648 26.5973 32.6648 26.93ZM34.1129 20.6143C33.7987 21.3678 33.3641 22.0734 32.821 22.7116C32.1457 23.506 31.741 24.4957 31.6581 25.5333H19.9129C19.8198 24.727 19.5654 23.9352 19.1667 23.2287L15.5644 16.8481C14.866 15.6101 14.6158 14.157 14.8617 12.7577L15.7189 7.87031C15.9546 6.52987 17.2404 5.62202 18.5852 5.84557L22.6776 6.52901C23.1916 6.61434 23.6339 6.89932 23.9233 7.33106C24.2128 7.76195 24.3093 8.27816 24.194 8.78413C23.9754 9.7483 23.0379 10.3763 22.0603 10.2133L20.4927 9.95137C20.1187 9.88908 19.743 9.97782 19.4373 10.2014C19.1308 10.4249 18.9327 10.7543 18.8789 11.1297L18.5067 13.7082C18.4751 13.9249 18.6253 14.1263 18.8422 14.1579C19.0599 14.1886 19.2606 14.0384 19.2922 13.8217L19.3426 13.4684C22.5265 14.0495 25.1306 15.4633 27.0833 17.6792C27.1619 17.7679 27.2712 17.814 27.3813 17.814C27.4744 17.814 27.5683 17.7807 27.6434 17.715C27.8082 17.57 27.8236 17.3191 27.6793 17.1544C25.5994 14.7944 22.833 13.2927 19.4561 12.6826L19.6644 11.2423C19.6875 11.0811 19.7729 10.9386 19.9052 10.8422C20.0376 10.7449 20.1998 10.7065 20.362 10.7338L21.4105 10.9087C21.5762 11.6869 22.1269 12.3507 22.8774 12.6468C23.1668 12.7611 23.4648 12.8148 23.7585 12.8148C24.4296 12.8148 25.076 12.5316 25.5311 12.0375C25.543 12.0683 25.5558 12.0998 25.5687 12.1305C25.8239 12.7193 26.2927 13.1724 26.8895 13.4087C27.179 13.5222 27.4769 13.5768 27.7707 13.5768C28.4034 13.5768 29.013 13.3242 29.4621 12.8814C29.4809 12.9343 29.5005 12.9864 29.5236 13.0384C29.7789 13.6263 30.2476 14.0802 30.8444 14.3157C31.1339 14.43 31.4319 14.4838 31.7256 14.4838C32.6827 14.4838 33.5895 13.9087 33.9618 12.9676L35.076 10.1579C34.965 14.0102 34.6781 19.2594 34.1129 20.6143ZM35.911 8.34898H43.3735V9.90273H35.8752C35.894 9.23123 35.9051 8.69113 35.911 8.34898ZM43.7705 28.5452C40.9341 28.5452 38.598 26.7201 38.3564 24.4027H49.1846C48.943 26.721 46.6069 28.5452 43.7705 28.5452ZM44.9232 42.7082C44.4604 43.2534 44.2059 43.9488 44.2059 44.6681V49.6032C44.2059 49.8225 44.3835 50 44.6021 50C44.8216 50 44.9991 49.8225 44.9991 49.6032V44.6681C44.9991 44.1365 45.187 43.6229 45.5277 43.2218C45.882 42.8055 46.1655 42.3439 46.3704 41.8515C46.8853 40.616 46.9689 35.314 46.9792 34.4497C47.1004 34.087 47.0859 33.698 46.9331 33.3447C46.7683 32.965 46.466 32.6724 46.0818 32.5196C45.7275 32.3797 45.3526 32.3806 45.0171 32.494C44.9197 31.9923 44.5782 31.5486 44.0685 31.3473C43.6937 31.1988 43.2949 31.209 42.9457 31.343C42.8279 30.8754 42.4966 30.4676 42.0142 30.2765C41.63 30.1246 41.209 30.1314 40.8291 30.2961C40.736 30.3362 40.6481 30.3848 40.5661 30.4411C40.3945 30.1075 40.1127 29.8498 39.7609 29.7108C38.9669 29.3968 38.0652 29.7867 37.751 30.5811L36.9894 32.5043L36.9792 32.5026C35.8701 32.3174 34.8087 33.0674 34.6149 34.1749L34.1223 36.9855C33.9566 37.9317 34.1257 38.9147 34.597 39.7526L36.6658 43.4215C36.9092 43.8532 37.0381 44.3439 37.0381 44.8396V49.6032C37.0381 49.8225 37.2157 50 37.4351 50C37.6537 50 37.8313 49.8225 37.8313 49.6032V44.8396C37.8313 44.2073 37.6674 43.5828 37.3574 43.0324L35.2886 39.3626C34.9061 38.6843 34.7703 37.8891 34.9044 37.122L35.397 34.3123C35.5157 33.6323 36.168 33.1715 36.8485 33.285L39.1983 33.6775C39.4467 33.7193 39.661 33.8575 39.8011 34.0666C39.9419 34.2747 39.988 34.5256 39.9326 34.7713C39.8267 35.2389 39.3724 35.5435 38.8994 35.4642L37.9995 35.3131C37.7399 35.2696 37.4787 35.3319 37.2661 35.4872C37.0535 35.6425 36.9151 35.872 36.8776 36.1331L36.6633 37.616C36.6342 37.8191 36.7649 38.0102 36.9638 38.058C38.6322 38.4573 39.9317 39.4027 40.9366 40.948C41.0553 41.1314 41.3012 41.1834 41.4848 41.064C41.6692 40.9445 41.7213 40.6988 41.6018 40.5154C40.5669 38.9241 39.1889 37.8712 37.4991 37.3797L37.6631 36.2457C37.6725 36.1817 37.7118 36.1442 37.734 36.1271C37.757 36.1109 37.804 36.0853 37.8689 36.0956L38.3615 36.1783C38.4947 36.6306 38.832 37.0094 39.2785 37.186C39.4647 37.2602 39.6576 37.2952 39.8463 37.2952C40.1981 37.2952 40.5396 37.1741 40.812 36.9582C40.9862 37.2602 41.2543 37.494 41.583 37.6246C41.7674 37.6971 41.9604 37.7338 42.1534 37.7338C42.3617 37.7338 42.5709 37.6911 42.7681 37.6058C42.8731 37.5606 42.9696 37.5034 43.0601 37.4386C43.2326 37.7611 43.5101 38.0102 43.8542 38.1459C44.0403 38.2201 44.2324 38.2551 44.422 38.2551C45.0393 38.2551 45.6233 37.884 45.8641 37.2765L46.1305 36.6032C46.0587 38.5495 45.9102 40.8925 45.6378 41.5469C45.4636 41.9633 45.2237 42.3541 44.9232 42.7082ZM38.4887 30.8729C38.6416 30.4855 39.0813 30.2952 39.4689 30.4488C39.6559 30.5222 39.8036 30.6655 39.8839 30.8507C39.9641 31.035 39.9676 31.2406 39.8933 31.4275L39.3135 32.8925L37.7895 32.6382L38.4887 30.8729ZM39.5705 36.4488C39.4595 36.4044 39.3648 36.3362 39.2879 36.2517C39.9684 36.1544 40.5473 35.6493 40.707 34.9463C40.8111 34.4855 40.724 34.0162 40.4602 33.6237C40.3467 33.4548 40.2058 33.3123 40.0461 33.1962L40.631 31.7201V31.7193L40.742 31.4386C40.8163 31.2509 40.9589 31.1041 41.1441 31.0239C41.3294 30.9437 41.5352 30.9403 41.7222 31.0145C42.109 31.1672 42.2994 31.6067 42.1465 31.994L42.0586 32.2159C42.0586 32.2167 42.0586 32.2167 42.0586 32.2167L40.5507 36.0247C40.3979 36.4113 39.9582 36.6015 39.5705 36.4488ZM42.453 36.8771C42.2678 36.9573 42.0628 36.9608 41.875 36.8865C41.6872 36.8123 41.5403 36.6698 41.46 36.4846C41.3798 36.2995 41.3764 36.0947 41.4507 35.907L42.7963 32.5085C42.95 32.122 43.3888 31.9317 43.7765 32.0845C44.1633 32.2381 44.3537 32.6775 44.2008 33.064L44.0719 33.3891C44.0719 33.3891 44.0719 33.3891 44.0719 33.3899L42.8552 36.4625C42.7809 36.6502 42.6383 36.7969 42.453 36.8771ZM45.1264 36.9838C44.9735 37.3712 44.533 37.5614 44.1462 37.4079C43.7594 37.2551 43.569 36.8157 43.7218 36.4283L44.8096 33.6817C44.9633 33.2944 45.4022 33.1041 45.7898 33.2577C45.9768 33.3319 46.1245 33.4744 46.2048 33.6596C46.285 33.8447 46.2884 34.0495 46.2141 34.2372L45.1264 36.9838ZM12.6426 43.0316C12.3327 43.5819 12.1687 44.2073 12.1687 44.8387V49.6032C12.1687 49.8225 12.3463 50 12.5657 50C12.7843 50 12.9619 49.8225 12.9619 49.6032V44.8387C12.9619 44.343 13.0908 43.8532 13.3342 43.4215L15.403 39.7517C15.8752 38.9147 16.0434 37.9317 15.8777 36.9855L15.3851 34.1749C15.1913 33.0674 14.1308 32.3174 13.0208 32.5026L13.0106 32.5043L12.249 30.5802C11.9348 29.7867 11.0331 29.3968 10.2391 29.7108C9.8873 29.8498 9.60553 30.1075 9.43392 30.4411C9.35195 30.3848 9.264 30.3362 9.17094 30.2952C8.79099 30.1314 8.3709 30.1246 7.98583 30.2765C7.50342 30.4676 7.17213 30.8746 7.05516 31.343C6.70509 31.209 6.30721 31.1988 5.93238 31.3473C5.42265 31.5486 5.08026 31.9923 4.98292 32.494C4.64737 32.3806 4.27254 32.3797 3.91906 32.5196C3.53398 32.6724 3.23173 32.965 3.06694 33.3439C2.91411 33.698 2.89959 34.087 3.02169 34.4488C3.03193 35.314 3.11476 40.616 3.62961 41.8515C3.83538 42.3439 4.11885 42.8055 4.47234 43.2218C4.81301 43.6229 5.00086 44.1365 5.00086 44.6681V49.6032C5.00086 49.8225 5.17845 50 5.39788 50C5.61732 50 5.79491 49.8225 5.79491 49.6032V44.6681C5.79491 43.9488 5.53962 43.2526 5.0777 42.7082C4.77715 42.3541 4.53637 41.9633 4.36219 41.5461C4.08982 40.8916 3.94126 38.5495 3.86954 36.6032L4.13593 37.2756C4.37671 37.8831 4.96073 38.2543 5.57804 38.2543C5.76759 38.2543 5.9597 38.2193 6.14583 38.1459C6.48993 38.0094 6.76742 37.7602 6.93989 37.4386C7.0304 37.5034 7.12688 37.5597 7.2319 37.605C7.42913 37.6903 7.63747 37.7329 7.84665 37.7329C8.03962 37.7329 8.23258 37.6971 8.41701 37.6237C8.74659 37.494 9.01383 37.2602 9.18801 36.9573C9.46124 37.1741 9.80191 37.2944 10.1537 37.2944C10.3424 37.2944 10.5353 37.2594 10.7215 37.186C11.1689 37.0094 11.5053 36.6306 11.6385 36.1783L12.132 36.0956C12.196 36.0845 12.2439 36.1109 12.2661 36.1271C12.2891 36.1442 12.3284 36.1809 12.3369 36.2457L12.5009 37.3797C10.812 37.8703 9.43306 38.9241 8.39823 40.5154C8.27869 40.6988 8.33163 40.9445 8.5152 41.064C8.69877 41.1834 8.94467 41.1314 9.06421 40.948C10.0683 39.4027 11.3678 38.4573 13.0362 38.058C13.2351 38.0102 13.3658 37.8183 13.3368 37.616L13.1224 36.1323C13.0849 35.872 12.9474 35.6425 12.734 35.4872C12.5213 35.3311 12.2609 35.2696 12.0005 35.3131L11.1006 35.4633C10.6267 35.5435 10.1733 35.2381 10.0675 34.7705C10.012 34.5256 10.0581 34.2747 10.1989 34.0657C10.339 33.8567 10.5533 33.7193 10.8017 33.6775L13.1515 33.285C13.8328 33.1715 14.4843 33.6314 14.603 34.3114L15.0956 37.122C15.2305 37.8882 15.0939 38.6843 14.7114 39.3626L12.6426 43.0316ZM10.1161 30.8507C10.1964 30.6655 10.3441 30.5222 10.5311 30.4488C10.9187 30.2952 11.3584 30.4855 11.5113 30.8729L12.2106 32.6382L10.6865 32.8925L10.1067 31.4275C10.0333 31.2406 10.0359 31.035 10.1161 30.8507ZM5.85383 37.4087C5.46704 37.5614 5.02732 37.3712 4.87364 36.9838L3.78672 34.2372C3.71243 34.0495 3.71585 33.8447 3.79525 33.6596C3.87551 33.4744 4.02323 33.3319 4.21107 33.2577C4.59785 33.105 5.03757 33.2944 5.1904 33.6817L6.27818 36.4292C6.43101 36.8157 6.24061 37.2551 5.85383 37.4087ZM8.53996 36.4846C8.4597 36.6698 8.31284 36.8123 8.125 36.8865C7.93716 36.9608 7.73224 36.9573 7.54696 36.8771C7.36168 36.7969 7.21909 36.6502 7.14481 36.4625L5.92896 33.3899C5.92811 33.3891 5.92811 33.3891 5.92811 33.3891L5.79918 33.064C5.64635 32.6775 5.83675 32.2381 6.22439 32.0845C6.61117 31.9317 7.05004 32.122 7.20372 32.5085L8.54935 35.907C8.62364 36.0947 8.62022 36.2995 8.53996 36.4846ZM10.7121 36.2517C10.6361 36.3362 10.5405 36.4044 10.4295 36.4488C10.0427 36.6015 9.60297 36.4113 9.44928 36.0247L9.28706 35.6152L7.94228 32.2167C7.94143 32.2167 7.94143 32.2167 7.94143 32.2159L7.85349 31.994C7.70065 31.6067 7.89105 31.1672 8.27784 31.0145C8.46568 30.9403 8.6706 30.9437 8.85588 31.0239C9.04116 31.1041 9.18375 31.2509 9.25803 31.4386L9.36903 31.7193V31.7201L9.9539 33.1962C9.79423 33.3123 9.65335 33.4548 9.53979 33.6237C9.27681 34.0162 9.18887 34.4855 9.29389 34.9463C9.4527 35.6493 10.0316 36.1544 10.7121 36.2517Z" fill="black"/>
</g>
</svg>
