<svg width="50" height="50" viewBox="0 0 50 50" fill="none" xmlns="http://www.w3.org/2000/svg">
<mask id="mask0_45_127" style="mask-type:luminance" maskUnits="userSpaceOnUse" x="0" y="0" width="50" height="50">
<path d="M0 0H50V50H0V0Z" fill="white"/>
</mask>
<g mask="url(#mask0_45_127)">
<path d="M14.9508 45.2768L24.4508 49.9143C24.6093 49.9915 24.7878 50.0305 24.9663 50.0305C25.1459 50.0305 25.3244 49.9915 25.483 49.9143L34.9829 45.2768C44.2025 40.776 49.9296 32.5734 49.9296 23.8703V8.88466C49.9296 8.55972 49.6881 8.26532 49.3153 8.1406L25.3507 0.0721138C25.105 -0.010183 24.8288 -0.010183 24.5831 0.0721138L0.61844 8.1406C0.245666 8.26532 0.00415039 8.55972 0.00415039 8.88466V23.8703C0.00415039 32.5734 5.73122 40.776 14.9508 45.2768ZM2.00033 9.42256L24.9663 1.6909L47.9324 9.42256V23.8703C47.9324 32.0126 42.5749 39.6857 33.9497 43.8956L24.9663 48.2811L15.9841 43.8956C7.35882 39.6857 2.00138 32.0126 2.00138 23.8703V9.42256H2.00033Z" fill="black"/>
</g>
<path d="M17.533 41.8246L24.4498 45.2013C24.6094 45.2785 24.7879 45.3176 24.9664 45.3176C25.1449 45.3176 25.3234 45.2785 25.483 45.2013L32.4009 41.8246C39.7261 38.2485 44.3968 31.9838 44.8935 25.0674C44.8946 25.0522 44.8956 25.0369 44.8956 25.0225L44.9376 11.5759C44.9387 11.2492 44.6961 10.9548 44.3223 10.8292L25.3507 4.44233C25.105 4.36003 24.8288 4.36003 24.5831 4.44233L5.61156 10.8292C5.23773 10.9548 4.99517 11.2492 4.99622 11.5759L5.03822 25.0216C5.03822 25.0369 5.03822 25.0522 5.03927 25.0666C5.537 31.9838 10.2077 38.2485 17.533 41.8246ZM6.9945 12.1112L23.9688 6.39709V11.3052C23.9688 11.7506 24.4162 12.1121 24.9664 12.1121C25.5177 12.1121 25.965 11.7506 25.965 11.3052V6.39709L42.9383 12.1112L42.8994 24.9953C42.4322 31.3721 38.1227 37.1456 31.3687 40.4425L25.965 43.0803V37.5257C25.965 37.0802 25.5177 36.7188 24.9664 36.7188C24.4162 36.7188 23.9688 37.0802 23.9688 37.5257V43.0803L18.5662 40.4434C11.8112 37.1464 7.50273 31.3721 7.03545 24.9953L6.9945 12.1112Z" fill="black"/>
<path d="M15.98 26.2306C15.98 28.0098 17.7724 29.4572 19.9744 29.4572H26.9637C31.9189 29.4572 35.9502 26.2001 35.9502 22.1964V19.7767C35.9502 18.8867 35.0555 18.163 33.954 18.163H17.9772V14.9356C17.9772 14.4902 17.5299 14.1288 16.9786 14.1288H12.9852C12.4339 14.1288 11.9866 14.4902 11.9866 14.9356C11.9866 15.381 12.4339 15.7425 12.9852 15.7425H15.98V26.2306ZM17.9772 19.7767H33.954V22.1964C33.954 25.311 30.8185 27.8443 26.9637 27.8443H19.9744C18.8729 27.8443 17.9772 27.1206 17.9772 26.2306V19.7767Z" fill="black"/>
<path d="M19.9744 30.6679C18.3226 30.6679 16.9785 31.7539 16.9785 33.0884C16.9785 34.4221 18.3226 35.5081 19.9744 35.5081C21.6261 35.5081 22.9702 34.4221 22.9702 33.0884C22.9702 31.7539 21.6261 30.6679 19.9744 30.6679ZM19.9744 33.8944C19.4231 33.8944 18.9757 33.533 18.9757 33.0884C18.9757 32.643 19.4231 32.2816 19.9744 32.2816C20.5246 32.2816 20.973 32.643 20.973 33.0884C20.973 33.533 20.5246 33.8944 19.9744 33.8944Z" fill="black"/>
<path d="M29.9595 30.6679C28.3077 30.6679 26.9636 31.7539 26.9636 33.0884C26.9636 34.4221 28.3077 35.5081 29.9595 35.5081C31.6112 35.5081 32.9553 34.4221 32.9553 33.0884C32.9553 31.7539 31.6112 30.6679 29.9595 30.6679ZM29.9595 33.8944C29.4092 33.8944 28.9609 33.533 28.9609 33.0884C28.9609 32.643 29.4092 32.2816 29.9595 32.2816C30.5097 32.2816 30.9581 32.643 30.9581 33.0884C30.9581 33.533 30.5097 33.8944 29.9595 33.8944Z" fill="black"/>
</svg>
