<svg width="50" height="50" viewBox="0 0 50 50" fill="none" xmlns="http://www.w3.org/2000/svg">
<mask id="mask0_45_96" style="mask-type:luminance" maskUnits="userSpaceOnUse" x="0" y="0" width="50" height="50">
<path d="M0 0H50V50H0V0Z" fill="white"/>
</mask>
<g mask="url(#mask0_45_96)">
<path d="M46.3544 3.42542H16.2138C16.1822 3.00307 16.102 2.59956 15.9727 2.21488C15.8433 1.83119 15.6731 1.48717 15.4608 1.18577C15.3343 1.01524 15.1979 0.863554 15.0509 0.730702C14.904 0.59785 14.7493 0.484826 14.5876 0.393614C14.4252 0.302403 14.2585 0.233002 14.087 0.186405C13.9154 0.139807 13.7425 0.117004 13.5681 0.117004C13.393 0.117004 13.2201 0.139807 13.0485 0.186405C12.8777 0.233002 12.7103 0.302403 12.5486 0.393614C12.3862 0.484826 12.2322 0.59785 12.0853 0.730702C11.9384 0.863554 11.802 1.01524 11.6754 1.18577L6.60333 8.33103C6.47959 8.50652 6.3685 8.69687 6.27147 8.90309C6.17374 9.10931 6.09148 9.32643 6.02469 9.55546C5.95719 9.78349 5.90657 10.0194 5.87282 10.2623C5.83837 10.5052 5.8215 10.7501 5.8215 10.998C5.8215 11.2459 5.83837 11.4907 5.87282 11.7336C5.90657 11.9765 5.95719 12.2125 6.02469 12.4415C6.09148 12.6695 6.17374 12.8877 6.27147 13.0939C6.3685 13.2991 6.47959 13.4905 6.60333 13.6649C6.71372 13.8206 6.83183 13.9604 6.95909 14.0863C7.08635 14.2122 7.22064 14.3213 7.36126 14.4135C7.50188 14.5067 7.64741 14.581 7.79717 14.6375C7.94763 14.695 8.1002 14.7327 8.25488 14.7526C8.40956 14.7714 8.56424 14.7714 8.71892 14.7535C8.8736 14.7347 9.02617 14.697 9.17663 14.6405C9.32638 14.584 9.47192 14.5106 9.61324 14.4184C9.75386 14.3262 9.88815 14.2172 10.0161 14.0923L11.326 15.9373L2.24419 24.2386C2.02905 24.4349 1.82726 24.654 1.63743 24.8969C1.4476 25.1398 1.27253 25.4015 1.11222 25.6831C0.952624 25.9657 0.809194 26.2641 0.683342 26.5784C0.557489 26.8927 0.449917 27.2188 0.361328 27.5579C0.272739 27.896 0.203836 28.243 0.15462 28.5969C0.104701 28.9519 0.0758748 29.3088 0.0674377 29.6697C0.0590007 30.0306 0.0709531 30.3904 0.103295 30.7483C0.135637 31.1063 0.188369 31.4582 0.260787 31.8052C0.333204 32.1512 0.424606 32.4873 0.535693 32.8125C0.646078 33.1377 0.774743 33.449 0.920985 33.7455C1.06723 34.0419 1.22964 34.3205 1.40752 34.5802C1.5854 34.84 1.77664 35.0779 1.98194 35.2941C2.18654 35.5102 2.40239 35.7025 2.62949 35.8701C2.85658 36.0376 3.09141 36.1784 3.33468 36.2934C3.57725 36.4075 3.82544 36.4937 4.07784 36.5522C4.33095 36.6107 4.58547 36.6404 4.8414 36.6404C5.01084 36.6404 5.17888 36.6285 5.34691 36.6038C5.70197 36.5522 6.0486 36.4451 6.38678 36.2845C6.72496 36.1229 7.04628 35.9117 7.35071 35.649C7.65445 35.3863 7.93498 35.0789 8.1902 34.727C8.44542 34.376 8.67041 33.9893 8.86375 33.567L12.2062 26.3018V34.3453C12.2062 34.3552 12.2062 34.3621 12.2062 34.371C12.2062 34.381 12.2062 34.3879 12.2062 34.3968V36.6662C12.2062 36.8348 12.2126 37.0023 12.2238 37.1699C12.2358 37.3364 12.2533 37.503 12.2765 37.6676C12.2997 37.8321 12.3286 37.9947 12.363 38.1563C12.3975 38.317 12.4375 38.4746 12.4832 38.6302C12.5289 38.7849 12.5796 38.9366 12.6358 39.0853C12.6921 39.233 12.7525 39.3778 12.8193 39.5176C12.8854 39.6574 12.9557 39.7922 13.0317 39.9221C13.1069 40.052 13.187 40.1759 13.2714 40.2949C13.3551 40.4138 13.4437 40.5269 13.5358 40.6339C13.6279 40.741 13.7228 40.8411 13.8219 40.9343C13.9211 41.0275 14.023 41.1138 14.1285 41.1941C14.2332 41.2734 14.3408 41.3448 14.4512 41.4092C14.5609 41.4747 14.6734 41.5312 14.7873 41.5798C14.9012 41.6293 15.0165 41.67 15.1332 41.7037C15.2506 41.7364 15.368 41.7612 15.4868 41.7781C15.6049 41.7949 15.7245 41.8038 15.8433 41.8038H27.7543L25.1529 48.153C25.1353 48.1976 25.1191 48.2432 25.1051 48.2908C25.091 48.3384 25.0797 48.387 25.0699 48.4365C25.0608 48.4861 25.0537 48.5357 25.0488 48.5862C25.0439 48.6378 25.0418 48.6883 25.0418 48.7399C25.0418 48.7915 25.0439 48.842 25.0488 48.8926C25.0537 48.9431 25.0608 48.9937 25.0699 49.0433C25.0797 49.0928 25.091 49.1414 25.1051 49.189C25.1191 49.2356 25.1353 49.2822 25.1529 49.3258C25.1711 49.3705 25.1915 49.4131 25.2133 49.4537C25.2358 49.4944 25.2597 49.533 25.2857 49.5687C25.3111 49.6054 25.3385 49.6391 25.3673 49.6699C25.3961 49.7016 25.4264 49.7303 25.458 49.7551C25.4889 49.7809 25.522 49.8037 25.5557 49.8235C25.5888 49.8434 25.6232 49.8592 25.6584 49.8731C25.6935 49.886 25.7294 49.8959 25.7652 49.9029C25.8011 49.9098 25.8377 49.9128 25.8742 49.9128H36.3263C36.3629 49.9128 36.3987 49.9098 36.4353 49.9029C36.4711 49.8959 36.5063 49.886 36.5415 49.8731C36.5766 49.8592 36.6111 49.8434 36.6448 49.8235C36.6786 49.8037 36.7109 49.7809 36.7425 49.7551C36.7742 49.7303 36.8044 49.7016 36.8332 49.6699C36.8621 49.6391 36.8895 49.6054 36.9148 49.5687C36.9408 49.533 36.9647 49.4944 36.9865 49.4537C37.009 49.4131 37.0287 49.3705 37.047 49.3258C37.0653 49.2822 37.0814 49.2356 37.0955 49.189C37.1088 49.1414 37.1208 49.0928 37.1299 49.0433C37.1398 48.9937 37.1468 48.9431 37.1517 48.8926C37.156 48.842 37.1588 48.7915 37.1588 48.7399C37.1588 48.6883 37.156 48.6378 37.1517 48.5862C37.1468 48.5357 37.1398 48.4861 37.1299 48.4365C37.1208 48.387 37.1088 48.3384 37.0955 48.2908C37.0814 48.2432 37.0653 48.1976 37.047 48.153L34.4463 41.8038H46.3544C46.474 41.8038 46.5928 41.7959 46.7116 41.779C46.8304 41.7622 46.9485 41.7374 47.0653 41.7047C47.182 41.672 47.298 41.6303 47.4119 41.5817C47.5265 41.5322 47.6383 41.4757 47.7487 41.4112C47.859 41.3468 47.9666 41.2754 48.0721 41.1961C48.1768 41.1168 48.2795 41.0295 48.3786 40.9363C48.4778 40.8431 48.5734 40.743 48.6655 40.6359C48.7583 40.5298 48.8462 40.4168 48.9305 40.2978C49.0149 40.1789 49.0951 40.0539 49.171 39.9241C49.2469 39.7942 49.3179 39.6594 49.384 39.5196C49.4501 39.3798 49.512 39.236 49.5682 39.0873C49.6245 38.9386 49.6751 38.7869 49.7208 38.6322C49.7665 38.4766 49.8073 38.3179 49.8417 38.1573C49.8762 37.9967 49.9057 37.8331 49.9289 37.6686C49.9521 37.504 49.9697 37.3374 49.9817 37.1699C49.9936 37.0023 49.9992 36.8348 49.9999 36.6662V8.56303C49.9992 8.39449 49.9936 8.22693 49.9817 8.05938C49.9697 7.89282 49.9521 7.72626 49.9289 7.56168C49.9057 7.39611 49.8762 7.23352 49.8417 7.07291C49.8073 6.9113 49.7665 6.75366 49.7208 6.59801C49.6751 6.44235 49.6245 6.29066 49.5682 6.14294C49.512 5.99423 49.4501 5.85047 49.384 5.71067C49.3179 5.57088 49.2469 5.43506 49.171 5.30518C49.0951 5.1753 49.0149 5.05137 48.9305 4.9324C48.8462 4.81343 48.7583 4.7004 48.6655 4.59333C48.5734 4.48725 48.4778 4.38711 48.3786 4.29292C48.2795 4.19973 48.1768 4.11347 48.0721 4.03416C47.9666 3.95485 47.859 3.88247 47.7487 3.81803C47.6383 3.75358 47.5265 3.69707 47.4119 3.64849C47.298 3.59892 47.182 3.55827 47.0653 3.52555C46.9485 3.49284 46.8304 3.46805 46.7116 3.4512C46.5928 3.43434 46.474 3.42542 46.3544 3.42542ZM7.781 12.0073C7.7346 11.9408 7.69241 11.8685 7.65585 11.7901C7.61859 11.7128 7.58765 11.6305 7.56234 11.5443C7.53703 11.457 7.51805 11.3678 7.50469 11.2766C7.49203 11.1844 7.485 11.0922 7.485 10.998C7.485 10.9048 7.49203 10.8116 7.50469 10.7204C7.51805 10.6282 7.53703 10.539 7.56234 10.4527C7.58765 10.3655 7.61859 10.2832 7.65585 10.2058C7.69241 10.1275 7.7346 10.0561 7.781 9.9897L12.8524 2.84246C12.9002 2.77801 12.9515 2.72051 13.007 2.67094C13.0626 2.62038 13.1209 2.57774 13.1821 2.54304C13.2433 2.50834 13.3066 2.48257 13.3712 2.46472C13.4359 2.44687 13.5013 2.43795 13.5674 2.43795C13.6335 2.43795 13.6989 2.44687 13.7636 2.46472C13.829 2.48257 13.8915 2.50834 13.9527 2.54304C14.0146 2.57774 14.0729 2.62038 14.1285 2.67094C14.1833 2.72051 14.2353 2.77801 14.2831 2.84246C14.3295 2.90888 14.3717 2.98126 14.409 3.05859C14.4456 3.13691 14.4765 3.2192 14.5018 3.30546C14.5278 3.39171 14.5468 3.48094 14.5595 3.57314C14.5728 3.66535 14.5791 3.75755 14.5791 3.85174C14.5791 3.94493 14.5728 4.03813 14.5595 4.12934C14.5468 4.22154 14.5278 4.31077 14.5018 4.39702C14.4765 4.48427 14.4456 4.56557 14.409 4.64389C14.3717 4.72222 14.3295 4.7936 14.2831 4.86002L9.21249 12.0073C9.16467 12.0707 9.11335 12.1282 9.05781 12.1788C9.00226 12.2294 8.94391 12.271 8.88274 12.3057C8.82087 12.3404 8.75829 12.3672 8.69361 12.384C8.62822 12.4019 8.56283 12.4108 8.49674 12.4108C8.43065 12.4108 8.36527 12.4019 8.30058 12.384C8.2359 12.3672 8.17262 12.3404 8.11145 12.3057C8.05028 12.271 7.99193 12.2294 7.93638 12.1788C7.88084 12.1282 7.82881 12.0707 7.781 12.0073ZM14.6206 7.70247L20.5962 16.1247L18.901 18.5141L17.208 20.9044L11.2325 12.4822L14.6206 7.70247ZM17.5412 23.7468L22.6182 16.5996C22.6646 16.5322 22.716 16.4717 22.7708 16.4182C22.8263 16.3646 22.8847 16.319 22.9466 16.2823C23.0084 16.2457 23.0717 16.2169 23.1378 16.1981C23.2032 16.1782 23.27 16.1683 23.3368 16.1683C23.4036 16.1673 23.4704 16.1763 23.5365 16.1941C23.6019 16.2119 23.6658 16.2387 23.7277 16.2744C23.7903 16.3101 23.8486 16.3547 23.9049 16.4073C23.9604 16.4598 24.0125 16.5193 24.0596 16.5857C24.1074 16.6531 24.1496 16.7255 24.1868 16.8038C24.2234 16.8831 24.255 16.9664 24.2803 17.0537C24.3056 17.1409 24.3246 17.2311 24.3373 17.3243C24.3499 17.4165 24.3563 17.5107 24.3556 17.6049C24.3556 17.6991 24.3485 17.7933 24.3345 17.8855C24.3211 17.9777 24.3007 18.0679 24.2747 18.1552C24.248 18.2414 24.2156 18.3237 24.1777 18.402C24.1397 18.4794 24.0968 18.5517 24.049 18.6172L18.9784 25.7634C18.9305 25.8269 18.8792 25.8844 18.8237 25.9349C18.7681 25.9855 18.7098 26.0281 18.6486 26.0618C18.5867 26.0965 18.5242 26.1233 18.4588 26.1402C18.3941 26.158 18.3287 26.1669 18.2626 26.1669C18.1965 26.1669 18.1311 26.158 18.0665 26.1402C18.0018 26.1233 17.9385 26.0965 17.8773 26.0618C17.8162 26.0281 17.7578 25.9855 17.7023 25.9349C17.6467 25.8844 17.5947 25.8269 17.5469 25.7634C17.4998 25.697 17.4576 25.6256 17.421 25.5473C17.3838 25.47 17.3521 25.3877 17.3268 25.3014C17.3015 25.2152 17.2818 25.1259 17.2684 25.0347C17.2551 24.9425 17.2488 24.8503 17.2481 24.7571C17.2481 24.6629 17.2544 24.5707 17.267 24.4785C17.2797 24.3863 17.2987 24.2971 17.3233 24.2108C17.3486 24.1246 17.3795 24.0413 17.4161 23.964C17.4527 23.8856 17.4948 23.8133 17.5412 23.7468ZM7.47094 32.289C7.40766 32.4259 7.33946 32.5577 7.26564 32.6836C7.19252 32.8105 7.11377 32.9305 7.03081 33.0445C6.94784 33.1585 6.86066 33.2656 6.76926 33.3657C6.67786 33.4659 6.58294 33.5591 6.48381 33.6443C6.38537 33.7296 6.28343 33.8069 6.17867 33.8763C6.07391 33.9457 5.96633 34.0062 5.85665 34.0587C5.74697 34.1113 5.63518 34.1549 5.52198 34.1896C5.40879 34.2253 5.29489 34.2511 5.17958 34.2679C5.06427 34.2848 4.94897 34.2927 4.83296 34.2917C4.71695 34.2907 4.60164 34.2808 4.48634 34.262C4.37173 34.2422 4.25783 34.2144 4.14464 34.1777C4.03214 34.14 3.92106 34.0944 3.81137 34.0399C3.7024 33.9854 3.59553 33.9229 3.49147 33.8515C3.38741 33.7802 3.28617 33.7008 3.18774 33.6136C3.09001 33.5263 2.99579 33.4322 2.9051 33.33C2.8151 33.2279 2.72862 33.1199 2.64636 33.0039C2.5648 32.8889 2.48746 32.7669 2.41504 32.64C2.34263 32.5121 2.27583 32.3793 2.21396 32.2414C2.15209 32.1036 2.09584 31.9609 2.04522 31.8141C1.9946 31.6664 1.9503 31.5167 1.91163 31.362C1.87296 31.2084 1.83992 31.0517 1.8139 30.8931C1.78789 30.7345 1.7675 30.5739 1.75414 30.4113C1.74008 30.2487 1.73305 30.0861 1.73235 29.9235C1.73164 29.7599 1.73727 29.5973 1.74922 29.4347C1.76117 29.2721 1.78016 29.1115 1.80476 28.9519C1.82937 28.7922 1.86031 28.6356 1.89757 28.4809C1.93484 28.3263 1.97843 28.1746 2.02764 28.0269C2.07686 27.8791 2.1317 27.7354 2.19217 27.5966C2.25263 27.4568 2.31802 27.3229 2.38903 27.1941C2.46074 27.0652 2.53668 26.9422 2.61753 26.8252C2.69839 26.7083 2.78346 26.5982 2.87275 26.4941C2.96275 26.391 3.05556 26.2938 3.15328 26.2056L12.5311 17.6337L13.5463 19.0693L7.47094 32.289ZM14.7556 20.7656L16.0655 22.6117C15.9713 22.803 15.8904 23.0052 15.8229 23.2184C15.7554 23.4306 15.702 23.6507 15.6633 23.8777C15.6246 24.1047 15.6014 24.3338 15.593 24.5668C15.5846 24.7997 15.5916 25.0317 15.6141 25.2627C15.6359 25.4937 15.6731 25.7198 15.7252 25.9419C15.7772 26.163 15.8433 26.3761 15.9234 26.5794C16.0036 26.7836 16.0957 26.9759 16.2012 27.1554C16.3066 27.3358 16.4226 27.5004 16.5499 27.6491C16.6772 27.7988 16.8129 27.9307 16.957 28.0447C17.1011 28.1587 17.2516 28.2529 17.4084 28.3273C17.5652 28.4016 17.7255 28.4552 17.89 28.4879C18.0538 28.5206 18.2183 28.5315 18.3835 28.5206C18.5488 28.5107 18.7119 28.479 18.8729 28.4254C19.0339 28.3719 19.19 28.2985 19.3419 28.2043C19.493 28.1101 19.6371 27.9971 19.7735 27.8653C19.9099 27.7334 20.0365 27.5857 20.1539 27.4201L25.2246 20.2748C25.349 20.0994 25.4594 19.909 25.5571 19.7028C25.6542 19.4966 25.7364 19.2794 25.8039 19.0504C25.8707 18.8214 25.9213 18.5864 25.9558 18.3435C25.9895 18.1006 26.0071 17.8547 26.0071 17.6079C26.0071 17.36 25.9895 17.1151 25.9558 16.8722C25.9213 16.6293 25.8707 16.3934 25.8039 16.1644C25.7364 15.9353 25.6542 15.7182 25.5571 15.512C25.4594 15.3068 25.349 15.1154 25.2246 14.9399C25.1128 14.7902 24.9926 14.6544 24.8646 14.5334C24.7366 14.4115 24.6023 14.3064 24.461 14.2172C24.3204 14.127 24.1756 14.0546 24.0258 14.0001C23.8768 13.9445 23.7249 13.9079 23.5709 13.888C23.4176 13.8692 23.2637 13.8682 23.1097 13.886C22.9557 13.9029 22.8039 13.9386 22.6541 13.9921C22.5043 14.0457 22.3588 14.1161 22.2175 14.2043C22.0762 14.2915 21.9412 14.3956 21.8125 14.5156L15.7638 5.99423C15.799 5.92185 15.8292 5.84551 15.8609 5.77016H46.3544C46.4845 5.77016 46.6132 5.789 46.7411 5.82469C46.8684 5.86038 46.9921 5.91293 47.1124 5.98332C47.2326 6.05371 47.3465 6.13997 47.4548 6.24208C47.563 6.34321 47.6629 6.45921 47.755 6.58909C47.8471 6.71896 47.9286 6.85975 48.0011 7.01243C48.0735 7.16511 48.1347 7.32572 48.1839 7.49526C48.2338 7.6638 48.2718 7.83829 48.2971 8.01873C48.3224 8.19818 48.335 8.37961 48.335 8.56303V33.1952H13.8711V22.683L14.7556 20.7656ZM34.8871 47.567H27.3156L29.6758 41.8038H32.5219L34.8871 47.567ZM46.3544 39.4581H15.8433C15.7139 39.4581 15.5853 39.4393 15.458 39.4036C15.3307 39.3669 15.207 39.3133 15.0875 39.243C14.968 39.1726 14.8541 39.0863 14.7465 38.9852C14.6389 38.8831 14.5391 38.7671 14.4477 38.6372C14.3556 38.5083 14.274 38.3675 14.2023 38.2148C14.1306 38.0622 14.0694 37.9015 14.0202 37.733C13.971 37.5635 13.9337 37.39 13.9084 37.2105C13.8831 37.0311 13.8704 36.8496 13.8711 36.6662V35.5439H48.335V36.6662C48.335 36.8496 48.3224 37.0311 48.2971 37.2115C48.2711 37.391 48.2338 37.5654 48.1839 37.735C48.134 37.9035 48.0728 38.0651 48.0011 38.2168C47.9286 38.3695 47.8464 38.5103 47.7543 38.6402C47.6629 38.7691 47.5623 38.885 47.4548 38.9872C47.3465 39.0893 47.2319 39.1745 47.1124 39.2449C46.9921 39.3153 46.8684 39.3689 46.7404 39.4046C46.6132 39.4403 46.4845 39.4581 46.3544 39.4581Z" fill="black"/>
</g>
</svg>
