<svg width="50" height="50" viewBox="0 0 50 50" fill="none" xmlns="http://www.w3.org/2000/svg">
<path d="M8.81517 5.5143C6.48923 5.5143 4.59082 7.56032 4.59082 10.0573C4.59082 12.5652 6.48923 14.6011 8.81517 14.6011C11.1504 14.6011 13.0488 12.5652 13.0488 10.0573C13.0488 7.56032 11.1504 5.5143 8.81517 5.5143ZM8.81517 13.6408C6.97953 13.6408 5.4815 12.0365 5.4815 10.0573C5.4815 8.08806 6.97953 6.47466 8.81517 6.47466C10.6601 6.47466 12.1582 8.08806 12.1582 10.0573C12.1582 12.0365 10.6601 13.6408 8.81517 13.6408Z" fill="black"/>
<path d="M34.2536 9.79842C34.2452 9.76915 34.2536 9.74994 34.2452 9.72159L31.7759 1.60426C31.7759 1.60426 31.7674 1.60426 31.7674 1.59511C31.7046 1.41219 31.5443 1.27774 31.3483 1.27774H26.4013C26.2053 0.538716 25.581 0 24.8328 0C24.0923 0 23.4688 0.538716 23.2729 1.27774H18.5489C18.3614 1.27774 18.2011 1.41219 18.1383 1.59511C18.1299 1.60426 18.1299 1.60426 18.1299 1.60426L15.6606 9.72159C15.6521 9.74994 15.6521 9.76915 15.6521 9.79842C15.6428 9.82677 15.6343 9.84598 15.6343 9.87524C15.6343 9.88439 15.6428 9.89445 15.6428 9.9036C15.6428 9.91366 15.6428 9.91366 15.6428 9.9228C15.6699 11.6332 16.9618 13.0069 18.5489 13.0069C20.1445 13.0069 21.4364 11.6332 21.4635 9.9228C21.4635 9.91366 21.4635 9.91366 21.4635 9.9036V9.87524C21.4635 9.84598 21.4542 9.82677 21.4542 9.79842C21.4457 9.76915 21.4542 9.74994 21.4457 9.72159L19.1639 2.23901H23.2729C23.4239 2.82437 23.8522 3.28535 24.4045 3.439L24.5029 17.2334H22.6045C22.3542 17.2334 22.1583 17.4539 22.1583 17.7136C22.1583 17.9825 22.3542 18.1938 22.6045 18.1938H27.0697C27.3106 18.1938 27.515 17.9825 27.515 17.7136C27.515 17.4539 27.3106 17.2334 27.0697 17.2334H25.3944L25.296 3.439C25.8304 3.26614 26.241 2.81523 26.4013 2.23901H30.7334L28.46 9.72159C28.4515 9.74994 28.4515 9.76915 28.4515 9.79842C28.4422 9.82677 28.4337 9.84598 28.4337 9.87524C28.4337 9.88439 28.4422 9.89445 28.4422 9.9036C28.4422 9.91366 28.4422 9.91366 28.4422 9.9228C28.4693 11.6332 29.7612 13.0069 31.3483 13.0069C32.9439 13.0069 34.2358 11.6332 34.263 9.9228C34.263 9.91366 34.263 9.91366 34.263 9.9036V9.87524C34.263 9.84598 34.2536 9.82677 34.2536 9.79842ZM18.5489 12.0457C17.5861 12.0457 16.7837 11.3258 16.5784 10.3554H20.5271C20.3226 11.3258 19.5117 12.0457 18.5489 12.0457ZM20.4024 9.39506H16.6946L18.5489 3.29541L20.4024 9.39506ZM24.8328 2.55547C24.4223 2.55547 24.0923 2.2006 24.0923 1.75792C24.0923 1.31615 24.4223 0.961275 24.8328 0.961275C25.2425 0.961275 25.5725 1.31615 25.5725 1.75792C25.5725 2.2006 25.2425 2.55547 24.8328 2.55547ZM31.3483 3.29541L33.2018 9.39506H29.494L31.3483 3.29541ZM31.3483 12.0457C30.3856 12.0457 29.5831 11.3258 29.3787 10.3554H33.3273C33.1221 11.3258 32.3111 12.0457 31.3483 12.0457Z" fill="black"/>
<path d="M39.6199 6.82953C37.2931 6.82953 35.3947 8.86641 35.3947 11.3734C35.3947 13.8713 37.2931 15.9072 39.6199 15.9072C41.9551 15.9072 43.8535 13.8713 43.8535 11.3734C43.8535 8.86641 41.9551 6.82953 39.6199 6.82953ZM39.6199 14.9469C37.7834 14.9469 36.2862 13.3426 36.2862 11.3734C36.2862 9.39506 37.7834 7.7908 39.6199 7.7908C41.4648 7.7908 42.962 9.39506 42.962 11.3734C42.962 13.3426 41.4648 14.9469 39.6199 14.9469Z" fill="black"/>
<path d="M49.7277 27.2715L46.0378 18.5587C45.36 16.9645 43.577 16.167 41.9729 16.7624C40.4579 17.3203 38.7911 17.3203 37.2667 16.7624C35.6711 16.1761 33.8796 16.9645 33.2112 18.5496L29.8597 25.8977C29.5925 26.0322 29.3694 26.2434 29.1998 26.5123L26.3742 30.7681L26.3207 30.8449C26.3123 30.8541 26.3029 30.8641 26.3029 30.8733L23.4154 30.8641L20.7773 26.58C20.7324 26.2434 20.617 25.9169 20.438 25.6188L17.1044 18.0502C16.3562 16.8392 15.0991 16.1094 13.7351 16.1094H4.55517C3.35149 16.1094 2.22839 16.5036 1.37249 17.2234C0.480965 17.9633 0 18.9621 0 20.0377V30.2879C0 31.1422 0.543736 31.9013 1.36401 32.1702C1.65835 32.2763 1.96118 32.3239 2.2462 32.3239C2.77212 32.3239 3.2709 32.1611 3.68146 31.8629V45.4845C3.68146 47.943 5.54425 49.9506 7.82607 49.9506H10.0629C12.3541 49.9506 14.2076 47.943 14.2076 45.4845V23.4291L16.5072 28.434C16.8015 28.9718 17.2384 29.3367 17.7728 29.4803C17.9781 29.5379 18.2012 29.548 18.4243 29.5379C19.3328 31.027 20.349 32.6989 20.6611 33.2175L18.923 41.1135C18.8874 41.258 18.923 41.4016 19.0036 41.5168C19.0927 41.6321 19.2174 41.6998 19.3599 41.6998H21.8377V46.7229C21.8377 48.5 23.1839 49.9506 24.8329 49.9506H24.8414C26.4904 49.9506 27.8273 48.5 27.8273 46.7229V41.6998H30.3144C30.4475 41.6998 30.5816 41.6321 30.6622 41.5168C30.7512 41.4016 30.7775 41.258 30.7512 41.1135L29.0038 33.2266C29.3787 32.6504 30.6622 30.7196 31.6962 29.173C32.6047 29.2306 33.4784 28.712 33.844 27.8285L35.5015 24.255L35.5643 28.2602L33.0593 37.7129C33.0059 37.9141 33.0509 38.1354 33.1662 38.2992C33.2824 38.4711 33.4699 38.5681 33.6659 38.5681H35.6084L36.3489 47.4244C36.4736 48.865 37.623 49.9415 39.0311 49.9415H40.217C41.6251 49.9415 42.7753 48.865 42.8907 47.4244L43.6397 38.5681H45.5738C45.779 38.5681 45.9572 38.4711 46.0819 38.2992C46.1981 38.1354 46.2337 37.9141 46.1803 37.7129L43.6838 28.2602L43.7381 24.3794L45.6806 29.0678C46.02 29.8837 46.8572 30.3931 47.758 30.3931C47.9981 30.3931 48.2297 30.3638 48.4706 30.2879C49.0678 30.0282 49.5496 29.5379 49.7718 28.9334C49.9678 28.3956 49.9593 27.8093 49.7277 27.2715ZM13.3169 45.4845C13.3169 47.4143 11.8545 48.9903 10.0629 48.9903H9.34107V35.9934C9.34107 35.7245 9.14512 35.5132 8.89573 35.5132C8.64634 35.5132 8.44955 35.7245 8.44955 35.9934V48.9903H7.82607C6.03454 48.9903 4.57298 47.4143 4.57298 45.4845V30.2495H13.3169V45.4845ZM18.353 25.9453C17.9603 26.2151 17.6837 26.6276 17.5862 27.1178C17.4878 27.5697 17.559 28.0306 17.7643 28.434C17.5769 28.3279 17.3987 28.1834 17.2918 27.973L14.5019 21.931C14.3322 21.6804 14.0387 21.5843 13.7622 21.6804C13.495 21.7764 13.3169 22.0462 13.3169 22.3535V29.2892H4.4924V22.1322C4.4924 21.8633 4.29645 21.652 4.04706 21.652C3.80616 21.652 3.60088 21.8633 3.60088 22.1322V30.3254C3.60088 30.5952 3.4677 30.8449 3.21746 31.0462C2.80775 31.3635 2.20124 31.4504 1.63121 31.2574C1.18587 31.1038 0.891524 30.7196 0.891524 30.2879V20.0377C0.891524 19.2694 1.25713 18.5395 1.91623 17.9825C2.62028 17.3962 3.55677 17.0697 4.55517 17.0697H13.7351C14.7962 17.0697 15.7768 17.6368 16.3291 18.5203L19.4753 25.6764C19.0927 25.6288 18.7 25.7056 18.353 25.9453ZM26.9357 46.7229C26.9357 47.8086 26.2232 48.7204 25.2782 48.9326V43.765C25.2782 43.5052 25.0823 43.2839 24.8329 43.2839C24.592 43.2839 24.3867 43.5052 24.3867 43.765V48.9326C23.4417 48.7204 22.7292 47.8086 22.7292 46.7229V41.6998H26.9357V46.7229ZM31.3306 28.0782C31.0006 28.5684 28.2913 32.6312 28.1488 32.8708C28.086 32.9769 28.0682 33.1114 28.0945 33.2367L29.7528 40.7385H19.9215L21.579 33.2458C21.6061 33.1215 21.5883 32.9961 21.5255 32.8809C21.4186 32.6989 18.8518 28.4815 18.5574 28.0114C18.4421 27.7992 18.4065 27.5596 18.4506 27.3291C18.504 27.0886 18.638 26.8873 18.8246 26.762C19.2174 26.4931 19.7433 26.6184 19.9927 27.0501L22.6758 31.3928C22.7377 31.498 22.7911 31.5748 22.8895 31.68C22.9693 31.7669 23.0855 31.8245 23.2017 31.8245L26.5354 31.8346C26.6863 31.8538 26.8823 31.7285 26.9536 31.5364C26.9629 31.5071 26.9892 31.4788 27.0163 31.4504C27.0519 31.4019 27.0791 31.3635 27.1054 31.3251L29.931 27.0602C30.0913 26.8005 30.3678 26.666 30.6528 26.666C30.8131 26.6761 30.965 26.7236 31.099 26.8197C31.2856 26.9642 31.4103 27.1663 31.4553 27.4059C31.4994 27.6364 31.4553 27.8761 31.3306 28.0782ZM42.0085 47.3384C41.9279 48.2604 41.1441 48.9811 40.217 48.9811H40.0651V42.2751C40.0651 42.0071 39.8692 41.7949 39.6198 41.7949C39.3789 41.7949 39.1745 42.0071 39.1745 42.2751V48.9811H39.0311C38.1048 48.9811 37.3117 48.2604 37.2396 47.3384L36.4999 38.5681H42.7482L42.0085 47.3384ZM45.226 37.6068H34.0136L36.3489 28.8081H42.9L45.226 37.6068ZM48.9431 28.5776C48.809 28.9334 48.5155 29.2407 48.1856 29.3843C47.4993 29.5864 46.7418 29.269 46.5009 28.6736L44.0851 22.8621C43.9782 22.6124 43.7559 22.4587 43.5057 22.4587C43.4616 22.4587 43.4166 22.4688 43.3725 22.4779C43.0782 22.5355 42.8729 22.8145 42.8644 23.131L42.7932 27.8477H36.4465L36.3752 23.131C36.3752 22.8044 36.1614 22.5355 35.8764 22.4688C35.5728 22.4011 35.2877 22.5648 35.1724 22.8429L33.0331 27.4151C32.8905 27.7608 32.6047 28.0014 32.2756 28.1267C32.3646 27.8376 32.3824 27.5312 32.329 27.223C32.2484 26.7337 31.9812 26.3111 31.5978 26.0322C31.3925 25.8785 31.1609 25.7925 30.9115 25.7532L34.0136 18.9621C34.5039 17.8097 35.8052 17.2426 36.9817 17.6661C38.6842 18.2898 40.5648 18.2898 42.2579 17.6661C43.4344 17.2426 44.7357 17.8097 45.226 18.9621L48.9253 27.6748C49.0415 27.9629 49.0499 28.2794 48.9431 28.5776Z" fill="black"/>
<path d="M24.8329 23.5727C23.1746 23.5727 21.8284 25.0334 21.8284 26.8197C21.8284 28.5968 23.1746 30.0574 24.8329 30.0574C26.4989 30.0574 27.8451 28.5968 27.8451 26.8197C27.8451 25.0334 26.4989 23.5727 24.8329 23.5727ZM24.8329 29.0962C23.6649 29.0962 22.7199 28.0681 22.7199 26.8197C22.7199 25.5611 23.6649 24.534 24.8329 24.534C26.0001 24.534 26.9536 25.5611 26.9536 26.8197C26.9536 28.0681 26.0001 29.0962 24.8329 29.0962Z" fill="black"/>
</svg>
