<svg width="394" height="29" viewBox="0 0 394 29" fill="none" xmlns="http://www.w3.org/2000/svg">
<path d="M6.75942 22.3071C5.62467 22.3071 4.63582 22.112 3.77665 21.7218C2.90127 21.3803 2.22042 20.8601 1.70168 20.1609C1.21535 19.4781 0.988403 18.6976 0.988403 17.8197C0.988403 16.6165 1.50715 15.5759 2.54463 14.698C3.58212 13.7875 5.30046 13.1859 7.73207 12.877L11.4281 12.4868C11.7685 12.4543 12.0441 12.3242 12.2711 12.0966C12.4818 11.8852 12.5953 11.6251 12.5953 11.3161C12.5953 10.3731 12.1738 9.62521 11.3633 9.10493C10.5852 8.55213 9.54767 8.25947 8.25081 8.25947C7.34301 8.25947 6.51626 8.43832 5.78678 8.77976C5.04109 9.08867 4.4575 9.52766 4.03602 10.0805C3.59833 10.6495 3.38759 11.2348 3.38759 11.8364L1.31262 10.9259C1.39367 10.113 1.73409 9.34882 2.3501 8.64969C2.99853 7.91804 3.84149 7.33272 4.87898 6.89373C5.91647 6.42223 7.05121 6.17834 8.31565 6.17834C9.61251 6.17834 10.7311 6.42223 11.6875 6.89373C12.6763 7.33272 13.4382 7.96681 13.957 8.77976C14.5082 9.56018 14.7999 10.5195 14.7999 11.6413V19.2504C14.7999 19.5594 14.8648 19.8032 14.9945 19.9658C15.1566 20.1447 15.3835 20.226 15.6429 20.226C16.0644 20.226 16.4534 19.9496 16.8101 19.3805L18.0421 20.7462C17.7341 21.234 17.2964 21.5917 16.7452 21.8518C16.1779 22.1445 15.6105 22.3071 15.0593 22.3071C14.3136 22.3071 13.73 22.0795 13.3086 21.6567C12.8709 21.1852 12.6277 20.5999 12.5953 19.9008L12.5304 19.2504C12.0117 20.2097 11.2498 20.9739 10.2609 21.5267C9.25587 22.047 8.0887 22.3071 6.75942 22.3071ZM7.14848 20.291C8.18597 20.291 9.10998 20.0796 9.93673 19.6406C10.7473 19.2179 11.3795 18.6326 11.8172 17.8847C12.2873 17.153 12.5304 16.3076 12.5304 15.3483V14.2427L7.9266 14.828C6.14341 15.0557 4.9114 15.4459 4.23055 15.9987C3.58212 16.519 3.25791 17.1043 3.25791 17.7546C3.25791 18.535 3.59833 19.1691 4.29539 19.6406C5.02487 20.0796 5.98131 20.291 7.14848 20.291Z" fill="#E4D12C"/>
<path d="M26.5244 22.3071C25.0492 22.3071 23.7362 21.9494 22.569 21.2665C21.4343 20.5837 20.5589 19.6244 19.9104 18.405C19.262 17.2018 18.9378 15.8036 18.9378 14.2427C18.9378 12.6819 19.262 11.2999 19.9104 10.0805C20.5589 8.87731 21.4343 7.91805 22.569 7.21891C23.6875 6.53604 24.9844 6.17835 26.4596 6.17835C27.7078 6.17835 28.8101 6.47101 29.7666 7.02381C30.7554 7.54409 31.5822 8.30826 32.2306 9.30004V0H34.5001V21.7218H32.5548L32.3603 19.1204H32.2954C31.6794 20.1284 30.8689 20.9088 29.8314 21.4616C28.8263 22.0144 27.724 22.3071 26.5244 22.3071ZM26.7838 20.291C27.8537 20.291 28.8101 20.0309 29.6369 19.5106C30.4474 18.9578 31.0959 18.2099 31.5822 17.2994C32.1009 16.3889 32.3603 15.3808 32.3603 14.2427C32.3603 13.1209 32.1009 12.1291 31.5822 11.2511C31.0959 10.3406 30.4474 9.62522 29.6369 9.10494C28.8101 8.55214 27.8537 8.25948 26.7838 8.25948C25.6977 8.25948 24.725 8.55214 23.8659 9.10494C23.0391 9.62522 22.3745 10.3406 21.8557 11.2511C21.3694 12.1291 21.1425 13.1209 21.1425 14.2427C21.1425 15.4134 21.3694 16.4539 21.8557 17.3644C22.3745 18.2749 23.0391 18.9903 23.8659 19.5106C24.725 20.0309 25.6977 20.291 26.7838 20.291Z" fill="#E4D12C"/>
<path d="M42.2044 21.7218L36.3036 6.76367H38.7028L43.6309 19.7707H43.6957L48.6238 6.76367H51.023L45.1223 21.7218H42.2044Z" fill="#E4D12C"/>
<path d="M60.0949 22.3071C58.4901 22.3071 57.0797 21.9819 55.8801 21.3316C54.713 20.6487 53.8052 19.7057 53.1567 18.535C52.5083 17.3319 52.1841 15.9011 52.1841 14.2427C52.1841 12.6494 52.5083 11.2348 53.1567 10.0154C53.8052 8.81228 54.713 7.86926 55.8801 7.21891C57.0797 6.53604 58.4901 6.17834 60.0949 6.17834C61.6836 6.17834 63.0777 6.53604 64.2449 7.21891C65.4445 7.86926 66.3847 8.81228 67.0331 10.0154C67.714 11.2348 68.0706 12.6494 68.0706 14.2427C68.0706 15.9011 67.714 17.3319 67.0331 18.535C66.3847 19.7057 65.4445 20.6487 64.2449 21.3316C63.0777 21.9819 61.6836 22.3071 60.0949 22.3071ZM60.0949 20.291C61.8133 20.291 63.2074 19.7545 64.2449 18.6651C65.2824 17.5433 65.8011 16.0637 65.8011 14.2427C65.8011 12.4217 65.2824 10.9747 64.2449 9.88536C63.2074 8.81228 61.8133 8.25947 60.0949 8.25947C58.3604 8.25947 56.9825 8.81228 55.945 9.88536C54.9075 10.9747 54.3887 12.4217 54.3887 14.2427C54.3887 16.0637 54.9075 17.5433 55.945 18.6651C56.9825 19.7545 58.3604 20.291 60.0949 20.291Z" fill="#E4D12C"/>
<path d="M76.8416 28.5505C75.7069 28.5505 74.6045 28.3717 73.5346 28.0302C72.4485 27.6725 71.4759 27.201 70.6167 26.5994C69.7899 25.9816 69.1253 25.2987 68.6066 24.5183L70.3573 23.0225C70.9571 24.0631 71.8487 24.876 73.0159 25.4938C74.1831 26.1442 75.4313 26.4694 76.7768 26.4694C78.025 26.4694 79.1111 26.2255 80.0189 25.754C80.9267 25.2662 81.64 24.5834 82.1587 23.6729C82.6775 22.7949 82.9369 21.7543 82.9369 20.5512V18.8603C82.3208 19.8195 81.4779 20.5837 80.408 21.1365C79.3705 21.6568 78.333 21.9169 77.2955 21.9169C75.8203 21.9169 74.5235 21.5917 73.4049 20.9414C72.2702 20.291 71.3948 19.3805 70.7464 18.2099C70.1304 17.0393 69.8386 15.706 69.8386 14.1777C69.8386 12.5843 70.1304 11.1861 70.7464 10.0155C71.3948 8.84482 72.2702 7.93433 73.4049 7.28397C74.5235 6.6011 75.8203 6.24341 77.2955 6.24341C78.3654 6.24341 79.4353 6.53606 80.4728 7.08887C81.5103 7.65793 82.3208 8.37331 82.9369 9.23503H83.0017L83.1962 6.76369H85.2064V20.5512C85.2064 22.1445 84.8497 23.5428 84.1689 24.7134C83.4718 25.9166 82.4992 26.8596 81.2509 27.5099C79.9865 28.1928 78.5275 28.5505 76.8416 28.5505ZM77.5549 19.8358C78.6248 19.8358 79.5812 19.6082 80.408 19.1204C81.2185 18.6001 81.8507 17.9335 82.2884 17.1043C82.7585 16.2426 83.0017 15.2671 83.0017 14.1777C83.0017 13.0559 82.7585 12.0641 82.2884 11.1861C81.8507 10.2756 81.2185 9.56021 80.408 9.03992C79.5812 8.51964 78.6248 8.2595 77.5549 8.2595C76.4688 8.2595 75.5123 8.51964 74.7018 9.03992C73.8751 9.52769 73.2266 10.2106 72.7565 11.1211C72.3188 11.999 72.1081 13.0071 72.1081 14.1777C72.1081 15.2671 72.3188 16.2426 72.7565 17.1043C73.2266 17.9823 73.8751 18.6489 74.7018 19.1204C75.5123 19.6082 76.4688 19.8358 77.5549 19.8358Z" fill="#E4D12C"/>
<path d="M93.0286 22.3071C91.8938 22.3071 90.905 22.112 90.0458 21.7218C89.1704 21.3803 88.4896 20.8601 87.9708 20.1609C87.4845 19.4781 87.2576 18.6976 87.2576 17.8197C87.2576 16.6165 87.7763 15.5759 88.8138 14.698C89.8513 13.7875 91.5696 13.1859 94.0012 12.877L97.6973 12.4868C98.0377 12.4543 98.3133 12.3242 98.5402 12.0966C98.751 11.8852 98.8645 11.6251 98.8645 11.3161C98.8645 10.3731 98.443 9.62521 97.6324 9.10493C96.8543 8.55213 95.8168 8.25947 94.52 8.25947C93.6122 8.25947 92.7854 8.43832 92.0559 8.77976C91.3103 9.08867 90.7267 9.52766 90.3052 10.0805C89.8675 10.6495 89.6568 11.2348 89.6568 11.8364L87.5818 10.9259C87.6628 10.113 88.0033 9.34882 88.6193 8.64969C89.2677 7.91804 90.1107 7.33272 91.1481 6.89373C92.1856 6.42223 93.3204 6.17834 94.5848 6.17834C95.8817 6.17834 97.0002 6.42223 97.9567 6.89373C98.9455 7.33272 99.7074 7.96681 100.226 8.77976C100.777 9.56018 101.069 10.5195 101.069 11.6413V19.2504C101.069 19.5594 101.134 19.8032 101.264 19.9658C101.426 20.1447 101.653 20.226 101.912 20.226C102.334 20.226 102.723 19.9496 103.079 19.3805L104.311 20.7462C104.003 21.234 103.566 21.5917 103.014 21.8518C102.447 22.1445 101.88 22.3071 101.328 22.3071C100.583 22.3071 99.9992 22.0795 99.5777 21.6567C99.14 21.1852 98.8969 20.5999 98.8645 19.9008L98.7996 19.2504C98.2809 20.2097 97.519 20.9739 96.5301 21.5267C95.525 22.047 94.3579 22.3071 93.0286 22.3071ZM93.4176 20.291C94.4551 20.291 95.3791 20.0796 96.2059 19.6406C97.0164 19.2179 97.6486 18.6326 98.0863 17.8847C98.5564 17.153 98.7996 16.3076 98.7996 15.3483V14.2427L94.1958 14.828C92.4126 15.0557 91.1806 15.4459 90.4997 15.9987C89.8513 16.519 89.5271 17.1043 89.5271 17.7546C89.5271 18.535 89.8675 19.1691 90.5646 19.6406C91.294 20.0796 92.2505 20.291 93.4176 20.291Z" fill="#E4D12C"/>
<path d="M112.794 22.3071C111.318 22.3071 110.005 21.9494 108.838 21.2665C107.703 20.5837 106.828 19.6244 106.18 18.405C105.531 17.2018 105.207 15.8036 105.207 14.2427C105.207 12.6819 105.531 11.2999 106.18 10.0805C106.828 8.87731 107.703 7.91805 108.838 7.21891C109.957 6.53604 111.254 6.17835 112.729 6.17835C113.977 6.17835 115.079 6.47101 116.036 7.02381C117.025 7.54409 117.851 8.30826 118.5 9.30004V0H120.769V21.7218H118.824L118.629 19.1204H118.565C117.949 20.1284 117.138 20.9088 116.101 21.4616C115.095 22.0144 113.993 22.3071 112.794 22.3071ZM113.053 20.291C114.123 20.291 115.079 20.0309 115.906 19.5106C116.717 18.9578 117.365 18.2099 117.851 17.2994C118.37 16.3889 118.629 15.3808 118.629 14.2427C118.629 13.1209 118.37 12.1291 117.851 11.2511C117.365 10.3406 116.717 9.62522 115.906 9.10494C115.079 8.55214 114.123 8.25948 113.053 8.25948C111.967 8.25948 110.994 8.55214 110.135 9.10494C109.308 9.62522 108.644 10.3406 108.125 11.2511C107.639 12.1291 107.412 13.1209 107.412 14.2427C107.412 15.4134 107.639 16.4539 108.125 17.3644C108.644 18.2749 109.308 18.9903 110.135 19.5106C110.994 20.0309 111.967 20.291 113.053 20.291Z" fill="#E4D12C"/>
<path d="M128.603 22.3071C127.468 22.3071 126.479 22.112 125.62 21.7218C124.745 21.3803 124.064 20.8601 123.545 20.1609C123.059 19.4781 122.832 18.6976 122.832 17.8197C122.832 16.6165 123.351 15.5759 124.388 14.698C125.426 13.7875 127.144 13.1859 129.576 12.877L133.272 12.4868C133.612 12.4543 133.888 12.3242 134.115 12.0966C134.325 11.8852 134.439 11.6251 134.439 11.3161C134.439 10.3731 134.017 9.62521 133.207 9.10493C132.429 8.55213 131.391 8.25947 130.094 8.25947C129.187 8.25947 128.36 8.43832 127.63 8.77976C126.885 9.08867 126.301 9.52766 125.88 10.0805C125.442 10.6495 125.231 11.2348 125.231 11.8364L123.156 10.9259C123.237 10.113 123.578 9.34882 124.194 8.64969C124.842 7.91804 125.685 7.33272 126.723 6.89373C127.76 6.42223 128.895 6.17834 130.159 6.17834C131.456 6.17834 132.575 6.42223 133.531 6.89373C134.52 7.33272 135.282 7.96681 135.801 8.77976C136.352 9.56018 136.644 10.5195 136.644 11.6413V19.2504C136.644 19.5594 136.708 19.8032 136.838 19.9658C137 20.1447 137.227 20.226 137.487 20.226C137.908 20.226 138.297 19.9496 138.654 19.3805L139.886 20.7462C139.578 21.234 139.14 21.5917 138.589 21.8518C138.021 22.1445 137.454 22.3071 136.903 22.3071C136.157 22.3071 135.574 22.0795 135.152 21.6567C134.714 21.1852 134.471 20.5999 134.439 19.9008L134.374 19.2504C133.855 20.2097 133.093 20.9739 132.105 21.5267C131.1 22.047 129.932 22.3071 128.603 22.3071ZM128.992 20.291C130.03 20.291 130.954 20.0796 131.78 19.6406C132.591 19.2179 133.223 18.6326 133.661 17.8847C134.131 17.153 134.374 16.3076 134.374 15.3483V14.2427L129.77 14.828C127.987 15.0557 126.755 15.4459 126.074 15.9987C125.426 16.519 125.102 17.1043 125.102 17.7546C125.102 18.535 125.442 19.1691 126.139 19.6406C126.869 20.0796 127.825 20.291 128.992 20.291Z" fill="#E4D12C"/>
<path d="M172.755 22.4372C170.55 22.4372 168.605 21.982 166.919 21.0715C165.233 20.161 163.904 18.8928 162.964 17.2344C162.056 15.5435 161.602 13.5762 161.602 11.3162C161.602 9.07248 162.056 7.12142 162.964 5.46302C163.904 3.7721 165.233 2.4714 166.919 1.5609C168.605 0.617894 170.55 0.130127 172.755 0.130127C175.041 0.130127 177.034 0.617894 178.72 1.5609C180.406 2.4714 181.703 3.7721 182.611 5.46302C183.519 7.12142 183.973 9.07248 183.973 11.3162C183.973 13.5762 183.519 15.5435 182.611 17.2344C181.703 18.8928 180.406 20.161 178.72 21.0715C177.034 21.982 175.041 22.4372 172.755 22.4372ZM172.755 20.2911C174.522 20.2911 176.062 19.9334 177.359 19.1855C178.688 18.405 179.709 17.3482 180.406 15.9987C181.136 14.6655 181.509 13.1047 181.509 11.3162C181.509 9.49521 181.136 7.9181 180.406 6.56862C179.709 5.23539 178.688 4.19483 177.359 3.44693C176.062 2.71528 174.522 2.34133 172.755 2.34133C171.02 2.34133 169.48 2.71528 168.151 3.44693C166.854 4.19483 165.833 5.23539 165.103 6.56862C164.406 7.9181 164.066 9.49521 164.066 11.3162C164.066 13.1047 164.406 14.6655 165.103 15.9987C165.833 17.3482 166.854 18.405 168.151 19.1855C169.48 19.9334 171.02 20.2911 172.755 20.2911Z" fill="#E4D12C"/>
<path d="M185.322 21.7218L193.363 0.845459H196.345L204.321 21.7218H201.727L199.847 16.7141H189.861L187.916 21.7218H185.322ZM190.574 14.5029H199.134L194.854 3.3168L190.574 14.5029Z" fill="#E4D12C"/>
<path d="M206.378 21.7218V0.845459H215.91C217.985 0.845459 219.573 1.34948 220.708 2.34127C221.827 3.30054 222.394 4.68254 222.394 6.50353C222.394 7.64165 222.102 8.58466 221.551 9.36508C220.984 10.1455 220.189 10.6658 219.152 10.9259C220.4 11.1861 221.357 11.7551 222.005 12.6168C222.686 13.4948 223.042 14.5679 223.042 15.8686C223.042 17.7384 222.41 19.1854 221.162 20.226C219.946 21.234 218.212 21.7218 215.975 21.7218H206.378ZM208.842 9.88536H215.65C217.028 9.88536 218.082 9.60896 218.828 9.0399C219.606 8.43833 219.995 7.59287 219.995 6.50353C219.995 5.43045 219.606 4.58499 218.828 3.96715C218.082 3.36558 217.028 3.05666 215.65 3.05666H208.842V9.88536ZM208.842 19.5106H215.65C217.207 19.5106 218.406 19.1854 219.282 18.5351C220.189 17.8847 220.643 16.9742 220.643 15.8036C220.643 14.6329 220.189 13.7224 219.282 13.0721C218.406 12.4217 217.207 12.0966 215.65 12.0966H208.842V19.5106Z" fill="#E4D12C"/>
<path d="M241.546 22.4372C239.941 22.4372 238.498 22.1283 237.202 21.5267C235.905 20.9252 234.835 20.0797 234.024 18.9904C233.197 17.8685 232.695 16.584 232.533 15.1533L234.932 14.698C235.013 15.7874 235.337 16.7629 235.905 17.6246C236.504 18.4538 237.283 19.1042 238.239 19.5757C239.228 20.0634 240.33 20.2911 241.546 20.2911C243.183 20.2911 244.464 19.9008 245.372 19.1204C246.312 18.34 246.798 17.397 246.798 16.2589C246.798 15.3159 246.442 14.5517 245.761 13.9826C245.064 13.4298 243.961 12.9746 242.454 12.6169L239.147 11.8365C237.283 11.4137 235.905 10.7634 234.997 9.88542C234.121 9.0237 233.7 7.90184 233.7 6.50358C233.7 5.25166 233.976 4.14606 234.543 3.18678C235.143 2.24377 235.97 1.49587 237.007 0.975585C238.077 0.422784 239.341 0.130127 240.768 0.130127C242.016 0.130127 243.135 0.390268 244.14 0.91055C245.177 1.39832 246.02 2.08118 246.669 2.99168C247.349 3.86966 247.803 4.86144 248.03 5.9833L245.696 6.56862C245.566 5.31669 245.048 4.29238 244.14 3.51196C243.232 2.73154 242.097 2.34133 240.768 2.34133C239.341 2.34133 238.207 2.71528 237.396 3.44693C236.569 4.14606 236.164 5.04029 236.164 6.11337C236.164 6.99135 236.44 7.70673 237.007 8.25954C237.607 8.77982 238.563 9.20255 239.86 9.49521L243.232 10.2106C247.252 11.1211 249.262 13.0071 249.262 15.8687C249.262 17.1369 248.938 18.2587 248.29 19.2505C247.674 20.2585 246.798 21.039 245.631 21.5918C244.464 22.1446 243.102 22.4372 241.546 22.4372Z" fill="#E4D12C"/>
<path d="M251.59 21.7218V0.845459H260.15C261.609 0.845459 262.905 1.13812 264.04 1.69092C265.207 2.2112 266.083 2.95911 266.699 3.90212C267.347 4.86139 267.671 5.96699 267.671 7.21892C267.671 8.43833 267.347 9.52767 266.699 10.4707C266.083 11.43 265.207 12.1941 264.04 12.7469C262.905 13.2672 261.609 13.5273 260.15 13.5273H253.99V21.7218H251.59ZM253.99 11.2511H260.15C261.138 11.2511 261.998 11.0885 262.743 10.7308C263.521 10.3894 264.121 9.91788 264.559 9.30005C265.029 8.69847 265.272 7.99934 265.272 7.21892C265.272 5.96699 264.786 4.9752 263.846 4.22729C262.889 3.44687 261.657 3.05666 260.15 3.05666H253.99V11.2511Z" fill="#E4D12C"/>
<path d="M284.577 22.4372C283.151 22.4372 281.87 22.1445 280.752 21.5917C279.617 21.0389 278.709 20.2585 278.028 19.2504C277.38 18.2099 277.007 17.023 276.926 15.6735L279.26 15.2183C279.341 16.6978 279.86 17.9172 280.817 18.8602C281.805 19.8195 283.054 20.291 284.577 20.291C286.085 20.291 287.301 19.8195 288.209 18.8602C289.149 17.9172 289.635 16.6815 289.635 15.1532C289.635 13.5924 289.181 12.3567 288.273 11.4462C287.366 10.5357 286.166 10.0805 284.707 10.0805C283.929 10.0805 283.167 10.2593 282.438 10.6007C281.741 10.9097 281.206 11.3161 280.817 11.8364L279.131 11.2511L279.779 0.845459H289.959V3.05666H281.919L281.465 9.30005C281.854 8.90983 282.389 8.61717 283.086 8.38955C283.767 8.12941 284.529 7.99934 285.356 7.99934C286.685 7.99934 287.852 8.30826 288.857 8.90983C289.895 9.47889 290.673 10.2756 291.191 11.3161C291.743 12.3567 292.034 13.6249 292.034 15.0882C292.034 16.5677 291.726 17.8684 291.127 18.9903C290.511 20.0796 289.651 20.9251 288.533 21.5267C287.398 22.1283 286.085 22.4372 284.577 22.4372Z" fill="#E4D12C"/>
<path d="M303.299 22.4372C301.565 22.4372 300.025 21.9495 298.695 21.0064C297.35 20.0634 296.312 18.7302 295.583 17.0393C294.837 15.3484 294.48 13.4461 294.48 11.3162C294.48 9.15377 294.837 7.21897 295.583 5.52805C296.312 3.83714 297.35 2.52017 298.695 1.5609C300.025 0.617894 301.565 0.130127 303.299 0.130127C305.066 0.130127 306.606 0.617894 307.903 1.5609C309.232 2.52017 310.27 3.83714 311.015 5.52805C311.745 7.21897 312.118 9.15377 312.118 11.3162C312.118 13.4461 311.745 15.3484 311.015 17.0393C310.27 18.7302 309.232 20.0634 307.903 21.0064C306.606 21.9495 305.066 22.4372 303.299 22.4372ZM303.299 20.2911C304.596 20.2911 305.715 19.9008 306.671 19.1204C307.611 18.34 308.357 17.2832 308.876 15.9337C309.427 14.5517 309.719 13.0071 309.719 11.3162C309.719 9.59276 309.427 8.04817 308.876 6.69869C308.357 5.31669 307.611 4.25987 306.671 3.51196C305.715 2.73154 304.596 2.34133 303.299 2.34133C302.035 2.34133 300.916 2.73154 299.927 3.51196C298.971 4.25987 298.241 5.31669 297.723 6.69869C297.204 8.04817 296.945 9.59276 296.945 11.3162C296.945 13.0071 297.204 14.5517 297.723 15.9337C298.241 17.2832 298.971 18.34 299.927 19.1204C300.916 19.9008 302.035 20.2911 303.299 20.2911Z" fill="#E4D12C"/>
<path d="M322.15 22.4372C320.627 22.4372 319.297 22.1771 318.13 21.6568C316.995 21.104 316.12 20.3398 315.472 19.3805C314.856 18.4375 314.564 17.3319 314.564 16.0637C314.564 14.633 314.953 13.4298 315.731 12.4218C316.541 11.43 317.644 10.7959 319.038 10.5357C318.033 10.1943 317.222 9.59273 316.574 8.71476C315.958 7.80426 315.666 6.81247 315.666 5.72313C315.666 4.60127 315.942 3.62575 316.509 2.79655C317.06 1.9836 317.822 1.33325 318.779 0.845487C319.767 0.325205 320.886 0.0650635 322.15 0.0650635C323.447 0.0650635 324.566 0.308947 325.522 0.780452C326.511 1.26822 327.289 1.93483 327.857 2.79655C328.408 3.62575 328.7 4.58501 328.7 5.6581C328.7 6.79621 328.375 7.80426 327.727 8.71476C327.078 9.59273 326.252 10.1943 325.263 10.5357C326.641 10.7959 327.743 11.43 328.57 12.4218C329.38 13.4298 329.802 14.633 329.802 16.0637C329.802 17.3319 329.478 18.4375 328.829 19.3805C328.181 20.3398 327.273 21.104 326.106 21.6568C324.971 22.1771 323.658 22.4372 322.15 22.4372ZM322.15 9.69028C322.929 9.69028 323.609 9.54396 324.225 9.23504C324.825 8.8936 325.295 8.43836 325.652 7.8693C325.992 7.31649 326.171 6.6824 326.171 5.98327C326.171 4.91019 325.782 4.03222 325.003 3.38186C324.258 2.69899 323.318 2.3413 322.15 2.3413C320.983 2.3413 320.011 2.69899 319.232 3.38186C318.487 4.03222 318.13 4.91019 318.13 5.98327C318.13 7.02384 318.487 7.91807 319.232 8.64972C320.011 9.34885 320.983 9.69028 322.15 9.69028ZM322.15 20.226C323.188 20.226 324.096 20.0634 324.874 19.7057C325.652 19.3155 326.252 18.7952 326.689 18.1449C327.111 17.4945 327.338 16.7791 327.338 15.9987C327.338 15.1858 327.095 14.4379 326.625 13.7875C326.187 13.1372 325.587 12.6169 324.809 12.2267C324.031 11.8364 323.139 11.6413 322.15 11.6413C321.145 11.6413 320.27 11.8364 319.492 12.2267C318.714 12.6169 318.098 13.1372 317.676 13.7875C317.239 14.4379 317.028 15.1858 317.028 15.9987C317.028 16.7791 317.239 17.4945 317.676 18.1449C318.098 18.7952 318.714 19.3155 319.492 19.7057C320.27 20.0634 321.145 20.226 322.15 20.226Z" fill="#E4D12C"/>
<path d="M333.568 22.047C333.05 22.047 332.628 21.8844 332.336 21.5917C332.028 21.2991 331.882 20.9089 331.882 20.4211C331.882 19.9496 332.028 19.5594 332.336 19.2505C332.628 18.9578 333.05 18.7952 333.568 18.7952C334.038 18.7952 334.428 18.9578 334.736 19.2505C335.076 19.5594 335.254 19.9496 335.254 20.4211C335.254 20.9089 335.076 21.2991 334.736 21.5917C334.428 21.8844 334.038 22.047 333.568 22.047Z" fill="#E4D12C"/>
<path d="M346.714 22.4372C344.979 22.4372 343.439 21.9495 342.11 21.0064C340.764 20.0634 339.727 18.7302 338.997 17.0393C338.252 15.3484 337.895 13.4461 337.895 11.3162C337.895 9.15377 338.252 7.21897 338.997 5.52805C339.727 3.83714 340.764 2.52017 342.11 1.5609C343.439 0.617894 344.979 0.130127 346.714 0.130127C348.481 0.130127 350.021 0.617894 351.318 1.5609C352.647 2.52017 353.684 3.83714 354.43 5.52805C355.159 7.21897 355.532 9.15377 355.532 11.3162C355.532 13.4461 355.159 15.3484 354.43 17.0393C353.684 18.7302 352.647 20.0634 351.318 21.0064C350.021 21.9495 348.481 22.4372 346.714 22.4372ZM346.714 20.2911C348.011 20.2911 349.129 19.9008 350.085 19.1204C351.026 18.34 351.771 17.2832 352.29 15.9337C352.841 14.5517 353.133 13.0071 353.133 11.3162C353.133 9.59276 352.841 8.04817 352.29 6.69869C351.771 5.31669 351.026 4.25987 350.085 3.51196C349.129 2.73154 348.011 2.34133 346.714 2.34133C345.449 2.34133 344.331 2.73154 343.342 3.51196C342.385 4.25987 341.656 5.31669 341.137 6.69869C340.618 8.04817 340.359 9.59276 340.359 11.3162C340.359 13.0071 340.618 14.5517 341.137 15.9337C341.656 17.2832 342.385 18.34 343.342 19.1204C344.331 19.9008 345.449 20.2911 346.714 20.2911Z" fill="#E4D12C"/>
<path d="M367.316 22.4372C365.581 22.4372 364.041 21.9495 362.712 21.0064C361.366 20.0634 360.329 18.7302 359.599 17.0393C358.854 15.3484 358.497 13.4461 358.497 11.3162C358.497 9.15377 358.854 7.21897 359.599 5.52805C360.329 3.83714 361.366 2.52017 362.712 1.5609C364.041 0.617894 365.581 0.130127 367.316 0.130127C369.083 0.130127 370.623 0.617894 371.92 1.5609C373.249 2.52017 374.286 3.83714 375.032 5.52805C375.761 7.21897 376.134 9.15377 376.134 11.3162C376.134 13.4461 375.761 15.3484 375.032 17.0393C374.286 18.7302 373.249 20.0634 371.92 21.0064C370.623 21.9495 369.083 22.4372 367.316 22.4372ZM367.316 20.2911C368.613 20.2911 369.731 19.9008 370.688 19.1204C371.628 18.34 372.373 17.2832 372.892 15.9337C373.443 14.5517 373.735 13.0071 373.735 11.3162C373.735 9.59276 373.443 8.04817 372.892 6.69869C372.373 5.31669 371.628 4.25987 370.688 3.51196C369.731 2.73154 368.613 2.34133 367.316 2.34133C366.051 2.34133 364.933 2.73154 363.944 3.51196C362.987 4.25987 362.258 5.31669 361.739 6.69869C361.22 8.04817 360.961 9.59276 360.961 11.3162C360.961 13.0071 361.22 14.5517 361.739 15.9337C362.258 17.2832 362.987 18.34 363.944 19.1204C364.933 19.9008 366.051 20.2911 367.316 20.2911Z" fill="#E4D12C"/>
<path d="M386.167 22.4372C384.643 22.4372 383.314 22.1771 382.147 21.6568C381.012 21.104 380.137 20.3398 379.488 19.3805C378.872 18.4375 378.58 17.3319 378.58 16.0637C378.58 14.633 378.969 13.4298 379.747 12.4218C380.558 11.43 381.66 10.7959 383.054 10.5357C382.049 10.1943 381.239 9.59273 380.59 8.71476C379.974 7.80426 379.683 6.81247 379.683 5.72313C379.683 4.60127 379.958 3.62575 380.526 2.79655C381.077 1.9836 381.839 1.33325 382.795 0.845487C383.784 0.325205 384.903 0.0650635 386.167 0.0650635C387.464 0.0650635 388.582 0.308947 389.539 0.780452C390.528 1.26822 391.306 1.93483 391.873 2.79655C392.424 3.62575 392.716 4.58501 392.716 5.6581C392.716 6.79621 392.392 7.80426 391.743 8.71476C391.095 9.59273 390.268 10.1943 389.279 10.5357C390.657 10.7959 391.76 11.43 392.586 12.4218C393.397 13.4298 393.818 14.633 393.818 16.0637C393.818 17.3319 393.494 18.4375 392.846 19.3805C392.197 20.3398 391.29 21.104 390.122 21.6568C388.988 22.1771 387.675 22.4372 386.167 22.4372ZM386.167 9.69028C386.945 9.69028 387.626 9.54396 388.242 9.23504C388.842 8.8936 389.312 8.43836 389.668 7.8693C390.009 7.31649 390.187 6.6824 390.187 5.98327C390.187 4.91019 389.798 4.03222 389.02 3.38186C388.274 2.69899 387.334 2.3413 386.167 2.3413C385 2.3413 384.027 2.69899 383.249 3.38186C382.503 4.03222 382.147 4.91019 382.147 5.98327C382.147 7.02384 382.503 7.91807 383.249 8.64972C384.027 9.34885 385 9.69028 386.167 9.69028ZM386.167 20.226C387.204 20.226 388.112 20.0634 388.89 19.7057C389.668 19.3155 390.268 18.7952 390.706 18.1449C391.127 17.4945 391.354 16.7791 391.354 15.9987C391.354 15.1858 391.111 14.4379 390.641 13.7875C390.203 13.1372 389.604 12.6169 388.826 12.2267C388.047 11.8364 387.156 11.6413 386.167 11.6413C385.162 11.6413 384.287 11.8364 383.508 12.2267C382.73 12.6169 382.114 13.1372 381.693 13.7875C381.255 14.4379 381.044 15.1858 381.044 15.9987C381.044 16.7791 381.255 17.4945 381.693 18.1449C382.114 18.7952 382.73 19.3155 383.508 19.7057C384.287 20.0634 385.162 20.226 386.167 20.226Z" fill="#E4D12C"/>
</svg>
