<svg width="35" height="32" viewBox="0 0 35 32" fill="none" xmlns="http://www.w3.org/2000/svg">
<path d="M11.3375 0.861589C5.14463 3.12764 0.5 8.97552 0.5 14.4579C0.5 17.6011 3.00662 22.7911 5.51325 24.6917C7.35635 26.1537 7.35635 26.2268 6.17677 28.7852C5.51325 30.1741 4.92345 31.4899 4.92345 31.7823C4.92345 32.5132 9.56808 31.2706 11.4849 30.0279C12.6645 29.2969 15.0237 28.8583 17.8252 28.7852C21.0691 28.7121 23.2808 28.2004 25.9349 26.8116C36.5511 21.4023 36.9935 8.31764 26.6721 2.32356C22.5435 -0.0155945 15.6135 -0.746578 11.3375 0.861589ZM22.9859 2.10426C26.967 3.20074 31.9065 8.17144 32.57 11.7533C33.4547 16.2854 32.3489 19.5748 28.9576 22.9373C25.5662 26.373 21.6589 27.7618 16.1295 27.5425C13.6966 27.4694 11.8535 27.908 9.9367 29.0776C6.84028 30.832 6.69283 30.7589 7.94615 28.0542C8.75711 26.373 8.53594 25.8613 5.80814 22.9373C0.794897 17.6011 0.721173 11.3878 5.51325 6.27088C9.78925 1.81187 16.2033 0.276802 22.9859 2.10426Z" fill="#BEBEBE"/>
<path d="M8.88724 10.072C8.88724 10.5106 12.3523 10.803 17.7341 10.803C23.116 10.803 26.5811 10.5106 26.5811 10.072C26.5811 9.6334 23.116 9.34101 17.7341 9.34101C12.3523 9.34101 8.88724 9.6334 8.88724 10.072Z" fill="#BEBEBE"/>
<path d="M5.93829 14.4579C5.93829 14.8965 8.73981 15.1889 12.9421 15.1889C17.1444 15.1889 19.9459 14.8965 19.9459 14.4579C19.9459 14.0193 17.1444 13.7269 12.9421 13.7269C8.73981 13.7269 5.93829 14.0193 5.93829 14.4579Z" fill="#BEBEBE"/>
<path d="M22.8949 14.4579C22.8949 14.8234 24.3694 15.1889 26.2125 15.1889C28.0556 15.1889 29.53 14.8234 29.53 14.4579C29.53 14.0193 28.0556 13.7269 26.2125 13.7269C24.3694 13.7269 22.8949 14.0193 22.8949 14.4579Z" fill="#BEBEBE"/>
<path d="M8.88724 18.8438C8.88724 19.2824 12.3523 19.5748 17.7341 19.5748C23.116 19.5748 26.5811 19.2824 26.5811 18.8438C26.5811 18.4053 23.116 18.1129 17.7341 18.1129C12.3523 18.1129 8.88724 18.4053 8.88724 18.8438Z" fill="#BEBEBE"/>
</svg>
