<svg width="32" height="32" viewBox="0 0 32 32" fill="none" xmlns="http://www.w3.org/2000/svg">
<path d="M10.3026 0.861589C4.41539 3.12764 0 8.97552 0 14.4579C0 17.6011 2.38291 22.7911 4.76582 24.6917C6.51796 26.1537 6.51796 26.2268 5.39659 28.7852C4.76582 30.1741 4.20514 31.4899 4.20514 31.7823C4.20514 32.5132 8.62053 31.2706 10.4428 30.0279C11.5641 29.2969 13.8069 28.8583 16.4701 28.7852C19.5539 28.7121 21.6565 28.2004 24.1795 26.8116C34.2719 21.4023 34.6924 8.31764 24.8804 2.32356C20.9556 -0.0155945 14.3675 -0.746578 10.3026 0.861589ZM21.3761 2.10426C25.1607 3.20074 29.8565 8.17144 30.4872 11.7533C31.3283 16.2854 30.277 19.5748 27.053 22.9373C23.8291 26.373 20.1146 27.7618 14.8581 27.5425C12.5453 27.4694 10.7932 27.908 8.97096 29.0776C6.02736 30.832 5.88719 30.7589 7.07865 28.0542C7.84959 26.373 7.63933 25.8613 5.04616 22.9373C0.280342 17.6011 0.210257 11.3878 4.76582 6.27088C8.83079 1.81187 14.9282 0.276802 21.3761 2.10426Z" fill="#1A1A1A"/>
<path d="M7.70941 10.072C7.70941 10.5106 11.0034 10.803 16.1197 10.803C21.2359 10.803 24.53 10.5106 24.53 10.072C24.53 9.6334 21.2359 9.34101 16.1197 9.34101C11.0034 9.34101 7.70941 9.6334 7.70941 10.072Z" fill="#1A1A1A"/>
<path d="M4.90601 14.458C4.90601 14.8966 7.56926 15.189 11.5641 15.189C15.559 15.189 18.2223 14.8966 18.2223 14.458C18.2223 14.0194 15.559 13.727 11.5641 13.727C7.56926 13.727 4.90601 14.0194 4.90601 14.458Z" fill="#1A1A1A"/>
<path d="M21.0257 14.458C21.0257 14.8235 22.4274 15.189 24.1795 15.189C25.9317 15.189 27.3334 14.8235 27.3334 14.458C27.3334 14.0194 25.9317 13.727 24.1795 13.727C22.4274 13.727 21.0257 14.0194 21.0257 14.458Z" fill="#1A1A1A"/>
<path d="M7.70941 18.8437C7.70941 19.2823 11.0034 19.5747 16.1197 19.5747C21.2359 19.5747 24.53 19.2823 24.53 18.8437C24.53 18.4051 21.2359 18.1127 16.1197 18.1127C11.0034 18.1127 7.70941 18.4051 7.70941 18.8437Z" fill="#1A1A1A"/>
</svg>
