<svg width="32" height="32" viewBox="0 0 32 32" fill="none" xmlns="http://www.w3.org/2000/svg">
<mask id="mask0_66_139" style="mask-type:luminance" maskUnits="userSpaceOnUse" x="0" y="0" width="32" height="32">
<path d="M0 0H32V32H0V0Z" fill="white"/>
</mask>
<g mask="url(#mask0_66_139)">
<path d="M7.20304 0H24.798C26.7861 0 28.5869 0.806732 29.9001 2.11944C31.1944 3.41368 32.0195 5.23344 32.0195 7.20304V24.7975C32.0195 26.7861 31.1944 28.5869 29.9001 29.8996C28.5869 31.1944 26.7861 32.0195 24.798 32.0195H7.20304C5.23344 32.0195 3.41422 31.1944 2.11944 29.8996C0.806732 28.5869 0 26.7861 0 24.7975V7.20304C0 5.23344 0.806732 3.41368 2.11944 2.11944C3.41422 0.806732 5.23344 0 7.20304 0ZM24.798 2.85125H7.20304C6.00271 2.85125 4.91477 3.33876 4.12649 4.12649C3.33876 4.91422 2.85125 6.00217 2.85125 7.20304V24.7975C2.85125 25.9984 3.33876 27.0863 4.12649 27.874C4.91477 28.6808 6.00271 29.1683 7.20304 29.1683H24.798C25.9984 29.1683 27.0863 28.6808 27.874 27.874C28.6808 27.0863 29.1683 25.9984 29.1683 24.7975V7.20304C29.1683 6.00217 28.6808 4.91422 27.874 4.12649C27.0863 3.33876 25.9984 2.85125 24.798 2.85125Z" fill="#E4D12C"/>
</g>
<path d="M24.9854 5.5896C25.3795 5.5896 25.7547 5.73998 25.9984 6.00219C26.2612 6.26495 26.43 6.62163 26.43 7.01522C26.43 7.40936 26.2612 7.7845 25.9984 8.02825C25.7547 8.29101 25.3795 8.45985 24.9854 8.45985C24.5918 8.45985 24.2351 8.29101 23.9723 8.02825C23.7101 7.7845 23.5598 7.40936 23.5598 7.01522C23.5598 6.62163 23.7101 6.26495 23.9723 6.00219C24.2351 5.73998 24.5918 5.5896 24.9854 5.5896Z" fill="#E4D12C"/>
<path d="M16.0006 8.2345C18.1575 8.2345 20.0896 9.11615 21.4962 10.5043C22.9034 11.9109 23.785 13.8621 23.785 16.0005C23.785 18.1574 22.9034 20.0895 21.4962 21.4962C20.0896 22.9033 18.1575 23.785 16.0006 23.785C13.8621 23.785 11.911 22.9033 10.5044 21.4962C9.11621 20.0895 8.23456 18.1574 8.23456 16.0005C8.23456 13.8621 9.11621 11.9109 10.5044 10.5043C11.911 9.11615 13.8621 8.2345 16.0006 8.2345ZM19.4707 12.5488C18.5891 11.6672 17.3513 11.1042 16.0006 11.1042C14.6499 11.1042 13.4305 11.6672 12.5489 12.5488C11.6672 13.4305 11.1048 14.6498 11.1048 16.0005C11.1048 17.3507 11.6672 18.589 12.5489 19.4707C13.4305 20.3523 14.6499 20.8963 16.0006 20.8963C17.3513 20.8963 18.5891 20.3523 19.4707 19.4707C20.3524 18.589 20.8963 17.3507 20.8963 16.0005C20.8963 14.6498 20.3524 13.4305 19.4707 12.5488Z" fill="#E4D12C"/>
</svg>
