<svg width="277" height="189" viewBox="0 0 277 189" fill="none" xmlns="http://www.w3.org/2000/svg">
<path d="M98.6689 144.869V0H112.053L172.856 135.56H173.027L233.616 0H247V144.869H238.534V10.1241H238.149L178.201 144.869H167.682L107.52 10.1241H107.135V144.869H98.6689Z" fill="#2C2C2C"/>
<path d="M29 144.869V0H42.3836L103.187 135.56H103.358L163.948 0H177.331V144.869H168.865V10.1241H168.48L108.532 144.869H98.0131L37.8511 10.1241H37.4663V144.869H29Z" fill="#2C2C2C"/>
<path d="M0 188.299V169.674H3.151L9.95716 185.897L16.7213 169.674H19.9143V188.299H17.7296V172.834H17.6456L11.0915 188.299H8.78078L2.22671 172.877H2.18469V188.299H0Z" fill="#2C2C2C"/>
<path d="M21.7185 188.299L28.9448 169.674H31.5916L38.7339 188.299H36.4232L34.7426 183.832H25.7938L24.0713 188.299H21.7185ZM26.424 181.894H34.0704L30.2892 171.823H30.2472L26.424 181.894Z" fill="#2C2C2C"/>
<path d="M53.9994 188.847C53.2642 188.847 52.676 188.647 52.2349 188.257C51.8147 187.836 51.4996 187.309 51.3106 186.656L50.1762 182.737C50.0082 182.063 49.672 181.515 49.1679 181.093C48.6637 180.651 48.086 180.419 47.4453 180.419H42.7819V188.299H40.5972V169.674H48.9158C50.1972 169.674 51.3316 169.916 52.3189 170.39C53.2957 170.843 54.0624 171.475 54.6296 172.287C55.2178 173.077 55.5119 173.993 55.5119 175.026C55.5119 176.29 55.0603 177.385 54.1675 178.312C53.2642 179.239 52.0353 179.808 50.4703 179.998V180.04C50.9745 180.293 51.3736 180.63 51.6887 181.051C51.9933 181.473 52.2349 181.968 52.4029 182.526L53.3272 185.897C53.4112 186.213 53.5373 186.477 53.7053 186.698C53.8944 186.898 54.136 186.993 54.4196 186.993C54.7241 186.993 55.0182 186.887 55.3018 186.656C55.6064 186.434 55.8585 186.139 56.0581 185.771L57.1924 187.077C56.7933 187.583 56.3312 188.004 55.806 188.341C55.2703 188.678 54.6716 188.847 53.9994 188.847ZM42.7819 178.481H48.9158C50.1972 178.481 51.2475 178.175 52.0668 177.554C52.8756 176.911 53.2852 176.079 53.2852 175.068C53.2852 174.056 52.8756 173.235 52.0668 172.582C51.2475 171.939 50.1972 171.612 48.9158 171.612H42.7819V178.481Z" fill="#2C2C2C"/>
<path d="M58.7632 188.299V169.674H60.9479V188.299H58.7632Z" fill="#2C2C2C"/>
<path d="M62.7633 188.299L69.9896 169.674H72.6364L79.7787 188.299H77.468L75.7874 183.832H66.8386L65.1161 188.299H62.7633ZM67.4688 181.894H75.1152L71.334 171.823H71.292L67.4688 181.894Z" fill="#2C2C2C"/>
<path d="M88.803 188.299V169.674H90.9877V186.361H100.483V188.299H88.803Z" fill="#2C2C2C"/>
<path d="M109.604 188.973C108.091 188.973 106.757 188.647 105.612 188.004C104.489 187.361 103.606 186.466 102.966 185.307C102.346 184.159 102.041 182.821 102.041 181.304V169.674H104.226V181.304C104.226 182.347 104.447 183.306 104.898 184.17C105.339 185.044 105.959 185.729 106.747 186.234C107.556 186.74 108.511 186.993 109.604 186.993C110.696 186.993 111.631 186.761 112.419 186.276C113.196 185.802 113.805 185.139 114.225 184.296C114.666 183.432 114.897 182.431 114.897 181.304V169.674H117.124V181.304C117.124 182.821 116.798 184.159 116.158 185.307C115.507 186.466 114.624 187.361 113.511 188.004C112.387 188.647 111.085 188.973 109.604 188.973Z" fill="#2C2C2C"/>
<path d="M120.028 188.299V169.674H122.212V188.299H120.028Z" fill="#2C2C2C"/>
<path d="M124.028 188.299V186.234L136.044 171.528H124.322V169.674H138.438V171.739L126.506 186.487H138.69V188.299H124.028Z" fill="#2C2C2C"/>
<path d="M139.192 188.299L146.419 169.674H149.066L156.208 188.299H153.897L152.217 183.832H143.268L141.545 188.299H139.192ZM143.898 181.894H151.544L147.763 171.823H147.721L143.898 181.894Z" fill="#2C2C2C"/>
<path d="M165.232 188.299V169.674H168.383L175.189 185.897L181.953 169.674H185.146V188.299H182.962V172.834H182.878L176.324 188.299H174.013L167.459 172.877H167.417V188.299H165.232Z" fill="#2C2C2C"/>
<path d="M195.563 188.973C194.051 188.973 192.717 188.647 191.572 188.004C190.448 187.361 189.566 186.466 188.925 185.307C188.306 184.159 188.001 182.821 188.001 181.304V169.674H190.186V181.304C190.186 182.347 190.406 183.306 190.858 184.17C191.299 185.044 191.919 185.729 192.706 186.234C193.515 186.74 194.471 186.993 195.563 186.993C196.656 186.993 197.591 186.761 198.378 186.276C199.156 185.802 199.765 185.139 200.185 184.296C200.626 183.432 200.857 182.431 200.857 181.304V169.674H203.084V181.304C203.084 182.821 202.758 184.159 202.117 185.307C201.466 186.466 200.584 187.361 199.471 188.004C198.347 188.647 197.044 188.973 195.563 188.973Z" fill="#2C2C2C"/>
<path d="M205.987 188.299V169.674H208.886L218.423 185.476H218.465V169.674H220.65V188.299H217.751L208.214 172.539H208.172V188.299H205.987Z" fill="#2C2C2C"/>
<path d="M223.837 188.299V169.674H226.022V177.638H236.273V169.674H238.458V188.299H236.273V179.576H226.022V188.299H223.837Z" fill="#2C2C2C"/>
<path d="M250.962 188.973C248.945 188.973 247.181 188.563 245.668 187.751C244.177 186.909 243.021 185.75 242.181 184.254C241.362 182.769 240.963 181.009 240.963 178.987C240.963 176.996 241.362 175.257 242.181 173.762C243.021 172.245 244.177 171.086 245.668 170.264C247.181 169.421 248.945 169 250.962 169C252.978 169 254.722 169.421 256.213 170.264C257.726 171.086 258.881 172.245 259.701 173.762C260.541 175.257 260.961 176.996 260.961 178.987C260.961 181.009 260.541 182.769 259.701 184.254C258.881 185.75 257.726 186.909 256.213 187.751C254.722 188.563 252.978 188.973 250.962 188.973ZM250.962 186.993C252.527 186.993 253.882 186.677 255.037 186.024C256.213 185.35 257.117 184.412 257.768 183.2C258.409 182 258.734 180.588 258.734 178.987C258.734 177.385 258.409 175.984 257.768 174.773C257.117 173.572 256.213 172.645 255.037 171.992C253.882 171.318 252.527 170.98 250.962 170.98C249.386 170.98 248.021 171.318 246.845 171.992C245.668 172.645 244.754 173.572 244.114 174.773C243.462 175.984 243.147 177.385 243.147 178.987C243.147 180.588 243.462 182 244.114 183.2C244.754 184.412 245.668 185.35 246.845 186.024C248.021 186.677 249.386 186.993 250.962 186.993Z" fill="#2C2C2C"/>
<path d="M262.116 188.299V186.234L274.132 171.528H262.41V169.674H276.527V171.739L264.595 186.487H276.779V188.299H262.116Z" fill="#2C2C2C"/>
</svg>
