<svg width="429" height="201" viewBox="0 0 429 201" fill="none" xmlns="http://www.w3.org/2000/svg">
<path d="M182.133 106.018V0H191.956L236.582 99.2058H236.708L281.177 0H291V106.018H284.786V7.40904H284.504L240.505 106.018H232.785L188.629 7.40904H188.347V106.018H182.133Z" fill="#E4D12C"/>
<path d="M131 106.018V0H140.823L185.449 99.2058H185.575L230.044 0H239.867V106.018H233.653V7.40904H233.371L189.372 106.018H181.652L137.496 7.40904H137.214V106.018H131Z" fill="#E4D12C"/>
<path d="M0 154.786V126.041H4.87734L15.4124 151.079L25.8824 126.041H30.8248V154.786H27.4431V130.918H27.3131L17.1682 154.786H13.5915L3.44665 130.983H3.38162V154.786H0Z" fill="#E4D12C"/>
<path d="M33.6174 154.786L44.8028 126.041H48.8998L59.955 154.786H56.3783L53.7771 147.892H39.9255L37.2592 154.786H33.6174ZM40.9009 144.901H52.7366L46.8838 129.357H46.8188L40.9009 144.901Z" fill="#E4D12C"/>
<path d="M83.584 155.632C82.446 155.632 81.5356 155.323 80.8527 154.721C80.2024 154.071 79.7147 153.258 79.4221 152.25L77.6662 146.201C77.4061 145.161 76.8858 144.315 76.1055 143.665C75.3251 142.982 74.4309 142.625 73.4392 142.625H66.2207V154.786H62.8391V126.041H75.7153C77.6987 126.041 79.4546 126.414 80.9828 127.146C82.4948 127.845 83.6816 128.821 84.5595 130.073C85.47 131.292 85.9252 132.707 85.9252 134.3C85.9252 136.251 85.2261 137.942 83.8442 139.373C82.446 140.804 80.5438 141.682 78.1214 141.974V142.039C78.9018 142.429 79.5196 142.95 80.0073 143.6C80.4788 144.25 80.8527 145.015 81.1129 145.876L82.5436 151.079C82.6736 151.567 82.8687 151.973 83.1288 152.315C83.4215 152.624 83.7954 152.77 84.2344 152.77C84.7058 152.77 85.1611 152.607 85.6 152.25C86.0715 151.908 86.4617 151.453 86.7706 150.884L88.5264 152.9C87.9086 153.681 87.1933 154.331 86.3804 154.851C85.5512 155.371 84.6245 155.632 83.584 155.632ZM66.2207 139.633H75.7153C77.6987 139.633 79.3245 139.161 80.5926 138.202C81.8445 137.21 82.4785 135.926 82.4785 134.365C82.4785 132.804 81.8445 131.536 80.5926 130.528C79.3245 129.536 77.6987 129.032 75.7153 129.032H66.2207V139.633Z" fill="#E4D12C"/>
<path d="M90.9578 154.786V126.041H94.3394V154.786H90.9578Z" fill="#E4D12C"/>
<path d="M97.1494 154.786L108.335 126.041H112.432L123.487 154.786H119.91L117.309 147.892H103.457L100.791 154.786H97.1494ZM104.433 144.901H116.269L110.416 129.357H110.351L104.433 144.901Z" fill="#E4D12C"/>
<path d="M137.456 154.786V126.041H140.837V151.794H155.534V154.786H137.456Z" fill="#E4D12C"/>
<path d="M169.652 155.827C167.311 155.827 165.246 155.323 163.474 154.331C161.735 153.339 160.369 151.957 159.377 150.169C158.418 148.396 157.947 146.332 157.947 143.99V126.041H161.328V143.99C161.328 145.6 161.67 147.079 162.369 148.413C163.051 149.762 164.011 150.819 165.23 151.599C166.482 152.38 167.961 152.77 169.652 152.77C171.343 152.77 172.79 152.412 174.009 151.664C175.212 150.933 176.155 149.908 176.806 148.608C177.488 147.275 177.846 145.73 177.846 143.99V126.041H181.293V143.99C181.293 146.332 180.789 148.396 179.797 150.169C178.789 151.957 177.423 153.339 175.7 154.331C173.96 155.323 171.944 155.827 169.652 155.827Z" fill="#E4D12C"/>
<path d="M185.787 154.786V126.041H189.169V154.786H185.787Z" fill="#E4D12C"/>
<path d="M191.979 154.786V151.599L210.578 128.902H192.434V126.041H214.284V129.227L195.816 151.99H214.675V154.786H191.979Z" fill="#E4D12C"/>
<path d="M215.452 154.786L226.637 126.041H230.734L241.789 154.786H238.213L235.611 147.892H221.76L219.093 154.786H215.452ZM222.735 144.901H234.571L228.718 129.357H228.653L222.735 144.901Z" fill="#E4D12C"/>
<path d="M255.758 154.786V126.041H260.635L271.17 151.079L281.64 126.041H286.583V154.786H283.201V130.918H283.071L272.926 154.786H269.349L259.204 130.983H259.139V154.786H255.758Z" fill="#E4D12C"/>
<path d="M302.707 155.827C300.365 155.827 298.301 155.323 296.529 154.331C294.789 153.339 293.423 151.957 292.432 150.169C291.472 148.396 291.001 146.332 291.001 143.99V126.041H294.383V143.99C294.383 145.6 294.724 147.079 295.423 148.413C296.106 149.762 297.065 150.819 298.284 151.599C299.536 152.38 301.016 152.77 302.707 152.77C304.397 152.77 305.844 152.412 307.064 151.664C308.267 150.933 309.21 149.908 309.86 148.608C310.543 147.275 310.901 145.73 310.901 143.99V126.041H314.347V143.99C314.347 146.332 313.843 148.396 312.851 150.169C311.843 151.957 310.478 153.339 308.754 154.331C307.015 155.323 304.999 155.827 302.707 155.827Z" fill="#E4D12C"/>
<path d="M318.841 154.786V126.041H323.328L338.091 150.429H338.156V126.041H341.537V154.786H337.05L322.288 130.463H322.223V154.786H318.841Z" fill="#E4D12C"/>
<path d="M346.471 154.786V126.041H349.853V138.332H365.72V126.041H369.102V154.786H365.72V141.324H349.853V154.786H346.471Z" fill="#E4D12C"/>
<path d="M388.456 155.827C385.335 155.827 382.603 155.193 380.262 153.941C377.954 152.64 376.165 150.852 374.865 148.543C373.597 146.25 372.979 143.535 372.979 140.413C372.979 137.34 373.597 134.658 374.865 132.349C376.165 130.008 377.954 128.219 380.262 126.951C382.603 125.65 385.335 125 388.456 125C391.578 125 394.276 125.65 396.585 126.951C398.926 128.219 400.715 130.008 401.983 132.349C403.283 134.658 403.934 137.34 403.934 140.413C403.934 143.535 403.283 146.25 401.983 148.543C400.715 150.852 398.926 152.64 396.585 153.941C394.276 155.193 391.578 155.827 388.456 155.827ZM388.456 152.77C390.879 152.77 392.976 152.282 394.764 151.274C396.585 150.234 397.983 148.787 398.991 146.917C399.983 145.063 400.487 142.885 400.487 140.413C400.487 137.942 399.983 135.78 398.991 133.91C397.983 132.056 396.585 130.626 394.764 129.618C392.976 128.577 390.879 128.057 388.456 128.057C386.018 128.057 383.904 128.577 382.083 129.618C380.262 130.626 378.848 132.056 377.856 133.91C376.848 135.78 376.36 137.942 376.36 140.413C376.36 142.885 376.848 145.063 377.856 146.917C378.848 148.787 380.262 150.234 382.083 151.274C383.904 152.282 386.018 152.77 388.456 152.77Z" fill="#E4D12C"/>
<path d="M405.721 154.786V151.599L424.32 128.902H406.177V126.041H428.027V129.227L409.558 151.99H428.417V154.786H405.721Z" fill="#E4D12C"/>
<path d="M22.7878 194.307C21.6497 194.307 20.658 194.112 19.7963 193.722C18.9184 193.38 18.2356 192.86 17.7153 192.161C17.2276 191.478 17 190.698 17 189.82C17 188.617 17.5202 187.576 18.5607 186.698C19.6012 185.787 21.3246 185.186 23.7632 184.877L27.47 184.487C27.8114 184.454 28.0878 184.324 28.3154 184.097C28.5268 183.885 28.6406 183.625 28.6406 183.316C28.6406 182.373 28.2179 181.625 27.405 181.105C26.6246 180.552 25.5841 180.259 24.2835 180.259C23.3731 180.259 22.5439 180.438 21.8123 180.78C21.0644 181.089 20.4792 181.528 20.0565 182.08C19.6175 182.65 19.4062 183.235 19.4062 183.836L17.3252 182.926C17.4064 182.113 17.7479 181.349 18.3657 180.65C19.016 179.918 19.8614 179.333 20.9019 178.894C21.9424 178.422 23.0804 178.178 24.3485 178.178C25.6491 178.178 26.7709 178.422 27.7301 178.894C28.7219 179.333 29.486 179.967 30.0062 180.78C30.559 181.56 30.8516 182.519 30.8516 183.641V191.25C30.8516 191.559 30.9167 191.803 31.0467 191.966C31.2093 192.145 31.4369 192.226 31.697 192.226C32.1197 192.226 32.5099 191.95 32.8676 191.381L34.1032 192.746C33.7943 193.234 33.3553 193.592 32.8026 193.852C32.2335 194.145 31.6645 194.307 31.1118 194.307C30.3639 194.307 29.7786 194.079 29.3559 193.657C28.917 193.185 28.6731 192.6 28.6406 191.901L28.5755 191.25C28.0553 192.21 27.2912 192.974 26.2995 193.527C25.2915 194.047 24.1209 194.307 22.7878 194.307ZM23.178 192.291C24.2185 192.291 25.1452 192.08 25.9743 191.641C26.7872 191.218 27.4212 190.633 27.8602 189.885C28.3317 189.153 28.5755 188.308 28.5755 187.348V186.243L23.9583 186.828C22.17 187.056 20.9344 187.446 20.2516 187.999C19.6012 188.519 19.2761 189.104 19.2761 189.755C19.2761 190.535 19.6175 191.169 20.3166 191.641C21.0482 192.08 22.0074 192.291 23.178 192.291Z" fill="#BEBEBE"/>
<path d="M42.6101 194.307C41.1306 194.307 39.8138 193.949 38.6432 193.267C37.5052 192.584 36.6272 191.624 35.9769 190.405C35.3266 189.202 35.0015 187.804 35.0015 186.243C35.0015 184.682 35.3266 183.3 35.9769 182.08C36.6272 180.877 37.5052 179.918 38.6432 179.219C39.765 178.536 41.0656 178.178 42.5451 178.178C43.7969 178.178 44.9025 178.471 45.8617 179.024C46.8534 179.544 47.6825 180.308 48.3329 181.3V172H50.6089V193.722H48.658L48.4629 191.12H48.3979C47.7801 192.128 46.9672 192.909 45.9267 193.462C44.9187 194.014 43.8132 194.307 42.6101 194.307ZM42.8702 192.291C43.9432 192.291 44.9025 192.031 45.7316 191.511C46.5445 190.958 47.1948 190.21 47.6825 189.299C48.2028 188.389 48.4629 187.381 48.4629 186.243C48.4629 185.121 48.2028 184.129 47.6825 183.251C47.1948 182.341 46.5445 181.625 45.7316 181.105C44.9025 180.552 43.9432 180.259 42.8702 180.259C41.781 180.259 40.8055 180.552 39.9438 181.105C39.1147 181.625 38.4481 182.341 37.9279 183.251C37.4401 184.129 37.2125 185.121 37.2125 186.243C37.2125 187.413 37.4401 188.454 37.9279 189.364C38.4481 190.275 39.1147 190.99 39.9438 191.511C40.8055 192.031 41.781 192.291 42.8702 192.291Z" fill="#BEBEBE"/>
<path d="M58.3356 193.722L52.4177 178.764H54.8239L59.7662 191.771H59.8313L64.7736 178.764H67.1798L61.262 193.722H58.3356Z" fill="#BEBEBE"/>
<path d="M76.278 194.307C74.6685 194.307 73.2541 193.982 72.051 193.332C70.8805 192.649 69.97 191.706 69.3197 190.535C68.6694 189.332 68.3442 187.901 68.3442 186.243C68.3442 184.649 68.6694 183.235 69.3197 182.015C69.97 180.812 70.8805 179.869 72.051 179.219C73.2541 178.536 74.6685 178.178 76.278 178.178C77.8713 178.178 79.2695 178.536 80.44 179.219C81.6431 179.869 82.5861 180.812 83.2364 182.015C83.9192 183.235 84.2769 184.649 84.2769 186.243C84.2769 187.901 83.9192 189.332 83.2364 190.535C82.5861 191.706 81.6431 192.649 80.44 193.332C79.2695 193.982 77.8713 194.307 76.278 194.307ZM76.278 192.291C78.0014 192.291 79.3995 191.754 80.44 190.665C81.4805 189.543 82.0008 188.064 82.0008 186.243C82.0008 184.422 81.4805 182.975 80.44 181.885C79.3995 180.812 78.0014 180.259 76.278 180.259C74.5385 180.259 73.1565 180.812 72.116 181.885C71.0755 182.975 70.5553 184.422 70.5553 186.243C70.5553 188.064 71.0755 189.543 72.116 190.665C73.1565 191.754 74.5385 192.291 76.278 192.291Z" fill="#BEBEBE"/>
<path d="M93.0734 200.551C91.9354 200.551 90.8298 200.372 89.7568 200.03C88.6675 199.673 87.6921 199.201 86.8304 198.599C86.0013 197.982 85.3347 197.299 84.8145 196.518L86.5703 195.023C87.1718 196.063 88.066 196.876 89.2366 197.494C90.4071 198.144 91.659 198.469 93.0084 198.469C94.2602 198.469 95.3495 198.225 96.2599 197.754C97.1704 197.266 97.8857 196.583 98.406 195.673C98.9262 194.795 99.1863 193.754 99.1863 192.551V190.86C98.5685 191.82 97.7231 192.584 96.6501 193.136C95.6096 193.657 94.5691 193.917 93.5286 193.917C92.0492 193.917 90.7485 193.592 89.6268 192.941C88.4887 192.291 87.6108 191.381 86.9605 190.21C86.3427 189.039 86.05 187.706 86.05 186.178C86.05 184.584 86.3427 183.186 86.9605 182.015C87.6108 180.845 88.4887 179.934 89.6268 179.284C90.7485 178.601 92.0492 178.243 93.5286 178.243C94.6016 178.243 95.6747 178.536 96.7152 179.089C97.7557 179.658 98.5685 180.373 99.1863 181.235H99.2514L99.4465 178.764H101.462V192.551C101.462 194.145 101.105 195.543 100.422 196.713C99.7228 197.917 98.7474 198.86 97.4955 199.51C96.2274 200.193 94.7642 200.551 93.0734 200.551ZM93.7888 191.836C94.8618 191.836 95.821 191.608 96.6501 191.12C97.463 190.6 98.0971 189.933 98.536 189.104C99.0075 188.243 99.2514 187.267 99.2514 186.178C99.2514 185.056 99.0075 184.064 98.536 183.186C98.0971 182.276 97.463 181.56 96.6501 181.04C95.821 180.52 94.8618 180.26 93.7888 180.26C92.6995 180.26 91.7403 180.52 90.9274 181.04C90.0982 181.528 89.4479 182.211 88.9764 183.121C88.5375 183.999 88.3261 185.007 88.3261 186.178C88.3261 187.267 88.5375 188.243 88.9764 189.104C89.4479 189.982 90.0982 190.649 90.9274 191.12C91.7403 191.608 92.6995 191.836 93.7888 191.836Z" fill="#BEBEBE"/>
<path d="M109.307 194.307C108.169 194.307 107.178 194.112 106.316 193.722C105.438 193.38 104.755 192.86 104.235 192.161C103.747 191.478 103.52 190.698 103.52 189.82C103.52 188.617 104.04 187.576 105.08 186.698C106.121 185.787 107.844 185.186 110.283 184.877L113.99 184.487C114.331 184.454 114.607 184.324 114.835 184.097C115.046 183.885 115.16 183.625 115.16 183.316C115.16 182.373 114.737 181.625 113.925 181.105C113.144 180.552 112.104 180.259 110.803 180.259C109.893 180.259 109.063 180.438 108.332 180.78C107.584 181.089 106.999 181.528 106.576 182.08C106.137 182.65 105.926 183.235 105.926 183.836L103.845 182.926C103.926 182.113 104.267 181.349 104.885 180.65C105.535 179.918 106.381 179.333 107.421 178.894C108.462 178.422 109.6 178.178 110.868 178.178C112.169 178.178 113.29 178.422 114.25 178.894C115.241 179.333 116.006 179.967 116.526 180.78C117.079 181.56 117.371 182.519 117.371 183.641V191.25C117.371 191.559 117.436 191.803 117.566 191.966C117.729 192.145 117.956 192.226 118.217 192.226C118.639 192.226 119.029 191.95 119.387 191.381L120.623 192.746C120.314 193.234 119.875 193.592 119.322 193.852C118.753 194.145 118.184 194.307 117.631 194.307C116.883 194.307 116.298 194.079 115.875 193.657C115.436 193.185 115.193 192.6 115.16 191.901L115.095 191.25C114.575 192.21 113.811 192.974 112.819 193.527C111.811 194.047 110.64 194.307 109.307 194.307ZM109.697 192.291C110.738 192.291 111.665 192.08 112.494 191.641C113.307 191.218 113.941 190.633 114.38 189.885C114.851 189.153 115.095 188.308 115.095 187.348V186.243L110.478 186.828C108.69 187.056 107.454 187.446 106.771 187.999C106.121 188.519 105.796 189.104 105.796 189.755C105.796 190.535 106.137 191.169 106.836 191.641C107.568 192.08 108.527 192.291 109.697 192.291Z" fill="#BEBEBE"/>
<path d="M129.13 194.307C127.65 194.307 126.333 193.949 125.163 193.267C124.025 192.584 123.147 191.624 122.496 190.405C121.846 189.202 121.521 187.804 121.521 186.243C121.521 184.682 121.846 183.3 122.496 182.08C123.147 180.877 124.025 179.918 125.163 179.219C126.285 178.536 127.585 178.178 129.065 178.178C130.316 178.178 131.422 178.471 132.381 179.024C133.373 179.544 134.202 180.308 134.852 181.3V172H137.128V193.722H135.178L134.982 191.12H134.917C134.3 192.128 133.487 192.909 132.446 193.462C131.438 194.014 130.333 194.307 129.13 194.307ZM129.39 192.291C130.463 192.291 131.422 192.031 132.251 191.511C133.064 190.958 133.714 190.21 134.202 189.299C134.722 188.389 134.982 187.381 134.982 186.243C134.982 185.121 134.722 184.129 134.202 183.251C133.714 182.341 133.064 181.625 132.251 181.105C131.422 180.552 130.463 180.259 129.39 180.259C128.3 180.259 127.325 180.552 126.463 181.105C125.634 181.625 124.968 182.341 124.447 183.251C123.96 184.129 123.732 185.121 123.732 186.243C123.732 187.413 123.96 188.454 124.447 189.364C124.968 190.275 125.634 190.99 126.463 191.511C127.325 192.031 128.3 192.291 129.39 192.291Z" fill="#BEBEBE"/>
<path d="M144.985 194.307C143.847 194.307 142.855 194.112 141.994 193.722C141.116 193.38 140.433 192.86 139.913 192.161C139.425 191.478 139.197 190.698 139.197 189.82C139.197 188.617 139.718 187.576 140.758 186.698C141.799 185.787 143.522 185.186 145.961 184.877L149.667 184.487C150.009 184.454 150.285 184.324 150.513 184.097C150.724 183.885 150.838 183.625 150.838 183.316C150.838 182.373 150.415 181.625 149.602 181.105C148.822 180.552 147.781 180.259 146.481 180.259C145.57 180.259 144.741 180.438 144.01 180.78C143.262 181.089 142.676 181.528 142.254 182.08C141.815 182.65 141.603 183.235 141.603 183.836L139.522 182.926C139.604 182.113 139.945 181.349 140.563 180.65C141.213 179.918 142.059 179.333 143.099 178.894C144.14 178.422 145.278 178.178 146.546 178.178C147.846 178.178 148.968 178.422 149.927 178.894C150.919 179.333 151.683 179.967 152.203 180.78C152.756 181.56 153.049 182.519 153.049 183.641V191.25C153.049 191.559 153.114 191.803 153.244 191.966C153.407 192.145 153.634 192.226 153.894 192.226C154.317 192.226 154.707 191.95 155.065 191.381L156.3 192.746C155.992 193.234 155.553 193.592 155 193.852C154.431 194.145 153.862 194.307 153.309 194.307C152.561 194.307 151.976 194.079 151.553 193.657C151.114 193.185 150.87 192.6 150.838 191.901L150.773 191.25C150.253 192.21 149.488 192.974 148.497 193.527C147.489 194.047 146.318 194.307 144.985 194.307ZM145.375 192.291C146.416 192.291 147.342 192.08 148.172 191.641C148.984 191.218 149.619 190.633 150.057 189.885C150.529 189.153 150.773 188.308 150.773 187.348V186.243L146.156 186.828C144.367 187.056 143.132 187.446 142.449 187.999C141.799 188.519 141.473 189.104 141.473 189.755C141.473 190.535 141.815 191.169 142.514 191.641C143.245 192.08 144.205 192.291 145.375 192.291Z" fill="#BEBEBE"/>
<path d="M189.265 194.437C187.054 194.437 185.103 193.982 183.412 193.071C181.721 192.161 180.388 190.893 179.445 189.234C178.535 187.543 178.08 185.576 178.08 183.316C178.08 181.072 178.535 179.121 179.445 177.463C180.388 175.772 181.721 174.471 183.412 173.561C185.103 172.618 187.054 172.13 189.265 172.13C191.557 172.13 193.557 172.618 195.248 173.561C196.939 174.471 198.239 175.772 199.15 177.463C200.06 179.121 200.515 181.072 200.515 183.316C200.515 185.576 200.06 187.543 199.15 189.234C198.239 190.893 196.939 192.161 195.248 193.071C193.557 193.982 191.557 194.437 189.265 194.437ZM189.265 192.291C191.037 192.291 192.582 191.933 193.882 191.185C195.215 190.405 196.24 189.348 196.939 187.999C197.67 186.666 198.044 185.105 198.044 183.316C198.044 181.495 197.67 179.918 196.939 178.569C196.24 177.235 195.215 176.195 193.882 175.447C192.582 174.715 191.037 174.341 189.265 174.341C187.525 174.341 185.981 174.715 184.648 175.447C183.347 176.195 182.323 177.235 181.591 178.569C180.892 179.918 180.551 181.495 180.551 183.316C180.551 185.105 180.892 186.666 181.591 187.999C182.323 189.348 183.347 190.405 184.648 191.185C185.981 191.933 187.525 192.291 189.265 192.291Z" fill="#BEBEBE"/>
<path d="M201.869 193.722L209.933 172.845H212.924L220.923 193.722H218.322L216.436 188.714H206.421L204.47 193.722H201.869ZM207.136 186.503H215.72L211.428 175.317L207.136 186.503Z" fill="#BEBEBE"/>
<path d="M222.986 193.722V172.845H232.545C234.626 172.845 236.219 173.349 237.357 174.341C238.479 175.301 239.048 176.683 239.048 178.504C239.048 179.642 238.756 180.585 238.203 181.365C237.634 182.146 236.837 182.666 235.797 182.926C237.049 183.186 238.008 183.755 238.658 184.617C239.341 185.495 239.699 186.568 239.699 187.869C239.699 189.738 239.065 191.185 237.813 192.226C236.593 193.234 234.854 193.722 232.61 193.722H222.986ZM225.457 181.885H232.285C233.667 181.885 234.724 181.609 235.472 181.04C236.252 180.438 236.642 179.593 236.642 178.504C236.642 177.43 236.252 176.585 235.472 175.967C234.724 175.366 233.667 175.057 232.285 175.057H225.457V181.885ZM225.457 191.511H232.285C233.846 191.511 235.049 191.185 235.927 190.535C236.837 189.885 237.292 188.974 237.292 187.804C237.292 186.633 236.837 185.722 235.927 185.072C235.049 184.422 233.846 184.097 232.285 184.097H225.457V191.511Z" fill="#BEBEBE"/>
<path d="M258.256 194.437C256.646 194.437 255.199 194.128 253.899 193.527C252.598 192.925 251.525 192.08 250.712 190.99C249.883 189.868 249.379 188.584 249.217 187.153L251.623 186.698C251.704 187.787 252.029 188.763 252.598 189.625C253.2 190.454 253.98 191.104 254.939 191.576C255.931 192.063 257.037 192.291 258.256 192.291C259.898 192.291 261.182 191.901 262.093 191.12C263.036 190.34 263.523 189.397 263.523 188.259C263.523 187.316 263.166 186.552 262.483 185.983C261.784 185.43 260.678 184.975 259.166 184.617L255.85 183.836C253.98 183.414 252.598 182.763 251.688 181.885C250.81 181.024 250.387 179.902 250.387 178.504C250.387 177.252 250.663 176.146 251.233 175.187C251.834 174.244 252.663 173.496 253.704 172.976C254.777 172.423 256.045 172.13 257.476 172.13C258.727 172.13 259.849 172.39 260.857 172.911C261.898 173.398 262.743 174.081 263.393 174.992C264.076 175.87 264.531 176.861 264.759 177.983L262.418 178.569C262.288 177.317 261.768 176.292 260.857 175.512C259.947 174.732 258.809 174.341 257.476 174.341C256.045 174.341 254.907 174.715 254.094 175.447C253.265 176.146 252.858 177.04 252.858 178.113C252.858 178.991 253.135 179.707 253.704 180.26C254.305 180.78 255.264 181.203 256.565 181.495L259.947 182.211C263.979 183.121 265.995 185.007 265.995 187.869C265.995 189.137 265.669 190.259 265.019 191.25C264.401 192.259 263.523 193.039 262.353 193.592C261.182 194.145 259.817 194.437 258.256 194.437Z" fill="#BEBEBE"/>
<path d="M268.329 193.722V172.845H276.913C278.377 172.845 279.677 173.138 280.815 173.691C281.986 174.211 282.864 174.959 283.482 175.902C284.132 176.861 284.457 177.967 284.457 179.219C284.457 180.438 284.132 181.528 283.482 182.471C282.864 183.43 281.986 184.194 280.815 184.747C279.677 185.267 278.377 185.527 276.913 185.527H270.735V193.722H268.329ZM270.735 183.251H276.913C277.905 183.251 278.767 183.089 279.515 182.731C280.295 182.389 280.897 181.918 281.336 181.3C281.807 180.698 282.051 179.999 282.051 179.219C282.051 177.967 281.563 176.975 280.62 176.227C279.661 175.447 278.425 175.057 276.913 175.057H270.735V183.251Z" fill="#BEBEBE"/>
<path d="M301.412 194.437C299.982 194.437 298.697 194.145 297.575 193.592C296.437 193.039 295.527 192.258 294.844 191.25C294.194 190.21 293.82 189.023 293.739 187.674L296.08 187.218C296.161 188.698 296.681 189.917 297.64 190.86C298.632 191.82 299.884 192.291 301.412 192.291C302.924 192.291 304.144 191.82 305.054 190.86C305.997 189.917 306.485 188.682 306.485 187.153C306.485 185.592 306.029 184.357 305.119 183.446C304.209 182.536 303.005 182.08 301.542 182.08C300.762 182.08 299.998 182.259 299.266 182.601C298.567 182.91 298.031 183.316 297.64 183.836L295.95 183.251L296.6 172.845H306.81V175.057H298.746L298.291 181.3C298.681 180.91 299.217 180.617 299.916 180.39C300.599 180.129 301.363 179.999 302.193 179.999C303.526 179.999 304.696 180.308 305.704 180.91C306.745 181.479 307.525 182.276 308.045 183.316C308.598 184.357 308.891 185.625 308.891 187.088C308.891 188.568 308.582 189.868 307.98 190.99C307.363 192.08 306.501 192.925 305.379 193.527C304.241 194.128 302.924 194.437 301.412 194.437Z" fill="#BEBEBE"/>
<path d="M320.188 194.437C318.449 194.437 316.904 193.949 315.571 193.006C314.222 192.063 313.181 190.73 312.45 189.039C311.702 187.348 311.344 185.446 311.344 183.316C311.344 181.154 311.702 179.219 312.45 177.528C313.181 175.837 314.222 174.52 315.571 173.561C316.904 172.618 318.449 172.13 320.188 172.13C321.96 172.13 323.505 172.618 324.805 173.561C326.139 174.52 327.179 175.837 327.927 177.528C328.659 179.219 329.032 181.154 329.032 183.316C329.032 185.446 328.659 187.348 327.927 189.039C327.179 190.73 326.139 192.063 324.805 193.006C323.505 193.949 321.96 194.437 320.188 194.437ZM320.188 192.291C321.489 192.291 322.611 191.901 323.57 191.12C324.513 190.34 325.261 189.283 325.781 187.934C326.334 186.552 326.626 185.007 326.626 183.316C326.626 181.593 326.334 180.048 325.781 178.699C325.261 177.317 324.513 176.26 323.57 175.512C322.611 174.732 321.489 174.341 320.188 174.341C318.92 174.341 317.798 174.732 316.807 175.512C315.847 176.26 315.116 177.317 314.596 178.699C314.075 180.048 313.815 181.593 313.815 183.316C313.815 185.007 314.075 186.552 314.596 187.934C315.116 189.283 315.847 190.34 316.807 191.12C317.798 191.901 318.92 192.291 320.188 192.291Z" fill="#BEBEBE"/>
<path d="M339.094 194.437C337.566 194.437 336.233 194.177 335.062 193.657C333.924 193.104 333.046 192.34 332.396 191.381C331.778 190.438 331.486 189.332 331.486 188.064C331.486 186.633 331.876 185.43 332.656 184.422C333.469 183.43 334.575 182.796 335.973 182.536C334.965 182.194 334.152 181.593 333.502 180.715C332.884 179.804 332.591 178.812 332.591 177.723C332.591 176.601 332.868 175.626 333.437 174.797C333.989 173.984 334.753 173.333 335.713 172.845C336.704 172.325 337.826 172.065 339.094 172.065C340.395 172.065 341.517 172.309 342.476 172.78C343.468 173.268 344.248 173.935 344.817 174.797C345.37 175.626 345.662 176.585 345.662 177.658C345.662 178.796 345.337 179.804 344.687 180.715C344.037 181.593 343.207 182.194 342.216 182.536C343.598 182.796 344.703 183.43 345.532 184.422C346.345 185.43 346.768 186.633 346.768 188.064C346.768 189.332 346.443 190.438 345.792 191.381C345.142 192.34 344.232 193.104 343.061 193.657C341.923 194.177 340.606 194.437 339.094 194.437ZM339.094 181.69C339.875 181.69 340.557 181.544 341.175 181.235C341.777 180.894 342.248 180.438 342.606 179.869C342.947 179.316 343.126 178.682 343.126 177.983C343.126 176.91 342.736 176.032 341.956 175.382C341.208 174.699 340.265 174.341 339.094 174.341C337.924 174.341 336.948 174.699 336.168 175.382C335.42 176.032 335.062 176.91 335.062 177.983C335.062 179.024 335.42 179.918 336.168 180.65C336.948 181.349 337.924 181.69 339.094 181.69ZM339.094 192.226C340.135 192.226 341.045 192.063 341.826 191.706C342.606 191.316 343.207 190.795 343.646 190.145C344.069 189.495 344.297 188.779 344.297 187.999C344.297 187.186 344.053 186.438 343.581 185.788C343.142 185.137 342.541 184.617 341.761 184.227C340.98 183.836 340.086 183.641 339.094 183.641C338.086 183.641 337.208 183.836 336.428 184.227C335.648 184.617 335.03 185.137 334.607 185.788C334.168 186.438 333.957 187.186 333.957 187.999C333.957 188.779 334.168 189.495 334.607 190.145C335.03 190.795 335.648 191.316 336.428 191.706C337.208 192.063 338.086 192.226 339.094 192.226Z" fill="#BEBEBE"/>
<path d="M350.545 194.047C350.025 194.047 349.602 193.884 349.31 193.592C349.001 193.299 348.854 192.909 348.854 192.421C348.854 191.95 349.001 191.559 349.31 191.25C349.602 190.958 350.025 190.795 350.545 190.795C351.017 190.795 351.407 190.958 351.716 191.25C352.057 191.559 352.236 191.95 352.236 192.421C352.236 192.909 352.057 193.299 351.716 193.592C351.407 193.884 351.017 194.047 350.545 194.047Z" fill="#BEBEBE"/>
<path d="M363.729 194.437C361.989 194.437 360.445 193.949 359.112 193.006C357.762 192.063 356.722 190.73 355.99 189.039C355.242 187.348 354.885 185.446 354.885 183.316C354.885 181.154 355.242 179.219 355.99 177.528C356.722 175.837 357.762 174.52 359.112 173.561C360.445 172.618 361.989 172.13 363.729 172.13C365.501 172.13 367.045 172.618 368.346 173.561C369.679 174.52 370.72 175.837 371.467 177.528C372.199 179.219 372.573 181.154 372.573 183.316C372.573 185.446 372.199 187.348 371.467 189.039C370.72 190.73 369.679 192.063 368.346 193.006C367.045 193.949 365.501 194.437 363.729 194.437ZM363.729 192.291C365.029 192.291 366.151 191.901 367.11 191.12C368.053 190.34 368.801 189.283 369.321 187.934C369.874 186.552 370.167 185.007 370.167 183.316C370.167 181.593 369.874 180.048 369.321 178.699C368.801 177.317 368.053 176.26 367.11 175.512C366.151 174.732 365.029 174.341 363.729 174.341C362.461 174.341 361.339 174.732 360.347 175.512C359.388 176.26 358.656 177.317 358.136 178.699C357.616 180.048 357.356 181.593 357.356 183.316C357.356 185.007 357.616 186.552 358.136 187.934C358.656 189.283 359.388 190.34 360.347 191.12C361.339 191.901 362.461 192.291 363.729 192.291Z" fill="#BEBEBE"/>
<path d="M384.391 194.437C382.651 194.437 381.107 193.949 379.773 193.006C378.424 192.063 377.384 190.73 376.652 189.039C375.904 187.348 375.546 185.446 375.546 183.316C375.546 181.154 375.904 179.219 376.652 177.528C377.384 175.837 378.424 174.52 379.773 173.561C381.107 172.618 382.651 172.13 384.391 172.13C386.163 172.13 387.707 172.618 389.008 173.561C390.341 174.52 391.381 175.837 392.129 177.528C392.861 179.219 393.235 181.154 393.235 183.316C393.235 185.446 392.861 187.348 392.129 189.039C391.381 190.73 390.341 192.063 389.008 193.006C387.707 193.949 386.163 194.437 384.391 194.437ZM384.391 192.291C385.691 192.291 386.813 191.901 387.772 191.12C388.715 190.34 389.463 189.283 389.983 187.934C390.536 186.552 390.829 185.007 390.829 183.316C390.829 181.593 390.536 180.048 389.983 178.699C389.463 177.317 388.715 176.26 387.772 175.512C386.813 174.732 385.691 174.341 384.391 174.341C383.123 174.341 382.001 174.732 381.009 175.512C380.05 176.26 379.318 177.317 378.798 178.699C378.278 180.048 378.018 181.593 378.018 183.316C378.018 185.007 378.278 186.552 378.798 187.934C379.318 189.283 380.05 190.34 381.009 191.12C382.001 191.901 383.123 192.291 384.391 192.291Z" fill="#BEBEBE"/>
<path d="M403.297 194.437C401.768 194.437 400.435 194.177 399.265 193.657C398.127 193.104 397.249 192.34 396.598 191.381C395.981 190.438 395.688 189.332 395.688 188.064C395.688 186.633 396.078 185.43 396.859 184.422C397.671 183.43 398.777 182.796 400.175 182.536C399.167 182.194 398.354 181.593 397.704 180.715C397.086 179.804 396.794 178.812 396.794 177.723C396.794 176.601 397.07 175.626 397.639 174.797C398.192 173.984 398.956 173.333 399.915 172.845C400.907 172.325 402.029 172.065 403.297 172.065C404.597 172.065 405.719 172.309 406.678 172.78C407.67 173.268 408.45 173.935 409.019 174.797C409.572 175.626 409.865 176.585 409.865 177.658C409.865 178.796 409.54 179.804 408.889 180.715C408.239 181.593 407.41 182.194 406.418 182.536C407.8 182.796 408.906 183.43 409.735 184.422C410.548 185.43 410.97 186.633 410.97 188.064C410.97 189.332 410.645 190.438 409.995 191.381C409.345 192.34 408.434 193.104 407.264 193.657C406.125 194.177 404.809 194.437 403.297 194.437ZM403.297 181.69C404.077 181.69 404.76 181.544 405.378 181.235C405.979 180.894 406.451 180.438 406.808 179.869C407.15 179.316 407.329 178.682 407.329 177.983C407.329 176.91 406.938 176.032 406.158 175.382C405.41 174.699 404.467 174.341 403.297 174.341C402.126 174.341 401.151 174.699 400.37 175.382C399.622 176.032 399.265 176.91 399.265 177.983C399.265 179.024 399.622 179.918 400.37 180.65C401.151 181.349 402.126 181.69 403.297 181.69ZM403.297 192.226C404.337 192.226 405.248 192.063 406.028 191.706C406.808 191.316 407.41 190.795 407.849 190.145C408.272 189.495 408.499 188.779 408.499 187.999C408.499 187.186 408.255 186.438 407.784 185.788C407.345 185.137 406.743 184.617 405.963 184.227C405.183 183.836 404.288 183.641 403.297 183.641C402.289 183.641 401.411 183.836 400.63 184.227C399.85 184.617 399.232 185.137 398.809 185.788C398.371 186.438 398.159 187.186 398.159 187.999C398.159 188.779 398.371 189.495 398.809 190.145C399.232 190.795 399.85 191.316 400.63 191.706C401.411 192.063 402.289 192.226 403.297 192.226Z" fill="#BEBEBE"/>
</svg>
