<svg width="233" height="72" viewBox="0 0 233 72" fill="none" xmlns="http://www.w3.org/2000/svg">
<path d="M23.385 46.5714V0H27.6875L47.234 43.5788H47.289L66.7669 0H71.0693V46.5714H68.3476V3.25462H68.2239L48.9523 46.5714H45.5708L26.2304 3.25462H26.1067V46.5714H23.385Z" fill="#E4D12C"/>
<path d="M0.988403 46.5714V0H5.29085L24.8374 43.5788H24.8924L44.3702 0H48.6727V46.5714H45.951V3.25462H45.8273L26.5556 46.5714H23.1742L3.83379 3.25462H3.71008V46.5714H0.988403Z" fill="#E4D12C"/>
<path d="M0.988403 71.1566V55.59H3.62197L9.31048 69.1491L14.9639 55.59H17.6326V71.1566H15.8066V58.2314H15.7364L10.2586 71.1566H8.32729L2.84946 58.2666H2.81435V71.1566H0.988403Z" fill="#C1B82F"/>
<path d="M19.1405 71.1566L25.1802 55.59H27.3924L33.3618 71.1566H31.4305L30.0259 67.4234H22.5466L21.1069 71.1566H19.1405ZM23.0733 65.8034H29.4641L26.3038 57.3862H26.2687L23.0733 65.8034Z" fill="#C1B82F"/>
<path d="M46.1206 71.6144C45.5061 71.6144 45.0145 71.4471 44.6458 71.1214C44.2946 70.7692 44.0313 70.3289 43.8733 69.7831L42.9252 66.5077C42.7847 65.9442 42.5038 65.4864 42.0824 65.1342C41.6611 64.7644 41.1782 64.5707 40.6428 64.5707H36.7451V71.1566H34.9191V55.59H41.8718C42.9427 55.59 43.8908 55.7925 44.716 56.1887C45.5324 56.5673 46.1733 57.0956 46.6473 57.7736C47.1389 58.4339 47.3847 59.1999 47.3847 60.0628C47.3847 61.1193 47.0072 62.035 46.261 62.8098C45.5061 63.5846 44.479 64.0601 43.171 64.2185V64.2538C43.5924 64.4651 43.9259 64.7468 44.1893 65.099C44.4439 65.4512 44.6458 65.865 44.7862 66.3316L45.5588 69.1491C45.629 69.4133 45.7343 69.6334 45.8748 69.8183C46.0328 69.9856 46.2347 70.0648 46.4717 70.0648C46.7263 70.0648 46.9721 69.9768 47.2091 69.7831C47.4637 69.5982 47.6744 69.3516 47.8412 69.0435L48.7893 70.1352C48.4557 70.5579 48.0694 70.91 47.6305 71.1918C47.1828 71.4735 46.6824 71.6144 46.1206 71.6144ZM36.7451 62.9507H41.8718C42.9427 62.9507 43.8206 62.6953 44.5053 62.1759C45.1813 61.6388 45.5236 60.9432 45.5236 60.098C45.5236 59.2527 45.1813 58.566 44.5053 58.0201C43.8206 57.483 42.9427 57.2101 41.8718 57.2101H36.7451V62.9507Z" fill="#C1B82F"/>
<path d="M50.1021 71.1566V55.59H51.928V71.1566H50.1021Z" fill="#C1B82F"/>
<path d="M53.4453 71.1566L59.485 55.59H61.6972L67.6666 71.1566H65.7353L64.3307 67.4234H56.8514L55.4117 71.1566H53.4453ZM57.3781 65.8034H63.7689L60.6086 57.3862H60.5735L57.3781 65.8034Z" fill="#C1B82F"/>
<path d="M75.209 71.1566V55.59H77.0349V69.5365H84.9708V71.1566H75.209Z" fill="#C1B82F"/>
<path d="M92.5939 71.7201C91.3298 71.7201 90.2149 71.4471 89.258 70.91C88.3187 70.373 87.5813 69.6246 87.0458 68.6561C86.5279 67.6964 86.2733 66.5782 86.2733 65.3103V55.59H88.0993V65.3103C88.0993 66.182 88.2836 66.9832 88.6611 67.7052C89.0298 68.4359 89.5477 69.0082 90.2061 69.4309C90.8821 69.8535 91.6809 70.0648 92.5939 70.0648C93.5069 70.0648 94.2881 69.8711 94.9465 69.4661C95.5962 69.0699 96.1053 68.5152 96.4565 67.8108C96.8252 67.0888 97.0183 66.2524 97.0183 65.3103V55.59H98.8793V65.3103C98.8793 66.5782 98.6072 67.6964 98.0717 68.6561C97.5274 69.6246 96.79 70.373 95.8595 70.91C94.9202 71.4471 93.8317 71.7201 92.5939 71.7201Z" fill="#C1B82F"/>
<path d="M101.306 71.1566V55.59H103.132V71.1566H101.306Z" fill="#C1B82F"/>
<path d="M104.649 71.1566V69.4309L114.692 57.1396H104.895V55.59H116.694V57.3157L106.721 69.6422H116.904V71.1566H104.649Z" fill="#C1B82F"/>
<path d="M117.324 71.1566L123.364 55.59H125.576L131.545 71.1566H129.614L128.209 67.4234H120.73L119.29 71.1566H117.324ZM121.257 65.8034H127.647L124.487 57.3862H124.452L121.257 65.8034Z" fill="#C1B82F"/>
<path d="M139.088 71.1566V55.59H141.721L147.41 69.1491L153.063 55.59H155.732V71.1566H153.906V58.2314H153.836L148.358 71.1566H146.427L140.949 58.2666H140.914V71.1566H139.088Z" fill="#C1B82F"/>
<path d="M164.438 71.7201C163.174 71.7201 162.059 71.4471 161.102 70.91C160.163 70.373 159.426 69.6246 158.89 68.6561C158.372 67.6964 158.118 66.5782 158.118 65.3103V55.59H159.943V65.3103C159.943 66.182 160.128 66.9832 160.505 67.7052C160.874 68.4359 161.392 69.0082 162.05 69.4309C162.726 69.8535 163.525 70.0648 164.438 70.0648C165.351 70.0648 166.132 69.8711 166.791 69.4661C167.44 69.0699 167.95 68.5152 168.301 67.8108C168.669 67.0888 168.863 66.2524 168.863 65.3103V55.59H170.724V65.3103C170.724 66.5782 170.451 67.6964 169.916 68.6561C169.372 69.6246 168.634 70.373 167.704 70.91C166.764 71.4471 165.676 71.7201 164.438 71.7201Z" fill="#C1B82F"/>
<path d="M173.15 71.1566V55.59H175.573L183.544 68.7969H183.579V55.59H185.405V71.1566H182.982L175.011 57.9849H174.976V71.1566H173.15Z" fill="#C1B82F"/>
<path d="M188.069 71.1566V55.59H189.895V62.2463H198.463V55.59H200.289V71.1566H198.463V63.8664H189.895V71.1566H188.069Z" fill="#C1B82F"/>
<path d="M210.739 71.7201C209.054 71.7201 207.579 71.3767 206.315 70.6988C205.069 69.9944 204.103 69.0259 203.401 67.7756C202.716 66.5342 202.382 65.0638 202.382 63.3733C202.382 61.7092 202.716 60.2565 203.401 59.0062C204.103 57.7384 205.069 56.7699 206.315 56.0831C207.579 55.3787 209.054 55.0266 210.739 55.0266C212.425 55.0266 213.882 55.3787 215.129 56.0831C216.393 56.7699 217.358 57.7384 218.043 59.0062C218.746 60.2565 219.097 61.7092 219.097 63.3733C219.097 65.0638 218.746 66.5342 218.043 67.7756C217.358 69.0259 216.393 69.9944 215.129 70.6988C213.882 71.3767 212.425 71.7201 210.739 71.7201ZM210.739 70.0648C212.047 70.0648 213.18 69.8007 214.146 69.2548C215.129 68.6913 215.884 67.9077 216.428 66.8952C216.963 65.8914 217.236 64.7116 217.236 63.3733C217.236 62.035 216.963 60.864 216.428 59.8515C215.884 58.8477 215.129 58.0729 214.146 57.5271C213.18 56.9636 212.047 56.6818 210.739 56.6818C209.423 56.6818 208.281 56.9636 207.298 57.5271C206.315 58.0729 205.551 58.8477 205.016 59.8515C204.472 60.864 204.208 62.035 204.208 63.3733C204.208 64.7116 204.472 65.8914 205.016 66.8952C205.551 67.9077 206.315 68.6913 207.298 69.2548C208.281 69.8007 209.423 70.0648 210.739 70.0648Z" fill="#C1B82F"/>
<path d="M220.062 71.1566V69.4309L230.105 57.1396H220.308V55.59H232.106V57.3157L222.134 69.6422H232.317V71.1566H220.062Z" fill="#C1B82F"/>
</svg>
