<svg width="321" height="47" viewBox="0 0 321 47" fill="none" xmlns="http://www.w3.org/2000/svg">
<path d="M22.7681 46.1699V0H27.0458L46.4801 43.2031H46.5348L65.9008 0H70.1785V46.1699H67.4725V3.22656H67.3495L48.1885 46.1699H44.8264L25.5971 3.22656H25.4741V46.1699H22.7681Z" fill="#E4D12C"/>
<path d="M0.5 46.1699V0H4.77774L24.2121 43.2031H24.2667L43.6327 0H47.9104V46.1699H45.2044V3.22656H45.0814L25.9204 46.1699H22.5584L3.32905 3.22656H3.20604V46.1699H0.5Z" fill="#E4D12C"/>
<path d="M90.5 20.7507V5.31836H93.1184L98.7743 18.7606L104.395 5.31836H107.049V20.7507H105.233V7.93697H105.163L99.7169 20.7507H97.7967L92.3504 7.97189H92.3155V20.7507H90.5Z" fill="#E4D12C"/>
<path d="M108.548 20.7507L114.553 5.31836H116.752L122.687 20.7507H120.767L119.371 17.0497H111.934L110.503 20.7507H108.548ZM112.458 15.4437H118.812L115.67 7.09902H115.635L112.458 15.4437Z" fill="#E4D12C"/>
<path d="M135.373 21.2046C134.762 21.2046 134.273 21.0388 133.907 20.7158C133.558 20.3666 133.296 19.9302 133.139 19.389L132.196 16.142C132.056 15.5833 131.777 15.1294 131.358 14.7803C130.939 14.4137 130.459 14.2216 129.927 14.2216H126.051V20.7507H124.236V5.31836H131.149C132.213 5.31836 133.156 5.51912 133.976 5.91191C134.788 6.28725 135.425 6.81097 135.897 7.48308C136.385 8.13773 136.63 8.89713 136.63 9.75254C136.63 10.8 136.255 11.7078 135.513 12.4759C134.762 13.244 133.741 13.7154 132.44 13.8725V13.9074C132.859 14.1169 133.191 14.3962 133.453 14.7454C133.706 15.0945 133.907 15.5048 134.046 15.9674L134.814 18.7606C134.884 19.0224 134.989 19.2406 135.129 19.4239C135.286 19.5898 135.486 19.6684 135.722 19.6684C135.975 19.6684 136.22 19.5811 136.455 19.389C136.708 19.2057 136.918 18.9613 137.084 18.6558L138.026 19.7382C137.695 20.1572 137.311 20.5063 136.874 20.7856C136.429 21.0649 135.932 21.2046 135.373 21.2046ZM126.051 12.6156H131.149C132.213 12.6156 133.086 12.3624 133.767 11.8474C134.439 11.315 134.779 10.6254 134.779 9.78746C134.779 8.9495 134.439 8.26866 133.767 7.72748C133.086 7.19503 132.213 6.92444 131.149 6.92444H126.051V12.6156Z" fill="#E4D12C"/>
<path d="M139.332 20.7507V5.31836H141.147V20.7507H139.332Z" fill="#E4D12C"/>
<path d="M142.656 20.7507L148.661 5.31836H150.86L156.795 20.7507H154.875L153.479 17.0497H146.042L144.611 20.7507H142.656ZM146.566 15.4437H152.92L149.778 7.09902H149.743L146.566 15.4437Z" fill="#E4D12C"/>
<path d="M164.294 20.7507V5.31836H166.11V19.1446H174V20.7507H164.294Z" fill="#E4D12C"/>
<path d="M181.579 21.3093C180.323 21.3093 179.214 21.0388 178.263 20.5063C177.329 19.9739 176.596 19.2319 176.063 18.2718C175.548 17.3203 175.295 16.2118 175.295 14.9549V5.31836H177.111V14.9549C177.111 15.819 177.294 16.6133 177.669 17.3291C178.036 18.0535 178.551 18.6209 179.205 19.0399C179.877 19.4589 180.672 19.6684 181.579 19.6684C182.487 19.6684 183.264 19.4763 183.919 19.0748C184.564 18.682 185.071 18.1321 185.42 17.4338C185.786 16.718 185.978 15.8888 185.978 14.9549V5.31836H187.829V14.9549C187.829 16.2118 187.558 17.3203 187.026 18.2718C186.485 19.2319 185.751 19.9739 184.826 20.5063C183.892 21.0388 182.81 21.3093 181.579 21.3093Z" fill="#E4D12C"/>
<path d="M190.242 20.7507V5.31836H192.057V20.7507H190.242Z" fill="#E4D12C"/>
<path d="M193.566 20.7507V19.0399L203.551 6.85461H193.81V5.31836H205.541V7.02919L195.626 19.2494H205.75V20.7507H193.566Z" fill="#E4D12C"/>
<path d="M206.167 20.7507L212.172 5.31836H214.372L220.307 20.7507H218.387L216.99 17.0497H209.554L208.122 20.7507H206.167ZM210.078 15.4437H216.432L213.29 7.09902H213.255L210.078 15.4437Z" fill="#E4D12C"/>
<path d="M227.806 20.7507V5.31836H230.424L236.08 18.7606L241.701 5.31836H244.355V20.7507H242.539V7.93697H242.469L237.023 20.7507H235.103L229.656 7.97189H229.621V20.7507H227.806Z" fill="#E4D12C"/>
<path d="M253.011 21.3093C251.754 21.3093 250.646 21.0388 249.694 20.5063C248.76 19.9739 248.027 19.2319 247.495 18.2718C246.98 17.3203 246.727 16.2118 246.727 14.9549V5.31836H248.542V14.9549C248.542 15.819 248.725 16.6133 249.101 17.3291C249.467 18.0535 249.982 18.6209 250.637 19.0399C251.309 19.4589 252.103 19.6684 253.011 19.6684C253.919 19.6684 254.695 19.4763 255.35 19.0748C255.996 18.682 256.502 18.1321 256.851 17.4338C257.218 16.718 257.41 15.8888 257.41 14.9549V5.31836H259.26V14.9549C259.26 16.2118 258.99 17.3203 258.457 18.2718C257.916 19.2319 257.183 19.9739 256.258 20.5063C255.324 21.0388 254.242 21.3093 253.011 21.3093Z" fill="#E4D12C"/>
<path d="M261.673 20.7507V5.31836H264.082L272.007 18.4114H272.042V5.31836H273.858V20.7507H271.449L263.523 7.69257H263.489V20.7507H261.673Z" fill="#E4D12C"/>
<path d="M276.506 20.7507V5.31836H278.322V11.9173H286.84V5.31836H288.656V20.7507H286.84V13.5233H278.322V20.7507H276.506Z" fill="#E4D12C"/>
<path d="M299.047 21.3094C297.371 21.3094 295.904 20.969 294.648 20.2969C293.408 19.5986 292.448 18.6384 291.75 17.3989C291.069 16.1682 290.737 14.7105 290.737 13.0346C290.737 11.3849 291.069 9.94462 291.75 8.70514C292.448 7.44821 293.408 6.48805 294.648 5.80721C295.904 5.10891 297.371 4.75977 299.047 4.75977C300.722 4.75977 302.171 5.10891 303.411 5.80721C304.667 6.48805 305.628 7.44821 306.308 8.70514C307.007 9.94462 307.356 11.3849 307.356 13.0346C307.356 14.7105 307.007 16.1682 306.308 17.3989C305.628 18.6384 304.667 19.5986 303.411 20.2969C302.171 20.969 300.722 21.3094 299.047 21.3094ZM299.047 19.6684C300.347 19.6684 301.473 19.4065 302.433 18.8654C303.411 18.3067 304.161 17.5299 304.702 16.5261C305.235 15.531 305.505 14.3613 305.505 13.0346C305.505 11.7078 305.235 10.5469 304.702 9.5431C304.161 8.54802 303.411 7.7799 302.433 7.23872C301.473 6.68008 300.347 6.40076 299.047 6.40076C297.737 6.40076 296.603 6.68008 295.625 7.23872C294.648 7.7799 293.888 8.54802 293.356 9.5431C292.815 10.5469 292.553 11.7078 292.553 13.0346C292.553 14.3613 292.815 15.531 293.356 16.5261C293.888 17.5299 294.648 18.3067 295.625 18.8654C296.603 19.4065 297.737 19.6684 299.047 19.6684Z" fill="#E4D12C"/>
<path d="M308.316 20.7507V19.0399L318.301 6.85461H308.56V5.31836H320.291V7.02919L310.375 19.2494H320.5V20.7507H308.316Z" fill="#E4D12C"/>
<path d="M92.7338 38.968C92.1228 38.968 91.5904 38.8632 91.1278 38.6537C90.6565 38.4704 90.2899 38.1911 90.0106 37.8158C89.7488 37.4492 89.6266 37.0302 89.6266 36.5588C89.6266 35.9129 89.9059 35.3543 90.4645 34.8829C91.0231 34.3941 91.9483 34.0712 93.2575 33.9053L95.2475 33.6958C95.4308 33.6784 95.5792 33.6085 95.7014 33.4863C95.8148 33.3729 95.8759 33.2332 95.8759 33.0674C95.8759 32.5611 95.649 32.1596 95.2126 31.8802C94.7937 31.5835 94.2351 31.4264 93.5368 31.4264C93.048 31.4264 92.6029 31.5224 92.2101 31.7057C91.8086 31.8715 91.4944 32.1072 91.2675 32.404C91.0318 32.7095 90.9184 33.0237 90.9184 33.3467L89.8011 32.8579C89.8448 32.4214 90.0281 32.0112 90.3598 31.6358C90.7089 31.2431 91.1627 30.9288 91.7213 30.6931C92.2799 30.44 92.8909 30.3091 93.5717 30.3091C94.27 30.3091 94.8722 30.44 95.3872 30.6931C95.9196 30.9288 96.3298 31.2692 96.6091 31.7057C96.9059 32.1247 97.063 32.6396 97.063 33.2419V37.327C97.063 37.4928 97.0979 37.6237 97.1677 37.711C97.255 37.807 97.3772 37.8507 97.5168 37.8507C97.7438 37.8507 97.9532 37.7023 98.1453 37.3968L98.8086 38.13C98.6428 38.3919 98.4071 38.5839 98.1104 38.7236C97.8049 38.8807 97.4994 38.968 97.2026 38.968C96.8011 38.968 96.4869 38.8458 96.26 38.6188C96.0243 38.3657 95.8934 38.0514 95.8759 37.6761L95.841 37.327C95.5617 37.842 95.1515 38.2522 94.6191 38.549C94.0779 38.8283 93.4495 38.968 92.7338 38.968ZM92.9433 37.8856C93.5019 37.8856 93.9994 37.7721 94.4445 37.5364C94.8809 37.3095 95.2213 36.9953 95.457 36.5938C95.7101 36.201 95.841 35.7471 95.841 35.2321V34.6385L93.3622 34.9528C92.4021 35.075 91.7388 35.2844 91.3722 35.5812C91.0231 35.8605 90.8485 36.1748 90.8485 36.5239C90.8485 36.9429 91.0318 37.2833 91.4071 37.5364C91.7999 37.7721 92.3149 37.8856 92.9433 37.8856Z" fill="#F5F5F5"/>
<path d="M103.376 38.968C102.581 38.968 101.874 38.7759 101.246 38.4093C100.635 38.0427 100.164 37.5277 99.8146 36.8731C99.4655 36.2272 99.2909 35.4765 99.2909 34.6385C99.2909 33.8006 99.4655 33.0586 99.8146 32.404C100.164 31.7581 100.635 31.2431 101.246 30.8677C101.848 30.5011 102.546 30.3091 103.341 30.3091C104.013 30.3091 104.606 30.4662 105.121 30.763C105.654 31.0423 106.099 31.4526 106.448 31.985V26.9922H107.67V38.6537H106.623L106.518 37.2571H106.483C106.151 37.7983 105.715 38.2173 105.156 38.5141C104.615 38.8109 104.022 38.968 103.376 38.968ZM103.515 37.8856C104.091 37.8856 104.606 37.746 105.051 37.4666C105.488 37.1699 105.837 36.7683 106.099 36.2795C106.378 35.7907 106.518 35.2495 106.518 34.6385C106.518 34.0363 106.378 33.5038 106.099 33.0325C105.837 32.5436 105.488 32.1596 105.051 31.8803C104.606 31.5835 104.091 31.4264 103.515 31.4264C102.931 31.4264 102.407 31.5835 101.944 31.8803C101.499 32.1596 101.141 32.5436 100.862 33.0325C100.6 33.5038 100.478 34.0363 100.478 34.6385C100.478 35.267 100.6 35.8256 100.862 36.3144C101.141 36.8033 101.499 37.1873 101.944 37.4666C102.407 37.746 102.931 37.8856 103.515 37.8856Z" fill="#F5F5F5"/>
<path d="M111.818 38.6537L108.641 30.6233H109.933L112.586 37.6063H112.621L115.274 30.6233H116.566L113.389 38.6537H111.818Z" fill="#F5F5F5"/>
<path d="M121.451 38.968C120.587 38.968 119.827 38.7934 119.181 38.4442C118.553 38.0776 118.064 37.5714 117.715 36.9429C117.366 36.297 117.191 35.5288 117.191 34.6385C117.191 33.7831 117.366 33.0237 117.715 32.3691C118.064 31.7231 118.553 31.2169 119.181 30.8677C119.827 30.5011 120.587 30.3091 121.451 30.3091C122.306 30.3091 123.057 30.5011 123.685 30.8677C124.331 31.2169 124.837 31.7231 125.186 32.3691C125.553 33.0237 125.745 33.7831 125.745 34.6385C125.745 35.5288 125.553 36.297 125.186 36.9429C124.837 37.5714 124.331 38.0776 123.685 38.4442C123.057 38.7934 122.306 38.968 121.451 38.968ZM121.451 37.8856C122.376 37.8856 123.126 37.5976 123.685 37.0127C124.244 36.4104 124.523 35.6161 124.523 34.6385C124.523 33.6609 124.244 32.8841 123.685 32.2992C123.126 31.7231 122.376 31.4264 121.451 31.4264C120.517 31.4264 119.775 31.7231 119.216 32.2992C118.658 32.8841 118.378 33.6609 118.378 34.6385C118.378 35.6161 118.658 36.4104 119.216 37.0127C119.775 37.5976 120.517 37.8856 121.451 37.8856Z" fill="#F5F5F5"/>
<path d="M130.467 42.3198C129.856 42.3198 129.263 42.2238 128.687 42.0405C128.102 41.8484 127.578 41.5953 127.116 41.2723C126.671 40.9406 126.313 40.574 126.033 40.1551L126.976 39.352C127.299 39.9107 127.779 40.3471 128.408 40.6788C129.036 41.0279 129.708 41.2025 130.432 41.2025C131.105 41.2025 131.689 41.0716 132.178 40.8184C132.667 40.5566 133.051 40.19 133.33 39.7012C133.609 39.2298 133.749 38.6712 133.749 38.0253V37.1175C133.417 37.6325 132.964 38.0427 132.388 38.3395C131.829 38.6188 131.27 38.7585 130.712 38.7585C129.917 38.7585 129.219 38.5839 128.617 38.2347C128.006 37.8856 127.535 37.3968 127.186 36.7683C126.854 36.1399 126.697 35.4241 126.697 34.6036C126.697 33.7482 126.854 32.9975 127.186 32.3691C127.535 31.7406 128.006 31.2518 128.617 30.9026C129.219 30.536 129.917 30.344 130.712 30.344C131.288 30.344 131.864 30.5011 132.422 30.7979C132.981 31.1034 133.417 31.4875 133.749 31.9501H133.784L133.889 30.6233H134.971V38.0253C134.971 38.8807 134.779 39.6313 134.412 40.2598C134.037 40.9057 133.513 41.412 132.841 41.7611C132.161 42.1277 131.375 42.3198 130.467 42.3198ZM130.851 37.6412C131.427 37.6412 131.942 37.519 132.388 37.2571C132.824 36.9778 133.164 36.6199 133.4 36.1748C133.653 35.7121 133.784 35.1884 133.784 34.6036C133.784 34.0013 133.653 33.4689 133.4 32.9975C133.164 32.5087 132.824 32.1247 132.388 31.8453C131.942 31.566 131.427 31.4264 130.851 31.4264C130.267 31.4264 129.752 31.566 129.315 31.8453C128.87 32.1072 128.521 32.4738 128.268 32.9626C128.032 33.434 127.919 33.9751 127.919 34.6036C127.919 35.1884 128.032 35.7121 128.268 36.1748C128.521 36.6461 128.87 37.004 129.315 37.2571C129.752 37.519 130.267 37.6412 130.851 37.6412Z" fill="#F5F5F5"/>
<path d="M139.183 38.968C138.572 38.968 138.039 38.8632 137.577 38.6537C137.105 38.4704 136.739 38.1911 136.459 37.8158C136.198 37.4492 136.075 37.0302 136.075 36.5588C136.075 35.9129 136.355 35.3543 136.913 34.8829C137.472 34.3941 138.397 34.0712 139.706 33.9053L141.696 33.6958C141.88 33.6784 142.028 33.6085 142.15 33.4863C142.264 33.3729 142.325 33.2332 142.325 33.0674C142.325 32.5611 142.098 32.1596 141.661 31.8802C141.243 31.5835 140.684 31.4264 139.986 31.4264C139.497 31.4264 139.052 31.5224 138.659 31.7057C138.257 31.8715 137.943 32.1072 137.716 32.404C137.481 32.7095 137.367 33.0237 137.367 33.3467L136.25 32.8579C136.294 32.4214 136.477 32.0112 136.809 31.6358C137.158 31.2431 137.612 30.9288 138.17 30.6931C138.729 30.44 139.34 30.3091 140.021 30.3091C140.719 30.3091 141.321 30.44 141.836 30.6931C142.368 30.9288 142.779 31.2692 143.058 31.7057C143.355 32.1247 143.512 32.6396 143.512 33.2419V37.327C143.512 37.4928 143.547 37.6237 143.617 37.711C143.704 37.807 143.826 37.8507 143.966 37.8507C144.193 37.8507 144.402 37.7023 144.594 37.3968L145.257 38.13C145.092 38.3919 144.856 38.5839 144.559 38.7236C144.254 38.8807 143.948 38.968 143.651 38.968C143.25 38.968 142.936 38.8458 142.709 38.6188C142.473 38.3657 142.342 38.0514 142.325 37.6761L142.29 37.327C142.011 37.842 141.6 38.2522 141.068 38.549C140.527 38.8283 139.898 38.968 139.183 38.968ZM139.392 37.8856C139.951 37.8856 140.448 37.7721 140.893 37.5364C141.33 37.3095 141.67 36.9953 141.906 36.5938C142.159 36.201 142.29 35.7471 142.29 35.2321V34.6385L139.811 34.9528C138.851 35.075 138.188 35.2844 137.821 35.5812C137.472 35.8605 137.297 36.1748 137.297 36.5239C137.297 36.9429 137.481 37.2833 137.856 37.5364C138.249 37.7721 138.764 37.8856 139.392 37.8856Z" fill="#F5F5F5"/>
<path d="M149.825 38.968C149.03 38.968 148.323 38.7759 147.695 38.4093C147.084 38.0427 146.613 37.5277 146.263 36.8731C145.914 36.2272 145.74 35.4765 145.74 34.6385C145.74 33.8006 145.914 33.0586 146.263 32.404C146.613 31.7581 147.084 31.2431 147.695 30.8677C148.297 30.5011 148.995 30.3091 149.79 30.3091C150.462 30.3091 151.055 30.4662 151.57 30.763C152.103 31.0423 152.548 31.4526 152.897 31.985V26.9922H154.119V38.6537H153.071L152.967 37.2571H152.932C152.6 37.7983 152.164 38.2173 151.605 38.5141C151.064 38.8109 150.47 38.968 149.825 38.968ZM149.964 37.8856C150.54 37.8856 151.055 37.746 151.5 37.4666C151.937 37.1699 152.286 36.7683 152.548 36.2795C152.827 35.7907 152.967 35.2495 152.967 34.6385C152.967 34.0363 152.827 33.5038 152.548 33.0325C152.286 32.5436 151.937 32.1596 151.5 31.8803C151.055 31.5835 150.54 31.4264 149.964 31.4264C149.379 31.4264 148.856 31.5835 148.393 31.8803C147.948 32.1596 147.59 32.5436 147.311 33.0325C147.049 33.5038 146.927 34.0363 146.927 34.6385C146.927 35.267 147.049 35.8256 147.311 36.3144C147.59 36.8033 147.948 37.1873 148.393 37.4666C148.856 37.746 149.379 37.8856 149.964 37.8856Z" fill="#F5F5F5"/>
<path d="M158.337 38.968C157.726 38.968 157.193 38.8632 156.731 38.6537C156.259 38.4704 155.893 38.1911 155.613 37.8158C155.352 37.4492 155.229 37.0302 155.229 36.5588C155.229 35.9129 155.509 35.3543 156.067 34.8829C156.626 34.3941 157.551 34.0712 158.86 33.9053L160.85 33.6958C161.034 33.6784 161.182 33.6085 161.304 33.4863C161.418 33.3729 161.479 33.2332 161.479 33.0674C161.479 32.5611 161.252 32.1596 160.815 31.8802C160.396 31.5835 159.838 31.4264 159.14 31.4264C158.651 31.4264 158.206 31.5224 157.813 31.7057C157.411 31.8715 157.097 32.1072 156.87 32.404C156.635 32.7095 156.521 33.0237 156.521 33.3467L155.404 32.8579C155.448 32.4214 155.631 32.0112 155.963 31.6358C156.312 31.2431 156.766 30.9288 157.324 30.6931C157.883 30.44 158.494 30.3091 159.174 30.3091C159.873 30.3091 160.475 30.44 160.99 30.6931C161.522 30.9288 161.933 31.2692 162.212 31.7057C162.509 32.1247 162.666 32.6396 162.666 33.2419V37.327C162.666 37.4928 162.701 37.6237 162.77 37.711C162.858 37.807 162.98 37.8507 163.12 37.8507C163.347 37.8507 163.556 37.7023 163.748 37.3968L164.411 38.13C164.246 38.3919 164.01 38.5839 163.713 38.7236C163.408 38.8807 163.102 38.968 162.805 38.968C162.404 38.968 162.09 38.8458 161.863 38.6188C161.627 38.3657 161.496 38.0514 161.479 37.6761L161.444 37.327C161.165 37.842 160.754 38.2522 160.222 38.549C159.681 38.8283 159.052 38.968 158.337 38.968ZM158.546 37.8856C159.105 37.8856 159.602 37.7721 160.047 37.5364C160.484 37.3095 160.824 36.9953 161.06 36.5938C161.313 36.201 161.444 35.7471 161.444 35.2321V34.6385L158.965 34.9528C158.005 35.075 157.342 35.2844 156.975 35.5812C156.626 35.8605 156.451 36.1748 156.451 36.5239C156.451 36.9429 156.635 37.2833 157.01 37.5364C157.403 37.7721 157.918 37.8856 158.546 37.8856Z" fill="#F5F5F5"/>
<path d="M182.109 39.0378C180.922 39.0378 179.874 38.7934 178.967 38.3046C178.059 37.8158 177.343 37.1349 176.837 36.2446C176.348 35.3368 176.104 34.2807 176.104 33.0674C176.104 31.8628 176.348 30.8154 176.837 29.925C177.343 29.0172 178.059 28.3189 178.967 27.8301C179.874 27.3239 180.922 27.062 182.109 27.062C183.339 27.062 184.413 27.3239 185.321 27.8301C186.228 28.3189 186.927 29.0172 187.415 29.925C187.904 30.8154 188.149 31.8628 188.149 33.0674C188.149 34.2807 187.904 35.3368 187.415 36.2446C186.927 37.1349 186.228 37.8158 185.321 38.3046C184.413 38.7934 183.339 39.0378 182.109 39.0378ZM182.109 37.8856C183.06 37.8856 183.889 37.6936 184.588 37.2921C185.303 36.8731 185.853 36.3057 186.228 35.5812C186.621 34.8655 186.822 34.0275 186.822 33.0674C186.822 32.0897 186.621 31.2431 186.228 30.5186C185.853 29.8028 185.303 29.2442 184.588 28.8427C183.889 28.4499 183.06 28.2491 182.109 28.2491C181.175 28.2491 180.346 28.4499 179.63 28.8427C178.932 29.2442 178.382 29.8028 177.989 30.5186C177.614 31.2431 177.43 32.0897 177.43 33.0674C177.43 34.0275 177.614 34.8655 177.989 35.5812C178.382 36.3057 178.932 36.8731 179.63 37.2921C180.346 37.6936 181.175 37.8856 182.109 37.8856Z" fill="#F5F5F5"/>
<path d="M188.875 38.6537L193.204 27.446H194.81L199.105 38.6537H197.708L196.696 35.9653H191.319L190.272 38.6537H188.875ZM191.703 34.7782H196.312L194.007 28.7728L191.703 34.7782Z" fill="#F5F5F5"/>
<path d="M200.212 38.6537V27.446H205.344C206.461 27.446 207.317 27.7166 207.928 28.2491C208.53 28.7641 208.835 29.506 208.835 30.4836C208.835 31.0946 208.678 31.6009 208.382 32.0199C208.076 32.4389 207.648 32.7182 207.09 32.8578C207.762 32.9975 208.277 33.303 208.626 33.7656C208.993 34.237 209.185 34.8131 209.185 35.5114C209.185 36.5152 208.844 37.292 208.172 37.8507C207.517 38.3918 206.584 38.6537 205.379 38.6537H200.212ZM201.539 32.2992H205.205C205.946 32.2992 206.514 32.1508 206.915 31.8453C207.334 31.5224 207.544 31.0685 207.544 30.4836C207.544 29.9075 207.334 29.4536 206.915 29.122C206.514 28.799 205.946 28.6331 205.205 28.6331H201.539V32.2992ZM201.539 37.4666H205.205C206.042 37.4666 206.688 37.292 207.16 36.9429C207.648 36.5937 207.893 36.1049 207.893 35.4765C207.893 34.848 207.648 34.3592 207.16 34.01C206.688 33.6609 206.042 33.4863 205.205 33.4863H201.539V37.4666Z" fill="#F5F5F5"/>
<path d="M219.147 39.0378C218.283 39.0378 217.506 38.872 216.808 38.549C216.11 38.226 215.534 37.7721 215.097 37.1873C214.652 36.585 214.382 35.8955 214.294 35.1273L215.586 34.8829C215.63 35.4678 215.804 35.9915 216.11 36.4541C216.433 36.8993 216.852 37.2484 217.367 37.5015C217.899 37.7634 218.493 37.8856 219.147 37.8856C220.029 37.8856 220.718 37.6761 221.207 37.2571C221.713 36.8382 221.975 36.3319 221.975 35.7209C221.975 35.2146 221.783 34.8044 221.416 34.4989C221.041 34.2021 220.448 33.9577 219.636 33.7657L217.855 33.3467C216.852 33.1197 216.11 32.7706 215.621 32.2992C215.15 31.8366 214.923 31.2343 214.923 30.4837C214.923 29.8116 215.071 29.218 215.377 28.703C215.7 28.1967 216.145 27.7952 216.703 27.5159C217.279 27.2191 217.96 27.062 218.728 27.062C219.4 27.062 220.003 27.2017 220.544 27.481C221.102 27.7429 221.556 28.1095 221.905 28.5983C222.272 29.0696 222.516 29.6021 222.638 30.2043L221.382 30.5186C221.312 29.8465 221.032 29.2966 220.544 28.8776C220.055 28.4586 219.444 28.2491 218.728 28.2491C217.96 28.2491 217.349 28.4499 216.913 28.8427C216.468 29.218 216.249 29.6981 216.249 30.2742C216.249 30.7455 216.398 31.1296 216.703 31.4264C217.026 31.7057 217.541 31.9326 218.239 32.0897L220.055 32.4738C222.219 32.9626 223.302 33.9751 223.302 35.5114C223.302 36.1922 223.127 36.7945 222.778 37.327C222.446 37.8681 221.975 38.2871 221.347 38.5839C220.718 38.8807 219.985 39.0378 219.147 39.0378Z" fill="#F5F5F5"/>
<path d="M224.555 38.6537V27.446H229.164C229.949 27.446 230.647 27.6032 231.258 27.8999C231.887 28.1793 232.358 28.5808 232.69 29.087C233.039 29.602 233.214 30.1956 233.214 30.8677C233.214 31.5224 233.039 32.1072 232.69 32.6134C232.358 33.1284 231.887 33.5387 231.258 33.8355C230.647 34.1148 229.949 34.2544 229.164 34.2544H225.847V38.6537H224.555ZM225.847 33.0324H229.164C229.696 33.0324 230.159 32.9451 230.56 32.7531C230.979 32.5698 231.302 32.3167 231.538 31.985C231.791 31.662 231.922 31.2867 231.922 30.8677C231.922 30.1956 231.66 29.6631 231.154 29.2616C230.639 28.8426 229.975 28.6331 229.164 28.6331H225.847V33.0324Z" fill="#F5F5F5"/>
<path d="M242.316 39.0378C241.548 39.0378 240.858 38.8806 240.256 38.5839C239.645 38.2871 239.157 37.8681 238.79 37.3269C238.441 36.7683 238.24 36.1311 238.196 35.4066L239.453 35.1622C239.497 35.9565 239.776 36.6112 240.291 37.1175C240.824 37.6324 241.496 37.8856 242.316 37.8856C243.128 37.8856 243.782 37.6324 244.271 37.1175C244.777 36.6112 245.039 35.9478 245.039 35.1273C245.039 34.2894 244.795 33.626 244.306 33.1372C243.817 32.6484 243.171 32.4039 242.386 32.4039C241.967 32.4039 241.557 32.5 241.164 32.6833C240.789 32.8491 240.501 33.0673 240.291 33.3466L239.383 33.0324L239.733 27.446H245.214V28.6331H240.885L240.64 31.985C240.85 31.7755 241.138 31.6184 241.513 31.4962C241.88 31.3565 242.29 31.2867 242.735 31.2867C243.451 31.2867 244.079 31.4525 244.62 31.7755C245.179 32.081 245.598 32.5087 245.877 33.0673C246.174 33.626 246.331 34.3068 246.331 35.0924C246.331 35.8867 246.165 36.585 245.842 37.1873C245.511 37.7721 245.048 38.226 244.446 38.549C243.835 38.8719 243.128 39.0378 242.316 39.0378Z" fill="#F5F5F5"/>
<path d="M252.396 39.0378C251.462 39.0378 250.633 38.7759 249.917 38.2697C249.193 37.7634 248.634 37.0477 248.242 36.1399C247.84 35.2321 247.648 34.2108 247.648 33.0674C247.648 31.9064 247.84 30.8677 248.242 29.9599C248.634 29.0522 249.193 28.3451 249.917 27.8301C250.633 27.3239 251.462 27.062 252.396 27.062C253.348 27.062 254.177 27.3239 254.875 27.8301C255.591 28.3451 256.149 29.0522 256.551 29.9599C256.944 30.8677 257.144 31.9064 257.144 33.0674C257.144 34.2108 256.944 35.2321 256.551 36.1399C256.149 37.0477 255.591 37.7634 254.875 38.2697C254.177 38.7759 253.348 39.0378 252.396 39.0378ZM252.396 37.8856C253.094 37.8856 253.697 37.6761 254.212 37.2571C254.718 36.8382 255.119 36.2708 255.399 35.5463C255.695 34.8044 255.853 33.9751 255.853 33.0674C255.853 32.1421 255.695 31.3129 255.399 30.5884C255.119 29.8465 254.718 29.2791 254.212 28.8776C253.697 28.4586 253.094 28.2491 252.396 28.2491C251.715 28.2491 251.113 28.4586 250.581 28.8776C250.066 29.2791 249.673 29.8465 249.394 30.5884C249.114 31.3129 248.975 32.1421 248.975 33.0674C248.975 33.9751 249.114 34.8044 249.394 35.5463C249.673 36.2708 250.066 36.8382 250.581 37.2571C251.113 37.6761 251.715 37.8856 252.396 37.8856Z" fill="#F5F5F5"/>
<path d="M262.546 39.0376C261.726 39.0376 261.01 38.8979 260.381 38.6186C259.771 38.3218 259.299 37.9116 258.95 37.3966C258.618 36.8903 258.461 36.2967 258.461 35.6159C258.461 34.8478 258.671 34.2018 259.09 33.6607C259.526 33.1282 260.12 32.7878 260.87 32.6481C260.329 32.4648 259.893 32.1419 259.544 31.6705C259.212 31.1817 259.055 30.6493 259.055 30.0644C259.055 29.4622 259.203 28.9384 259.509 28.4933C259.805 28.0568 260.216 27.7077 260.731 27.4458C261.263 27.1665 261.865 27.0269 262.546 27.0269C263.244 27.0269 263.847 27.1578 264.362 27.4109C264.894 27.6728 265.313 28.0307 265.618 28.4933C265.915 28.9384 266.072 29.4534 266.072 30.0295C266.072 30.6405 265.898 31.1817 265.549 31.6705C265.199 32.1419 264.754 32.4648 264.222 32.6481C264.964 32.7878 265.557 33.1282 266.002 33.6607C266.439 34.2018 266.666 34.8478 266.666 35.6159C266.666 36.2967 266.491 36.8903 266.142 37.3966C265.793 37.9116 265.304 38.3218 264.676 38.6186C264.065 38.8979 263.358 39.0376 262.546 39.0376ZM262.546 32.1942C262.965 32.1942 263.332 32.1157 263.663 31.9498C263.986 31.7665 264.239 31.5221 264.431 31.2166C264.615 30.9199 264.711 30.5794 264.711 30.2041C264.711 29.628 264.501 29.1567 264.082 28.8075C263.681 28.4409 263.175 28.2489 262.546 28.2489C261.918 28.2489 261.394 28.4409 260.975 28.8075C260.574 29.1567 260.381 29.628 260.381 30.2041C260.381 30.7627 260.574 31.2428 260.975 31.6356C261.394 32.0109 261.918 32.1942 262.546 32.1942ZM262.546 37.8505C263.105 37.8505 263.593 37.7632 264.012 37.5711C264.431 37.3616 264.754 37.0823 264.99 36.7332C265.217 36.384 265.339 36 265.339 35.581C265.339 35.1446 265.208 34.743 264.955 34.3939C264.719 34.0447 264.396 33.7654 263.977 33.5559C263.559 33.3464 263.078 33.2417 262.546 33.2417C262.005 33.2417 261.534 33.3464 261.115 33.5559C260.696 33.7654 260.364 34.0447 260.137 34.3939C259.901 34.743 259.788 35.1446 259.788 35.581C259.788 36 259.901 36.384 260.137 36.7332C260.364 37.0823 260.696 37.3616 261.115 37.5711C261.534 37.7632 262.005 37.8505 262.546 37.8505Z" fill="#F5F5F5"/>
<path d="M268.694 38.8283C268.414 38.8283 268.187 38.741 268.03 38.5839C267.864 38.4267 267.786 38.2173 267.786 37.9554C267.786 37.7023 267.864 37.4928 268.03 37.3269C268.187 37.1698 268.414 37.0825 268.694 37.0825C268.947 37.0825 269.156 37.1698 269.322 37.3269C269.505 37.4928 269.601 37.7023 269.601 37.9554C269.601 38.2173 269.505 38.4267 269.322 38.5839C269.156 38.741 268.947 38.8283 268.694 38.8283Z" fill="#F5F5F5"/>
<path d="M275.771 39.0378C274.837 39.0378 274.008 38.7759 273.293 38.2697C272.568 37.7634 272.009 37.0477 271.617 36.1399C271.215 35.2321 271.023 34.2108 271.023 33.0674C271.023 31.9064 271.215 30.8677 271.617 29.9599C272.009 29.0522 272.568 28.3451 273.293 27.8301C274.008 27.3239 274.837 27.062 275.771 27.062C276.723 27.062 277.552 27.3239 278.25 27.8301C278.966 28.3451 279.524 29.0522 279.926 29.9599C280.319 30.8677 280.519 31.9064 280.519 33.0674C280.519 34.2108 280.319 35.2321 279.926 36.1399C279.524 37.0477 278.966 37.7634 278.25 38.2697C277.552 38.7759 276.723 39.0378 275.771 39.0378ZM275.771 37.8856C276.47 37.8856 277.072 37.6761 277.587 37.2571C278.093 36.8382 278.494 36.2708 278.774 35.5463C279.071 34.8044 279.228 33.9751 279.228 33.0674C279.228 32.1421 279.071 31.3129 278.774 30.5884C278.494 29.8465 278.093 29.2791 277.587 28.8776C277.072 28.4586 276.47 28.2491 275.771 28.2491C275.091 28.2491 274.488 28.4586 273.956 28.8776C273.441 29.2791 273.048 29.8465 272.769 30.5884C272.49 31.3129 272.35 32.1421 272.35 33.0674C272.35 33.9751 272.49 34.8044 272.769 35.5463C273.048 36.2708 273.441 36.8382 273.956 37.2571C274.488 37.6761 275.091 37.8856 275.771 37.8856Z" fill="#F5F5F5"/>
<path d="M286.864 39.0378C285.93 39.0378 285.101 38.7759 284.385 38.2697C283.661 37.7634 283.102 37.0477 282.709 36.1399C282.308 35.2321 282.116 34.2108 282.116 33.0674C282.116 31.9064 282.308 30.8677 282.709 29.9599C283.102 29.0522 283.661 28.3451 284.385 27.8301C285.101 27.3239 285.93 27.062 286.864 27.062C287.815 27.062 288.644 27.3239 289.343 27.8301C290.058 28.3451 290.617 29.0522 291.018 29.9599C291.411 30.8677 291.612 31.9064 291.612 33.0674C291.612 34.2108 291.411 35.2321 291.018 36.1399C290.617 37.0477 290.058 37.7634 289.343 38.2697C288.644 38.7759 287.815 39.0378 286.864 39.0378ZM286.864 37.8856C287.562 37.8856 288.164 37.6761 288.679 37.2571C289.186 36.8382 289.587 36.2708 289.866 35.5463C290.163 34.8044 290.32 33.9751 290.32 33.0674C290.32 32.1421 290.163 31.3129 289.866 30.5884C289.587 29.8465 289.186 29.2791 288.679 28.8776C288.164 28.4586 287.562 28.2491 286.864 28.2491C286.183 28.2491 285.581 28.4586 285.048 28.8776C284.533 29.2791 284.141 29.8465 283.861 30.5884C283.582 31.3129 283.442 32.1421 283.442 33.0674C283.442 33.9751 283.582 34.8044 283.861 35.5463C284.141 36.2708 284.533 36.8382 285.048 37.2571C285.581 37.6761 286.183 37.8856 286.864 37.8856Z" fill="#F5F5F5"/>
<path d="M297.014 39.0376C296.193 39.0376 295.478 38.8979 294.849 38.6186C294.238 38.3218 293.767 37.9116 293.418 37.3966C293.086 36.8903 292.929 36.2967 292.929 35.6159C292.929 34.8478 293.138 34.2018 293.557 33.6607C293.994 33.1282 294.587 32.7878 295.338 32.6481C294.797 32.4648 294.36 32.1419 294.011 31.6705C293.68 31.1817 293.522 30.6493 293.522 30.0644C293.522 29.4622 293.671 28.9384 293.976 28.4933C294.273 28.0568 294.683 27.7077 295.198 27.4458C295.731 27.1665 296.333 27.0269 297.014 27.0269C297.712 27.0269 298.314 27.1578 298.829 27.4109C299.362 27.6728 299.781 28.0307 300.086 28.4933C300.383 28.9384 300.54 29.4534 300.54 30.0295C300.54 30.6405 300.365 31.1817 300.016 31.6705C299.667 32.1419 299.222 32.4648 298.69 32.6481C299.431 32.7878 300.025 33.1282 300.47 33.6607C300.906 34.2018 301.133 34.8478 301.133 35.6159C301.133 36.2967 300.959 36.8903 300.61 37.3966C300.261 37.9116 299.772 38.3218 299.143 38.6186C298.532 38.8979 297.825 39.0376 297.014 39.0376ZM297.014 32.1942C297.433 32.1942 297.799 32.1157 298.131 31.9498C298.454 31.7665 298.707 31.5221 298.899 31.2166C299.082 30.9199 299.178 30.5794 299.178 30.2041C299.178 29.628 298.969 29.1567 298.55 28.8075C298.148 28.4409 297.642 28.2489 297.014 28.2489C296.385 28.2489 295.862 28.4409 295.443 28.8075C295.041 29.1567 294.849 29.628 294.849 30.2041C294.849 30.7627 295.041 31.2428 295.443 31.6356C295.862 32.0109 296.385 32.1942 297.014 32.1942ZM297.014 37.8505C297.572 37.8505 298.061 37.7632 298.48 37.5711C298.899 37.3616 299.222 37.0823 299.458 36.7332C299.685 36.384 299.807 36 299.807 35.581C299.807 35.1446 299.676 34.743 299.423 34.3939C299.187 34.0447 298.864 33.7654 298.445 33.5559C298.026 33.3464 297.546 33.2417 297.014 33.2417C296.473 33.2417 296.001 33.3464 295.582 33.5559C295.163 33.7654 294.832 34.0447 294.605 34.3939C294.369 34.743 294.256 35.1446 294.256 35.581C294.256 36 294.369 36.384 294.605 36.7332C294.832 37.0823 295.163 37.3616 295.582 37.5711C296.001 37.7632 296.473 37.8505 297.014 37.8505Z" fill="#F5F5F5"/>
<rect x="78.5" y="46" width="46" height="3" rx="1.5" transform="rotate(-90 78.5 46)" fill="#F5F5F5"/>
</svg>
