<svg width="50" height="50" viewBox="0 0 50 50" fill="none" xmlns="http://www.w3.org/2000/svg">
<mask id="mask0_45_125" style="mask-type:luminance" maskUnits="userSpaceOnUse" x="16" y="24" width="34" height="22">
<path d="M16.507 24.7387H50V45.3269H16.507V24.7387Z" fill="white"/>
</mask>
<g mask="url(#mask0_45_125)">
<path d="M17.3125 45.3006C17.1113 45.3006 16.9092 45.2336 16.7557 45.0996C16.4476 44.8315 16.4476 44.3972 16.7557 44.1292L18.7458 42.3945C19.4153 41.8109 20.1986 41.3554 21.0741 41.0398C21.9487 40.7234 22.8728 40.5639 23.8193 40.5639H34.1693C35.7338 40.5639 37.3566 39.9167 38.514 38.8318L47.8641 29.4441C48.2255 29.0801 48.4247 28.6161 48.4247 28.136C48.4247 27.5567 48.1371 27.0061 47.6347 26.627C46.6805 25.9059 45.2306 25.995 44.4017 26.8263L37.5723 33.6837C37.2866 33.9695 36.7891 34.0009 36.4607 33.7524C36.1322 33.5038 36.0972 33.0704 36.382 32.7845L43.2123 25.9272C44.6097 24.5241 47.0575 24.3731 48.6677 25.5904C49.515 26.2308 49.9999 27.1588 49.9999 28.136C49.9999 28.947 49.6637 29.7308 49.0544 30.3432L39.6946 39.7394C39.6898 39.7454 39.6839 39.7504 39.6781 39.7564C38.2059 41.1416 36.1983 41.9364 34.1693 41.9364H23.8193C22.3238 41.9364 20.9177 42.4437 19.8604 43.3649L17.8703 45.0996C17.7158 45.2336 17.5146 45.3006 17.3125 45.3006Z" fill="black"/>
</g>
<mask id="mask1_45_125" style="mask-type:luminance" maskUnits="userSpaceOnUse" x="0" y="34" width="19" height="16">
<path d="M0 34.1358H18.3397V50H0V34.1358Z" fill="white"/>
</mask>
<g mask="url(#mask1_45_125)">
<path d="M1.90365 39.6181L11.9184 48.3433L16.1989 44.6144L6.18417 35.8891L1.90365 39.6181ZM11.9184 50C11.7173 50 11.5151 49.933 11.3616 49.799L0.233228 40.1033C0.0855229 39.9744 0.00195312 39.8005 0.00195312 39.6181C0.00195312 39.4357 0.0855229 39.2618 0.233228 39.1329L5.62737 34.4335C5.93444 34.1655 6.43391 34.1655 6.74098 34.4335L17.8694 44.1292C18.0171 44.2573 18.1006 44.432 18.1006 44.6144C18.1006 44.7959 18.0171 44.9706 17.8694 45.0996L12.4752 49.799C12.3217 49.933 12.1205 50 11.9184 50Z" fill="black"/>
</g>
<path d="M34.0139 36.7501H23.0323C22.5969 36.7501 22.2442 36.4422 22.2442 36.0639C22.2442 35.6847 22.5969 35.3777 23.0323 35.3777H34.0139C35.2208 35.3777 36.2023 34.5218 36.2023 33.4708C36.2023 33.4114 36.1994 33.3545 36.1935 33.3003C36.1926 33.2986 36.1926 33.2969 36.1926 33.2952C36.1469 32.8541 35.9234 32.4376 35.5609 32.122C35.1479 31.7624 34.5979 31.5639 34.0139 31.5639H13.4674C11.9719 31.5639 10.5668 32.0711 9.50853 32.9923L6.74101 35.404C6.43297 35.672 5.93446 35.672 5.62739 35.404C5.31935 35.1359 5.31935 34.7007 5.62739 34.4335L8.39491 32.0219C9.06444 31.4383 9.84767 30.9828 10.7222 30.6673C11.5968 30.3508 12.5209 30.1914 13.4674 30.1914H34.0139C35.0187 30.1914 35.9642 30.5324 36.6755 31.1516C37.2974 31.6936 37.6822 32.4104 37.7619 33.1705C37.7726 33.268 37.7775 33.3681 37.7775 33.4708C37.7775 35.2793 36.0896 36.7501 34.0139 36.7501Z" fill="black"/>
<path d="M26.41 29.2888H23.5919C23.1576 29.2888 22.8048 28.9809 22.8048 28.6017V6.88195C22.8048 6.50278 23.1576 6.19571 23.5919 6.19571C24.0273 6.19571 24.38 6.50278 24.38 6.88195V27.9155H25.6229V6.88195C25.6229 6.50278 25.9756 6.19571 26.41 6.19571C26.8453 6.19571 27.1981 6.50278 27.1981 6.88195V28.6017C27.1981 28.9809 26.8453 29.2888 26.41 29.2888Z" fill="black"/>
<path d="M19.8916 30.1914H30.1114V29.2888H19.8916V30.1914ZM30.8985 31.5639H19.1045C18.6691 31.5639 18.3164 31.2568 18.3164 30.8776V28.6017C18.3164 28.2234 18.6691 27.9155 19.1045 27.9155H30.8985C31.3339 27.9155 31.6866 28.2234 31.6866 28.6017V30.8776C31.6866 31.2568 31.3339 31.5639 30.8985 31.5639Z" fill="black"/>
<path d="M25.001 3.62801C24.104 3.62801 23.3743 4.26421 23.3743 5.04631C23.3743 5.82756 24.104 6.46376 25.001 6.46376C25.8988 6.46376 26.6286 5.82756 26.6286 5.04631C26.6286 4.26421 25.8988 3.62801 25.001 3.62801ZM25.001 7.83624C23.2353 7.83624 21.7991 6.58421 21.7991 5.04631C21.7991 3.50756 23.2353 2.25552 25.001 2.25552C26.7676 2.25552 28.2038 3.50756 28.2038 5.04631C28.2038 6.58421 26.7676 7.83624 25.001 7.83624Z" fill="black"/>
<path d="M8.04308 16.7473C8.12179 18.8993 10.1556 20.6297 12.6452 20.6297C15.1339 20.6297 17.1687 18.8993 17.2464 16.7473L12.6452 6.87008L8.04308 16.7473ZM12.6452 22.0022C9.23735 22.0022 6.46594 19.5872 6.46594 16.6183C6.46594 16.5301 6.48538 16.4427 6.52328 16.3604L11.9155 4.7876C12.036 4.52888 12.3246 4.35922 12.6452 4.35922C12.9659 4.35922 13.2545 4.52888 13.375 4.7876L18.7672 16.3604C18.8051 16.4427 18.8246 16.5301 18.8246 16.6183C18.8246 19.5872 16.0522 22.0022 12.6452 22.0022Z" fill="black"/>
<path d="M18.0365 17.3046H7.25305C6.81771 17.3046 6.46594 16.9975 6.46594 16.6183C6.46594 16.2391 6.81771 15.9321 7.25305 15.9321H18.0365C18.4718 15.9321 18.8246 16.2391 18.8246 16.6183C18.8246 16.9975 18.4718 17.3046 18.0365 17.3046Z" fill="black"/>
<path d="M32.7555 16.7473C32.8342 18.8993 34.868 20.6297 37.3576 20.6297C39.8463 20.6297 41.8811 18.8993 41.9598 16.7473L37.3576 6.87008L32.7555 16.7473ZM37.3576 22.0022C33.9507 22.0022 31.1783 19.5872 31.1783 16.6183C31.1783 16.5301 31.1978 16.4427 31.2357 16.3604L36.6279 4.7876C36.7484 4.52888 37.037 4.35922 37.3576 4.35922C37.6783 4.35922 37.9669 4.52888 38.0874 4.7876L43.4796 16.3604C43.5175 16.4427 43.537 16.5301 43.537 16.6183C43.537 19.5872 40.7655 22.0022 37.3576 22.0022Z" fill="black"/>
<path d="M42.7498 17.3046H31.9655C31.5311 17.3046 31.1783 16.9975 31.1783 16.6183C31.1783 16.2391 31.5311 15.9321 31.9655 15.9321H42.7498C43.1842 15.9321 43.537 16.2391 43.537 16.6183C43.537 16.9975 43.1842 17.3046 42.7498 17.3046Z" fill="black"/>
<path d="M40.6149 5.73256H27.4167C26.9814 5.73256 26.6287 5.42464 26.6287 5.04632C26.6287 4.66714 26.9814 4.35922 27.4167 4.35922H40.6149C41.0503 4.35922 41.403 4.66714 41.403 5.04632C41.403 5.42464 41.0503 5.73256 40.6149 5.73256Z" fill="black"/>
<path d="M22.5861 5.73256H9.38696C8.9526 5.73256 8.59985 5.42464 8.59985 5.04632C8.59985 4.66714 8.9526 4.35922 9.38696 4.35922H22.5861C23.0215 4.35922 23.3742 4.66714 23.3742 5.04632C23.3742 5.42464 23.0215 5.73256 22.5861 5.73256Z" fill="black"/>
<mask id="mask2_45_125" style="mask-type:luminance" maskUnits="userSpaceOnUse" x="22" y="0" width="6" height="4">
<path d="M22.8175 0H27.0465V3.95121H22.8175V0Z" fill="white"/>
</mask>
<g mask="url(#mask2_45_125)">
<path d="M26.1807 3.89607C25.7463 3.89607 25.3936 3.58815 25.3936 3.20983V1.71349C25.3936 1.52602 25.2177 1.37249 25.001 1.37249C24.7853 1.37249 24.6094 1.52602 24.6094 1.71349V3.20983C24.6094 3.58815 24.2566 3.89607 23.8223 3.89607C23.3869 3.89607 23.0342 3.58815 23.0342 3.20983V1.71349C23.0342 0.768526 23.9165 0 25.001 0C26.0864 0 26.9688 0.768526 26.9688 1.71349V3.20983C26.9688 3.58815 26.616 3.89607 26.1807 3.89607Z" fill="black"/>
</g>
</svg>
