<svg viewBox="0 0 33 32" fill="none" xmlns="http://www.w3.org/2000/svg">
<path d="M10.7288 0.861589C4.8416 3.12764 0.426208 8.97552 0.426208 14.4579C0.426208 17.6011 2.80912 22.7911 5.19203 24.6917C6.94417 26.1537 6.94417 26.2268 5.8228 28.7852C5.19203 30.1741 4.63134 31.4899 4.63134 31.7823C4.63134 32.5132 9.04674 31.2706 10.869 30.0279C11.9903 29.2969 14.2331 28.8583 16.8963 28.7852C19.9801 28.7121 22.0827 28.2004 24.6057 26.8116C34.6981 21.4023 35.1186 8.31764 25.3066 2.32356C21.3818 -0.0155945 14.7938 -0.746578 10.7288 0.861589ZM21.8023 2.10426C25.5869 3.20074 30.2827 8.17144 30.9134 11.7533C31.7545 16.2854 30.7032 19.5748 27.4793 22.9373C24.2553 26.373 20.5408 27.7618 15.2844 27.5425C12.9715 27.4694 11.2194 27.908 9.39717 29.0776C6.45357 30.832 6.3134 30.7589 7.50485 28.0542C8.2758 26.373 8.06554 25.8613 5.47237 22.9373C0.706551 17.6011 0.636465 11.3878 5.19203 6.27088C9.257 1.81187 15.3544 0.276802 21.8023 2.10426Z" fill="currentColor"/>
<path d="M8.13562 10.072C8.13562 10.5106 11.4296 10.803 16.5459 10.803C21.6621 10.803 24.9562 10.5106 24.9562 10.072C24.9562 9.6334 21.6621 9.34101 16.5459 9.34101C11.4296 9.34101 8.13562 9.6334 8.13562 10.072Z" fill="currentColor"/>
<path d="M5.33221 14.458C5.33221 14.8966 7.99547 15.189 11.9903 15.189C15.9852 15.189 18.6485 14.8966 18.6485 14.458C18.6485 14.0194 15.9852 13.727 11.9903 13.727C7.99547 13.727 5.33221 14.0194 5.33221 14.458Z" fill="currentColor"/>
<path d="M21.4519 14.458C21.4519 14.8235 22.8536 15.189 24.6058 15.189C26.3579 15.189 27.7596 14.8235 27.7596 14.458C27.7596 14.0194 26.3579 13.727 24.6058 13.727C22.8536 13.727 21.4519 14.0194 21.4519 14.458Z" fill="currentColor"/>
<path d="M8.13562 18.8438C8.13562 19.2824 11.4296 19.5748 16.5459 19.5748C21.6621 19.5748 24.9562 19.2824 24.9562 18.8438C24.9562 18.4053 21.6621 18.1129 16.5459 18.1129C11.4296 18.1129 8.13562 18.4053 8.13562 18.8438Z" fill="currentColor"/>
</svg>
